%TF.GenerationSoftware,KiCad,Pcbnew,(5.1.6-0-10_14)*%
%TF.CreationDate,2022-12-08T17:46:00+09:00*%
%TF.ProjectId,MuxReadoutBoard,4d757852-6561-4646-9f75-74426f617264,rev?*%
%TF.SameCoordinates,Original*%
%TF.FileFunction,Legend,Bot*%
%TF.FilePolarity,Positive*%
%FSLAX46Y46*%
G04 Gerber Fmt 4.6, Leading zero omitted, Abs format (unit mm)*
G04 Created by KiCad (PCBNEW (5.1.6-0-10_14)) date 2022-12-08 17:46:00*
%MOMM*%
%LPD*%
G01*
G04 APERTURE LIST*
%ADD10C,0.150000*%
%ADD11C,0.120000*%
G04 APERTURE END LIST*
D10*
X152534952Y-112426761D02*
X152487333Y-112331523D01*
X152439714Y-112283904D01*
X152344476Y-112236285D01*
X152296857Y-112236285D01*
X152201619Y-112283904D01*
X152154000Y-112331523D01*
X152106380Y-112426761D01*
X152106380Y-112617238D01*
X152154000Y-112712476D01*
X152201619Y-112760095D01*
X152296857Y-112807714D01*
X152344476Y-112807714D01*
X152439714Y-112760095D01*
X152487333Y-112712476D01*
X152534952Y-112617238D01*
X152534952Y-112426761D01*
X152582571Y-112331523D01*
X152630190Y-112283904D01*
X152725428Y-112236285D01*
X152915904Y-112236285D01*
X153011142Y-112283904D01*
X153058761Y-112331523D01*
X153106380Y-112426761D01*
X153106380Y-112617238D01*
X153058761Y-112712476D01*
X153011142Y-112760095D01*
X152915904Y-112807714D01*
X152725428Y-112807714D01*
X152630190Y-112760095D01*
X152582571Y-112712476D01*
X152534952Y-112617238D01*
X153106380Y-121697714D02*
X153106380Y-121126285D01*
X153106380Y-121412000D02*
X152106380Y-121412000D01*
X152249238Y-121316761D01*
X152344476Y-121221523D01*
X152392095Y-121126285D01*
D11*
%TO.C,C1*%
X161894000Y-123352000D02*
X161194000Y-123352000D01*
X161194000Y-124552000D02*
X161894000Y-124552000D01*
%TO.C,J5*%
X148650000Y-148530000D02*
X148650000Y-151190000D01*
X130810000Y-148530000D02*
X148650000Y-148530000D01*
X130810000Y-151190000D02*
X148650000Y-151190000D01*
X130810000Y-148530000D02*
X130810000Y-151190000D01*
X129540000Y-148530000D02*
X128210000Y-148530000D01*
X128210000Y-148530000D02*
X128210000Y-149860000D01*
D10*
%TO.C,U1*%
X155405000Y-121915000D02*
X155405000Y-121890000D01*
X159555000Y-121915000D02*
X159555000Y-121810000D01*
X159555000Y-111765000D02*
X159555000Y-111870000D01*
X155405000Y-111765000D02*
X155405000Y-111870000D01*
X155405000Y-121915000D02*
X159555000Y-121915000D01*
X155405000Y-111765000D02*
X159555000Y-111765000D01*
X155405000Y-121890000D02*
X154030000Y-121890000D01*
D11*
%TO.C,J3*%
X119066000Y-100270000D02*
X119066000Y-101600000D01*
X120396000Y-100270000D02*
X119066000Y-100270000D01*
X121666000Y-100270000D02*
X121666000Y-102930000D01*
X121666000Y-102930000D02*
X144586000Y-102930000D01*
X121666000Y-100270000D02*
X144586000Y-100270000D01*
X144586000Y-100270000D02*
X144586000Y-102930000D01*
%TO.C,J4*%
X145990000Y-100270000D02*
X145990000Y-101600000D01*
X147320000Y-100270000D02*
X145990000Y-100270000D01*
X148590000Y-100270000D02*
X148590000Y-102930000D01*
X148590000Y-102930000D02*
X166430000Y-102930000D01*
X148590000Y-100270000D02*
X166430000Y-100270000D01*
X166430000Y-100270000D02*
X166430000Y-102930000D01*
%TO.C,J6*%
X151070000Y-148530000D02*
X151070000Y-149860000D01*
X152400000Y-148530000D02*
X151070000Y-148530000D01*
X153670000Y-148530000D02*
X153670000Y-151190000D01*
X153670000Y-151190000D02*
X166430000Y-151190000D01*
X153670000Y-148530000D02*
X166430000Y-148530000D01*
X166430000Y-148530000D02*
X166430000Y-151190000D01*
%TO.C,U1*%
D10*
X163266380Y-113601904D02*
X162266380Y-113601904D01*
X162980666Y-113935238D01*
X162266380Y-114268571D01*
X163266380Y-114268571D01*
X163171142Y-115316190D02*
X163218761Y-115268571D01*
X163266380Y-115125714D01*
X163266380Y-115030476D01*
X163218761Y-114887619D01*
X163123523Y-114792380D01*
X163028285Y-114744761D01*
X162837809Y-114697142D01*
X162694952Y-114697142D01*
X162504476Y-114744761D01*
X162409238Y-114792380D01*
X162314000Y-114887619D01*
X162266380Y-115030476D01*
X162266380Y-115125714D01*
X162314000Y-115268571D01*
X162361619Y-115316190D01*
X163266380Y-115744761D02*
X162266380Y-115744761D01*
X162266380Y-116125714D01*
X162314000Y-116220952D01*
X162361619Y-116268571D01*
X162456857Y-116316190D01*
X162599714Y-116316190D01*
X162694952Y-116268571D01*
X162742571Y-116220952D01*
X162790190Y-116125714D01*
X162790190Y-115744761D01*
X162266380Y-116649523D02*
X162266380Y-117268571D01*
X162647333Y-116935238D01*
X162647333Y-117078095D01*
X162694952Y-117173333D01*
X162742571Y-117220952D01*
X162837809Y-117268571D01*
X163075904Y-117268571D01*
X163171142Y-117220952D01*
X163218761Y-117173333D01*
X163266380Y-117078095D01*
X163266380Y-116792380D01*
X163218761Y-116697142D01*
X163171142Y-116649523D01*
X162361619Y-117649523D02*
X162314000Y-117697142D01*
X162266380Y-117792380D01*
X162266380Y-118030476D01*
X162314000Y-118125714D01*
X162361619Y-118173333D01*
X162456857Y-118220952D01*
X162552095Y-118220952D01*
X162694952Y-118173333D01*
X163266380Y-117601904D01*
X163266380Y-118220952D01*
X162266380Y-118840000D02*
X162266380Y-118935238D01*
X162314000Y-119030476D01*
X162361619Y-119078095D01*
X162456857Y-119125714D01*
X162647333Y-119173333D01*
X162885428Y-119173333D01*
X163075904Y-119125714D01*
X163171142Y-119078095D01*
X163218761Y-119030476D01*
X163266380Y-118935238D01*
X163266380Y-118840000D01*
X163218761Y-118744761D01*
X163171142Y-118697142D01*
X163075904Y-118649523D01*
X162885428Y-118601904D01*
X162647333Y-118601904D01*
X162456857Y-118649523D01*
X162361619Y-118697142D01*
X162314000Y-118744761D01*
X162266380Y-118840000D01*
X162694952Y-119744761D02*
X162647333Y-119649523D01*
X162599714Y-119601904D01*
X162504476Y-119554285D01*
X162456857Y-119554285D01*
X162361619Y-119601904D01*
X162314000Y-119649523D01*
X162266380Y-119744761D01*
X162266380Y-119935238D01*
X162314000Y-120030476D01*
X162361619Y-120078095D01*
X162456857Y-120125714D01*
X162504476Y-120125714D01*
X162599714Y-120078095D01*
X162647333Y-120030476D01*
X162694952Y-119935238D01*
X162694952Y-119744761D01*
X162742571Y-119649523D01*
X162790190Y-119601904D01*
X162885428Y-119554285D01*
X163075904Y-119554285D01*
X163171142Y-119601904D01*
X163218761Y-119649523D01*
X163266380Y-119744761D01*
X163266380Y-119935238D01*
X163218761Y-120030476D01*
X163171142Y-120078095D01*
X163075904Y-120125714D01*
X162885428Y-120125714D01*
X162790190Y-120078095D01*
X162742571Y-120030476D01*
X162694952Y-119935238D01*
%TD*%
M02*
