%TF.GenerationSoftware,KiCad,Pcbnew,(5.1.6-0-10_14)*%
%TF.CreationDate,2022-12-08T17:46:00+09:00*%
%TF.ProjectId,MuxReadoutBoard,4d757852-6561-4646-9f75-74426f617264,rev?*%
%TF.SameCoordinates,Original*%
%TF.FileFunction,Copper,L2,Bot*%
%TF.FilePolarity,Positive*%
%FSLAX46Y46*%
G04 Gerber Fmt 4.6, Leading zero omitted, Abs format (unit mm)*
G04 Created by KiCad (PCBNEW (5.1.6-0-10_14)) date 2022-12-08 17:46:00*
%MOMM*%
%LPD*%
G01*
G04 APERTURE LIST*
%TA.AperFunction,SMDPad,CuDef*%
%ADD10R,1.200000X0.750000*%
%TD*%
%TA.AperFunction,ComponentPad*%
%ADD11C,2.475000*%
%TD*%
%TA.AperFunction,ComponentPad*%
%ADD12C,1.650000*%
%TD*%
%TA.AperFunction,ComponentPad*%
%ADD13C,1.509000*%
%TD*%
%TA.AperFunction,ComponentPad*%
%ADD14O,1.700000X1.700000*%
%TD*%
%TA.AperFunction,ComponentPad*%
%ADD15R,1.700000X1.700000*%
%TD*%
%TA.AperFunction,SMDPad,CuDef*%
%ADD16R,1.500000X0.600000*%
%TD*%
%TA.AperFunction,ViaPad*%
%ADD17C,0.800000*%
%TD*%
%TA.AperFunction,Conductor*%
%ADD18C,0.700000*%
%TD*%
%TA.AperFunction,Conductor*%
%ADD19C,0.200000*%
%TD*%
%TA.AperFunction,Conductor*%
%ADD20C,0.250000*%
%TD*%
G04 APERTURE END LIST*
D10*
%TO.P,C1,2*%
%TO.N,+5V*%
X160594000Y-123952000D03*
%TO.P,C1,1*%
%TO.N,GND*%
X162494000Y-123952000D03*
%TD*%
D11*
%TO.P,J1,MH4*%
%TO.N,N/C*%
X122810000Y-122071000D03*
%TO.P,J1,MH3*%
X122810000Y-138271000D03*
D12*
%TO.P,J1,MH2*%
X119380000Y-123821000D03*
%TO.P,J1,MH1*%
X119380000Y-136521000D03*
D13*
%TO.P,J1,8*%
%TO.N,Net-(J1-Pad8)*%
X123700000Y-126591000D03*
%TO.P,J1,7*%
%TO.N,Net-(J1-Pad7)*%
X121920000Y-127611000D03*
%TO.P,J1,6*%
%TO.N,Net-(J1-Pad6)*%
X123700000Y-128631000D03*
%TO.P,J1,5*%
%TO.N,Net-(J1-Pad5)*%
X121920000Y-129651000D03*
%TO.P,J1,4*%
%TO.N,Net-(J1-Pad4)*%
X123700000Y-130671000D03*
%TO.P,J1,3*%
%TO.N,Net-(J1-Pad3)*%
X121920000Y-131691000D03*
%TO.P,J1,2*%
%TO.N,Net-(J1-Pad2)*%
X123700000Y-132711000D03*
%TO.P,J1,1*%
%TO.N,Net-(J1-Pad1)*%
X121920000Y-133731000D03*
%TD*%
D14*
%TO.P,J5,8*%
%TO.N,Net-(J5-Pad8)*%
X147320000Y-149860000D03*
%TO.P,J5,7*%
%TO.N,GND*%
X144780000Y-149860000D03*
%TO.P,J5,6*%
X142240000Y-149860000D03*
%TO.P,J5,5*%
%TO.N,+5V*%
X139700000Y-149860000D03*
%TO.P,J5,4*%
%TO.N,+3V3*%
X137160000Y-149860000D03*
%TO.P,J5,3*%
%TO.N,Net-(J5-Pad3)*%
X134620000Y-149860000D03*
%TO.P,J5,2*%
%TO.N,Net-(J5-Pad2)*%
X132080000Y-149860000D03*
D15*
%TO.P,J5,1*%
%TO.N,Net-(J5-Pad1)*%
X129540000Y-149860000D03*
%TD*%
D16*
%TO.P,U1,16*%
%TO.N,+5V*%
X160180000Y-121285000D03*
%TO.P,U1,15*%
%TO.N,+3V3*%
X160180000Y-120015000D03*
%TO.P,U1,14*%
%TO.N,GND*%
X160180000Y-118745000D03*
%TO.P,U1,13*%
%TO.N,Net-(J3-Pad5)*%
X160180000Y-117475000D03*
%TO.P,U1,12*%
%TO.N,Net-(J3-Pad6)*%
X160180000Y-116205000D03*
%TO.P,U1,11*%
%TO.N,Net-(J3-Pad7)*%
X160180000Y-114935000D03*
%TO.P,U1,10*%
%TO.N,Net-(J3-Pad8)*%
X160180000Y-113665000D03*
%TO.P,U1,9*%
%TO.N,GND*%
X160180000Y-112395000D03*
%TO.P,U1,8*%
%TO.N,Net-(J1-Pad8)*%
X154780000Y-112395000D03*
%TO.P,U1,7*%
%TO.N,Net-(J1-Pad7)*%
X154780000Y-113665000D03*
%TO.P,U1,6*%
%TO.N,Net-(J1-Pad6)*%
X154780000Y-114935000D03*
%TO.P,U1,5*%
%TO.N,Net-(J1-Pad5)*%
X154780000Y-116205000D03*
%TO.P,U1,4*%
%TO.N,Net-(J1-Pad4)*%
X154780000Y-117475000D03*
%TO.P,U1,3*%
%TO.N,Net-(J1-Pad3)*%
X154780000Y-118745000D03*
%TO.P,U1,2*%
%TO.N,Net-(J1-Pad2)*%
X154780000Y-120015000D03*
%TO.P,U1,1*%
%TO.N,Net-(J1-Pad1)*%
X154780000Y-121285000D03*
%TD*%
D14*
%TO.P,J3,10*%
%TO.N,Net-(J3-Pad10)*%
X143256000Y-101600000D03*
%TO.P,J3,9*%
%TO.N,Net-(J3-Pad9)*%
X140716000Y-101600000D03*
%TO.P,J3,8*%
%TO.N,Net-(J3-Pad8)*%
X138176000Y-101600000D03*
%TO.P,J3,7*%
%TO.N,Net-(J3-Pad7)*%
X135636000Y-101600000D03*
%TO.P,J3,6*%
%TO.N,Net-(J3-Pad6)*%
X133096000Y-101600000D03*
%TO.P,J3,5*%
%TO.N,Net-(J3-Pad5)*%
X130556000Y-101600000D03*
%TO.P,J3,4*%
%TO.N,GND*%
X128016000Y-101600000D03*
%TO.P,J3,3*%
%TO.N,Net-(J3-Pad3)*%
X125476000Y-101600000D03*
%TO.P,J3,2*%
%TO.N,Net-(J3-Pad2)*%
X122936000Y-101600000D03*
D15*
%TO.P,J3,1*%
%TO.N,Net-(J3-Pad1)*%
X120396000Y-101600000D03*
%TD*%
D14*
%TO.P,J4,8*%
%TO.N,Net-(J4-Pad8)*%
X165100000Y-101600000D03*
%TO.P,J4,7*%
%TO.N,Net-(J4-Pad7)*%
X162560000Y-101600000D03*
%TO.P,J4,6*%
%TO.N,Net-(J4-Pad6)*%
X160020000Y-101600000D03*
%TO.P,J4,5*%
%TO.N,Net-(J4-Pad5)*%
X157480000Y-101600000D03*
%TO.P,J4,4*%
%TO.N,Net-(J4-Pad4)*%
X154940000Y-101600000D03*
%TO.P,J4,3*%
%TO.N,Net-(J4-Pad3)*%
X152400000Y-101600000D03*
%TO.P,J4,2*%
%TO.N,Net-(J4-Pad2)*%
X149860000Y-101600000D03*
D15*
%TO.P,J4,1*%
%TO.N,Net-(J4-Pad1)*%
X147320000Y-101600000D03*
%TD*%
D14*
%TO.P,J6,6*%
%TO.N,Net-(J6-Pad6)*%
X165100000Y-149860000D03*
%TO.P,J6,5*%
%TO.N,Net-(J6-Pad5)*%
X162560000Y-149860000D03*
%TO.P,J6,4*%
%TO.N,Net-(J6-Pad4)*%
X160020000Y-149860000D03*
%TO.P,J6,3*%
%TO.N,Net-(J6-Pad3)*%
X157480000Y-149860000D03*
%TO.P,J6,2*%
%TO.N,Net-(J6-Pad2)*%
X154940000Y-149860000D03*
D15*
%TO.P,J6,1*%
%TO.N,Net-(J6-Pad1)*%
X152400000Y-149860000D03*
%TD*%
D14*
%TO.P,J2,8*%
%TO.N,Net-(J1-Pad8)*%
X136906000Y-126746000D03*
%TO.P,J2,7*%
%TO.N,Net-(J1-Pad7)*%
X139446000Y-126746000D03*
%TO.P,J2,6*%
%TO.N,Net-(J1-Pad6)*%
X136906000Y-129286000D03*
%TO.P,J2,5*%
%TO.N,Net-(J1-Pad5)*%
X139446000Y-129286000D03*
%TO.P,J2,4*%
%TO.N,Net-(J1-Pad4)*%
X136906000Y-131826000D03*
%TO.P,J2,3*%
%TO.N,Net-(J1-Pad3)*%
X139446000Y-131826000D03*
%TO.P,J2,2*%
%TO.N,Net-(J1-Pad2)*%
X136906000Y-134366000D03*
D15*
%TO.P,J2,1*%
%TO.N,Net-(J1-Pad1)*%
X139446000Y-134366000D03*
%TD*%
D17*
%TO.N,GND*%
X161798000Y-112395000D03*
X161798000Y-118745000D03*
X164338000Y-123952000D03*
%TD*%
D18*
%TO.N,+5V*%
X151892000Y-145034000D02*
X144526000Y-145034000D01*
X144526000Y-145034000D02*
X139700000Y-149860000D01*
X151892000Y-145034000D02*
X160180000Y-136746000D01*
X160340000Y-123952000D02*
X160180000Y-124112000D01*
X160594000Y-123952000D02*
X160340000Y-123952000D01*
X160180000Y-124112000D02*
X160180000Y-136746000D01*
X160180000Y-121285000D02*
X160180000Y-124112000D01*
%TO.N,GND*%
X162494000Y-123952000D02*
X164338000Y-123952000D01*
X164338000Y-123952000D02*
X164338000Y-123952000D01*
X160180000Y-112395000D02*
X161798000Y-112395000D01*
X160180000Y-118745000D02*
X161798000Y-118745000D01*
D19*
%TO.N,Net-(J1-Pad8)*%
X123700000Y-126591000D02*
X130147000Y-126591000D01*
X130302000Y-126746000D02*
X136906000Y-126746000D01*
X130147000Y-126591000D02*
X130302000Y-126746000D01*
X144018000Y-125222000D02*
X138430000Y-125222000D01*
X144780000Y-124460000D02*
X144018000Y-125222000D01*
X144780000Y-114808000D02*
X144780000Y-124460000D01*
X138430000Y-125222000D02*
X136906000Y-126746000D01*
X147193000Y-112395000D02*
X144780000Y-114808000D01*
X154780000Y-112395000D02*
X147193000Y-112395000D01*
%TO.N,Net-(J1-Pad7)*%
X138684000Y-126746000D02*
X139446000Y-126746000D01*
X129540000Y-128016000D02*
X137414000Y-128016000D01*
X137414000Y-128016000D02*
X138684000Y-126746000D01*
X129135000Y-127611000D02*
X129540000Y-128016000D01*
X121920000Y-127611000D02*
X129135000Y-127611000D01*
X144526000Y-126746000D02*
X139446000Y-126746000D01*
X145796000Y-115824000D02*
X145796000Y-125476000D01*
X145796000Y-125476000D02*
X144526000Y-126746000D01*
X147955000Y-113665000D02*
X145796000Y-115824000D01*
X154780000Y-113665000D02*
X147955000Y-113665000D01*
%TO.N,Net-(J1-Pad6)*%
X123700000Y-128631000D02*
X128123000Y-128631000D01*
X128778000Y-129286000D02*
X136906000Y-129286000D01*
X128123000Y-128631000D02*
X128778000Y-129286000D01*
X137414000Y-129286000D02*
X136906000Y-129286000D01*
X145288000Y-128016000D02*
X138684000Y-128016000D01*
X138684000Y-128016000D02*
X137414000Y-129286000D01*
X146812000Y-126492000D02*
X145288000Y-128016000D01*
X154780000Y-114935000D02*
X148971000Y-114935000D01*
X146812000Y-117094000D02*
X146812000Y-126492000D01*
X148971000Y-114935000D02*
X146812000Y-117094000D01*
%TO.N,Net-(J1-Pad5)*%
X137414000Y-130556000D02*
X138684000Y-129286000D01*
X138684000Y-129286000D02*
X139446000Y-129286000D01*
X128016000Y-130556000D02*
X137414000Y-130556000D01*
X127111000Y-129651000D02*
X128016000Y-130556000D01*
X121920000Y-129651000D02*
X127111000Y-129651000D01*
X146050000Y-129286000D02*
X139446000Y-129286000D01*
X149987000Y-116205000D02*
X147828000Y-118364000D01*
X147828000Y-127508000D02*
X146050000Y-129286000D01*
X147828000Y-118364000D02*
X147828000Y-127508000D01*
X154780000Y-116205000D02*
X149987000Y-116205000D01*
%TO.N,Net-(J1-Pad4)*%
X127254000Y-131826000D02*
X136906000Y-131826000D01*
X126099000Y-130671000D02*
X127254000Y-131826000D01*
X123700000Y-130671000D02*
X126099000Y-130671000D01*
X148844000Y-119634000D02*
X151003000Y-117475000D01*
X147066000Y-130556000D02*
X148844000Y-128778000D01*
X148844000Y-128778000D02*
X148844000Y-119634000D01*
X138684000Y-130556000D02*
X147066000Y-130556000D01*
X151003000Y-117475000D02*
X154780000Y-117475000D01*
X137414000Y-131826000D02*
X138684000Y-130556000D01*
X136906000Y-131826000D02*
X137414000Y-131826000D01*
%TO.N,Net-(J1-Pad3)*%
X138684000Y-131826000D02*
X139446000Y-131826000D01*
X137414000Y-133096000D02*
X138684000Y-131826000D01*
X125087000Y-131691000D02*
X126492000Y-133096000D01*
X126492000Y-133096000D02*
X137414000Y-133096000D01*
X121920000Y-131691000D02*
X125087000Y-131691000D01*
X147828000Y-131826000D02*
X139446000Y-131826000D01*
X149860000Y-129794000D02*
X147828000Y-131826000D01*
X149860000Y-120777000D02*
X149860000Y-129794000D01*
X151892000Y-118745000D02*
X149860000Y-120777000D01*
X154780000Y-118745000D02*
X151892000Y-118745000D01*
D20*
%TO.N,Net-(J1-Pad2)*%
X136773000Y-134233000D02*
X136906000Y-134366000D01*
D19*
X125730000Y-134366000D02*
X136906000Y-134366000D01*
X124075000Y-132711000D02*
X125730000Y-134366000D01*
X123700000Y-132711000D02*
X124075000Y-132711000D01*
X138430000Y-133096000D02*
X137160000Y-134366000D01*
X148590000Y-133096000D02*
X138430000Y-133096000D01*
X150876000Y-121920000D02*
X150876000Y-130810000D01*
X152781000Y-120015000D02*
X150876000Y-121920000D01*
X137160000Y-134366000D02*
X136906000Y-134366000D01*
X150876000Y-130810000D02*
X148590000Y-133096000D01*
X154780000Y-120015000D02*
X152781000Y-120015000D01*
%TO.N,Net-(J1-Pad1)*%
X138343599Y-135468401D02*
X139446000Y-134366000D01*
X124546401Y-135468401D02*
X138343599Y-135468401D01*
X122809000Y-133731000D02*
X124546401Y-135468401D01*
X121920000Y-133731000D02*
X122809000Y-133731000D01*
X151892000Y-122673750D02*
X151892000Y-131572000D01*
X149098000Y-134366000D02*
X139446000Y-134366000D01*
X151892000Y-131572000D02*
X149098000Y-134366000D01*
X153280750Y-121285000D02*
X151892000Y-122673750D01*
X154780000Y-121285000D02*
X153280750Y-121285000D01*
%TO.N,Net-(J3-Pad8)*%
X159385000Y-113665000D02*
X160180000Y-113665000D01*
X158496000Y-112776000D02*
X159385000Y-113665000D01*
X156464000Y-104648000D02*
X158496000Y-106680000D01*
X158496000Y-106680000D02*
X158496000Y-112776000D01*
X139700000Y-104648000D02*
X156464000Y-104648000D01*
X138176000Y-103124000D02*
X139700000Y-104648000D01*
X138176000Y-101600000D02*
X138176000Y-103124000D01*
D18*
%TO.N,+3V3*%
X158877000Y-120015000D02*
X160180000Y-120015000D01*
X143764000Y-143256000D02*
X150876000Y-143256000D01*
X157988000Y-120904000D02*
X158877000Y-120015000D01*
X157988000Y-136144000D02*
X157988000Y-120904000D01*
X150876000Y-143256000D02*
X157988000Y-136144000D01*
X137160000Y-149860000D02*
X143764000Y-143256000D01*
D19*
%TO.N,Net-(J3-Pad7)*%
X155956000Y-106172000D02*
X157734000Y-107950000D01*
X157734000Y-107950000D02*
X157734000Y-113284000D01*
X159385000Y-114935000D02*
X160180000Y-114935000D01*
X157734000Y-113284000D02*
X159385000Y-114935000D01*
X155956000Y-106172000D02*
X138684000Y-106172000D01*
X138684000Y-106172000D02*
X135636000Y-103124000D01*
X135636000Y-103124000D02*
X135636000Y-101600000D01*
%TO.N,Net-(J3-Pad6)*%
X159385000Y-116205000D02*
X156972000Y-113792000D01*
X156972000Y-109220000D02*
X155956000Y-108204000D01*
X156972000Y-113792000D02*
X156972000Y-109220000D01*
X160180000Y-116205000D02*
X159385000Y-116205000D01*
X155956000Y-108204000D02*
X138176000Y-108204000D01*
X133096000Y-103124000D02*
X133096000Y-101600000D01*
X138176000Y-108204000D02*
X133096000Y-103124000D01*
%TO.N,Net-(J3-Pad5)*%
X159131000Y-117475000D02*
X160180000Y-117475000D01*
X156210000Y-114554000D02*
X159131000Y-117475000D01*
X155702000Y-109982000D02*
X156210000Y-110490000D01*
X156210000Y-110490000D02*
X156210000Y-114554000D01*
X137160000Y-109982000D02*
X155702000Y-109982000D01*
X130556000Y-102870000D02*
X130556000Y-102616000D01*
X130556000Y-101600000D02*
X130556000Y-102870000D01*
X130556000Y-102870000D02*
X130556000Y-103378000D01*
X130556000Y-103378000D02*
X131318000Y-104140000D01*
X131318000Y-104140000D02*
X137160000Y-109982000D01*
%TD*%
M02*
