M48
; DRILL file {KiCad (5.1.6-0-10_14)} date Thursday, December 08, 2022 at 05:46:03 PM
; FORMAT={-:-/ absolute / metric / decimal}
; #@! TF.CreationDate,2022-12-08T17:46:03+09:00
; #@! TF.GenerationSoftware,Kicad,Pcbnew,(5.1.6-0-10_14)
FMAT,2
METRIC
T1C0.400
T2C0.970
T3C1.000
T4C1.650
T5C3.300
%
G90
G05
T1
X161.798Y-112.395
X161.798Y-118.745
X164.338Y-123.952
T2
X121.92Y-127.611
X121.92Y-129.651
X121.92Y-131.691
X121.92Y-133.731
X123.7Y-126.591
X123.7Y-128.631
X123.7Y-130.671
X123.7Y-132.711
T3
X129.54Y-149.86
X132.08Y-149.86
X134.62Y-149.86
X137.16Y-149.86
X139.7Y-149.86
X142.24Y-149.86
X144.78Y-149.86
X147.32Y-149.86
X136.906Y-126.746
X136.906Y-129.286
X136.906Y-131.826
X136.906Y-134.366
X139.446Y-126.746
X139.446Y-129.286
X139.446Y-131.826
X139.446Y-134.366
X147.32Y-101.6
X149.86Y-101.6
X152.4Y-101.6
X154.94Y-101.6
X157.48Y-101.6
X160.02Y-101.6
X162.56Y-101.6
X165.1Y-101.6
X152.4Y-149.86
X154.94Y-149.86
X157.48Y-149.86
X160.02Y-149.86
X162.56Y-149.86
X165.1Y-149.86
X120.396Y-101.6
X122.936Y-101.6
X125.476Y-101.6
X128.016Y-101.6
X130.556Y-101.6
X133.096Y-101.6
X135.636Y-101.6
X138.176Y-101.6
X140.716Y-101.6
X143.256Y-101.6
T4
X122.81Y-122.071
X122.81Y-138.271
T5
X119.38Y-123.821
X119.38Y-136.521
T0
M30
