%TF.GenerationSoftware,KiCad,Pcbnew,(5.1.6-0-10_14)*%
%TF.CreationDate,2022-12-23T17:52:02+09:00*%
%TF.ProjectId,MuxReadoutBoard,4d757852-6561-4646-9f75-74426f617264,rev?*%
%TF.SameCoordinates,Original*%
%TF.FileFunction,Copper,L2,Bot*%
%TF.FilePolarity,Positive*%
%FSLAX46Y46*%
G04 Gerber Fmt 4.6, Leading zero omitted, Abs format (unit mm)*
G04 Created by KiCad (PCBNEW (5.1.6-0-10_14)) date 2022-12-23 17:52:02*
%MOMM*%
%LPD*%
G01*
G04 APERTURE LIST*
%TA.AperFunction,SMDPad,CuDef*%
%ADD10R,1.000000X0.800000*%
%TD*%
%TA.AperFunction,SMDPad,CuDef*%
%ADD11R,1.200000X0.750000*%
%TD*%
%TA.AperFunction,ComponentPad*%
%ADD12C,2.475000*%
%TD*%
%TA.AperFunction,ComponentPad*%
%ADD13C,1.650000*%
%TD*%
%TA.AperFunction,ComponentPad*%
%ADD14C,1.509000*%
%TD*%
%TA.AperFunction,ComponentPad*%
%ADD15O,1.700000X1.700000*%
%TD*%
%TA.AperFunction,ComponentPad*%
%ADD16R,1.700000X1.700000*%
%TD*%
%TA.AperFunction,SMDPad,CuDef*%
%ADD17R,1.500000X0.600000*%
%TD*%
%TA.AperFunction,SMDPad,CuDef*%
%ADD18R,0.750000X1.200000*%
%TD*%
%TA.AperFunction,ViaPad*%
%ADD19C,0.800000*%
%TD*%
%TA.AperFunction,Conductor*%
%ADD20C,0.700000*%
%TD*%
%TA.AperFunction,Conductor*%
%ADD21C,0.939800*%
%TD*%
%TA.AperFunction,Conductor*%
%ADD22C,0.200000*%
%TD*%
%TA.AperFunction,Conductor*%
%ADD23C,0.254000*%
%TD*%
G04 APERTURE END LIST*
D10*
%TO.P,U2,3*%
%TO.N,GND*%
X157464000Y-142494000D03*
%TO.P,U2,2*%
%TO.N,+2V5*%
X155464000Y-141544000D03*
%TO.P,U2,1*%
%TO.N,+5V*%
X155464000Y-143444000D03*
%TD*%
D11*
%TO.P,C1,2*%
%TO.N,+5V*%
X162494000Y-123698000D03*
%TO.P,C1,1*%
%TO.N,GND*%
X160594000Y-123698000D03*
%TD*%
D12*
%TO.P,J1,MH4*%
%TO.N,GND*%
X122810000Y-122071000D03*
%TO.P,J1,MH3*%
X122810000Y-138271000D03*
D13*
%TO.P,J1,MH2*%
%TO.N,N/C*%
X119380000Y-123821000D03*
%TO.P,J1,MH1*%
X119380000Y-136521000D03*
D14*
%TO.P,J1,8*%
%TO.N,Net-(J1-Pad8)*%
X123700000Y-126591000D03*
%TO.P,J1,7*%
%TO.N,Net-(J1-Pad7)*%
X121920000Y-127611000D03*
%TO.P,J1,6*%
%TO.N,Net-(J1-Pad6)*%
X123700000Y-128631000D03*
%TO.P,J1,5*%
%TO.N,Net-(J1-Pad5)*%
X121920000Y-129651000D03*
%TO.P,J1,4*%
%TO.N,Net-(J1-Pad4)*%
X123700000Y-130671000D03*
%TO.P,J1,3*%
%TO.N,Net-(J1-Pad3)*%
X121920000Y-131691000D03*
%TO.P,J1,2*%
%TO.N,Net-(J1-Pad2)*%
X123700000Y-132711000D03*
%TO.P,J1,1*%
%TO.N,Net-(J1-Pad1)*%
X121920000Y-133731000D03*
%TD*%
D15*
%TO.P,J5,8*%
%TO.N,Net-(J5-Pad8)*%
X147320000Y-149860000D03*
%TO.P,J5,7*%
%TO.N,GND*%
X144780000Y-149860000D03*
%TO.P,J5,6*%
X142240000Y-149860000D03*
%TO.P,J5,5*%
%TO.N,+5V*%
X139700000Y-149860000D03*
%TO.P,J5,4*%
%TO.N,+3V3*%
X137160000Y-149860000D03*
%TO.P,J5,3*%
%TO.N,Net-(J5-Pad3)*%
X134620000Y-149860000D03*
%TO.P,J5,2*%
%TO.N,Net-(J5-Pad2)*%
X132080000Y-149860000D03*
D16*
%TO.P,J5,1*%
%TO.N,Net-(J5-Pad1)*%
X129540000Y-149860000D03*
%TD*%
D17*
%TO.P,U1,16*%
%TO.N,+5V*%
X160180000Y-121285000D03*
%TO.P,U1,15*%
%TO.N,Net-(C2-Pad1)*%
X160180000Y-120015000D03*
%TO.P,U1,14*%
%TO.N,GND*%
X160180000Y-118745000D03*
%TO.P,U1,13*%
%TO.N,Net-(J3-Pad5)*%
X160180000Y-117475000D03*
%TO.P,U1,12*%
%TO.N,Net-(J3-Pad6)*%
X160180000Y-116205000D03*
%TO.P,U1,11*%
%TO.N,Net-(J3-Pad7)*%
X160180000Y-114935000D03*
%TO.P,U1,10*%
%TO.N,Net-(J3-Pad8)*%
X160180000Y-113665000D03*
%TO.P,U1,9*%
%TO.N,GND*%
X160180000Y-112395000D03*
%TO.P,U1,8*%
%TO.N,Net-(J1-Pad8)*%
X154780000Y-112395000D03*
%TO.P,U1,7*%
%TO.N,Net-(J1-Pad7)*%
X154780000Y-113665000D03*
%TO.P,U1,6*%
%TO.N,Net-(J1-Pad6)*%
X154780000Y-114935000D03*
%TO.P,U1,5*%
%TO.N,Net-(J1-Pad5)*%
X154780000Y-116205000D03*
%TO.P,U1,4*%
%TO.N,Net-(J1-Pad4)*%
X154780000Y-117475000D03*
%TO.P,U1,3*%
%TO.N,Net-(J1-Pad3)*%
X154780000Y-118745000D03*
%TO.P,U1,2*%
%TO.N,Net-(J1-Pad2)*%
X154780000Y-120015000D03*
%TO.P,U1,1*%
%TO.N,Net-(J1-Pad1)*%
X154780000Y-121285000D03*
%TD*%
D15*
%TO.P,J3,10*%
%TO.N,Net-(J3-Pad10)*%
X143256000Y-101600000D03*
%TO.P,J3,9*%
%TO.N,Net-(J3-Pad9)*%
X140716000Y-101600000D03*
%TO.P,J3,8*%
%TO.N,Net-(J3-Pad8)*%
X138176000Y-101600000D03*
%TO.P,J3,7*%
%TO.N,Net-(J3-Pad7)*%
X135636000Y-101600000D03*
%TO.P,J3,6*%
%TO.N,Net-(J3-Pad6)*%
X133096000Y-101600000D03*
%TO.P,J3,5*%
%TO.N,Net-(J3-Pad5)*%
X130556000Y-101600000D03*
%TO.P,J3,4*%
%TO.N,GND*%
X128016000Y-101600000D03*
%TO.P,J3,3*%
%TO.N,Net-(J3-Pad3)*%
X125476000Y-101600000D03*
%TO.P,J3,2*%
%TO.N,Net-(J3-Pad2)*%
X122936000Y-101600000D03*
D16*
%TO.P,J3,1*%
%TO.N,Net-(J3-Pad1)*%
X120396000Y-101600000D03*
%TD*%
D15*
%TO.P,J4,8*%
%TO.N,Net-(J4-Pad8)*%
X165100000Y-101600000D03*
%TO.P,J4,7*%
%TO.N,Net-(J4-Pad7)*%
X162560000Y-101600000D03*
%TO.P,J4,6*%
%TO.N,Net-(J4-Pad6)*%
X160020000Y-101600000D03*
%TO.P,J4,5*%
%TO.N,Net-(J4-Pad5)*%
X157480000Y-101600000D03*
%TO.P,J4,4*%
%TO.N,Net-(J4-Pad4)*%
X154940000Y-101600000D03*
%TO.P,J4,3*%
%TO.N,Net-(J4-Pad3)*%
X152400000Y-101600000D03*
%TO.P,J4,2*%
%TO.N,Net-(J4-Pad2)*%
X149860000Y-101600000D03*
D16*
%TO.P,J4,1*%
%TO.N,Net-(J4-Pad1)*%
X147320000Y-101600000D03*
%TD*%
D15*
%TO.P,J6,6*%
%TO.N,Net-(J6-Pad6)*%
X165100000Y-149860000D03*
%TO.P,J6,5*%
%TO.N,Net-(J6-Pad5)*%
X162560000Y-149860000D03*
%TO.P,J6,4*%
%TO.N,Net-(J6-Pad4)*%
X160020000Y-149860000D03*
%TO.P,J6,3*%
%TO.N,Net-(J6-Pad3)*%
X157480000Y-149860000D03*
%TO.P,J6,2*%
%TO.N,Net-(J6-Pad2)*%
X154940000Y-149860000D03*
D16*
%TO.P,J6,1*%
%TO.N,Net-(J6-Pad1)*%
X152400000Y-149860000D03*
%TD*%
D15*
%TO.P,J2,8*%
%TO.N,Net-(J1-Pad8)*%
X137668000Y-119634000D03*
%TO.P,J2,7*%
%TO.N,Net-(J1-Pad7)*%
X140208000Y-119634000D03*
%TO.P,J2,6*%
%TO.N,Net-(J1-Pad6)*%
X137668000Y-122174000D03*
%TO.P,J2,5*%
%TO.N,Net-(J1-Pad5)*%
X140208000Y-122174000D03*
%TO.P,J2,4*%
%TO.N,Net-(J1-Pad4)*%
X137668000Y-124714000D03*
%TO.P,J2,3*%
%TO.N,Net-(J1-Pad3)*%
X140208000Y-124714000D03*
%TO.P,J2,2*%
%TO.N,Net-(J1-Pad2)*%
X137668000Y-127254000D03*
D16*
%TO.P,J2,1*%
%TO.N,Net-(J1-Pad1)*%
X140208000Y-127254000D03*
%TD*%
D11*
%TO.P,C2,1*%
%TO.N,Net-(C2-Pad1)*%
X157160000Y-123698000D03*
%TO.P,C2,2*%
%TO.N,GND*%
X155260000Y-123698000D03*
%TD*%
D18*
%TO.P,C3,2*%
%TO.N,GND*%
X139700000Y-144338000D03*
%TO.P,C3,1*%
%TO.N,+5V*%
X139700000Y-146238000D03*
%TD*%
D11*
%TO.P,C4,2*%
%TO.N,GND*%
X155382000Y-145796000D03*
%TO.P,C4,1*%
%TO.N,+5V*%
X153482000Y-145796000D03*
%TD*%
D15*
%TO.P,J7,3*%
%TO.N,+2V5*%
X152146000Y-141478000D03*
%TO.P,J7,2*%
%TO.N,Net-(C2-Pad1)*%
X149606000Y-141478000D03*
D16*
%TO.P,J7,1*%
%TO.N,+3V3*%
X147066000Y-141478000D03*
%TD*%
D19*
%TO.N,GND*%
X161290000Y-132588000D03*
X159258000Y-140970000D03*
X152400000Y-137414000D03*
X156972000Y-132588000D03*
X152654000Y-143510000D03*
X141732000Y-144526000D03*
X167640000Y-140716000D03*
X167640000Y-130302000D03*
X167640000Y-120904000D03*
X165354000Y-112522000D03*
X165100000Y-104902000D03*
X145288000Y-103378000D03*
X140716000Y-103378000D03*
X116840000Y-105664000D03*
X117094000Y-120396000D03*
X117094000Y-130302000D03*
X117094000Y-139954000D03*
X120396000Y-149860000D03*
X126492000Y-149860000D03*
X130048000Y-142748000D03*
X126492000Y-112522000D03*
X154940000Y-110998000D03*
X144018000Y-110998000D03*
X153416000Y-123698000D03*
X156718000Y-116840000D03*
X159004000Y-122682000D03*
X157988000Y-146050000D03*
X138430000Y-148336000D03*
X167132000Y-148082000D03*
X134620000Y-118364000D03*
X140462000Y-130048000D03*
%TD*%
D20*
%TO.N,+5V*%
X139700000Y-149860000D02*
X139700000Y-146238000D01*
X161671000Y-121285000D02*
X160180000Y-121285000D01*
X162814000Y-122428000D02*
X161671000Y-121285000D01*
X162814000Y-140208000D02*
X162814000Y-122428000D01*
X158750000Y-144272000D02*
X162814000Y-140208000D01*
X152466000Y-146238000D02*
X154432000Y-144272000D01*
X139700000Y-146238000D02*
X152466000Y-146238000D01*
X152908000Y-145796000D02*
X152466000Y-146238000D01*
X153482000Y-145796000D02*
X152908000Y-145796000D01*
X155702000Y-144272000D02*
X158750000Y-144272000D01*
D21*
X155448000Y-143510000D02*
X155448000Y-144100000D01*
D20*
X154432000Y-144272000D02*
X155702000Y-144272000D01*
%TO.N,GND*%
X160180000Y-112395000D02*
X161798000Y-112395000D01*
X160180000Y-118745000D02*
X161798000Y-118745000D01*
D22*
%TO.N,Net-(J1-Pad8)*%
X137668000Y-119634000D02*
X138176000Y-119634000D01*
X138176000Y-119634000D02*
X139446000Y-118364000D01*
X139446000Y-118364000D02*
X140716000Y-118364000D01*
X146685000Y-112395000D02*
X154780000Y-112395000D01*
X140716000Y-118364000D02*
X146685000Y-112395000D01*
X131191000Y-119634000D02*
X137668000Y-119634000D01*
X124234000Y-126591000D02*
X131191000Y-119634000D01*
X123700000Y-126591000D02*
X124234000Y-126591000D01*
%TO.N,Net-(J1-Pad7)*%
X140208000Y-119634000D02*
X141224000Y-119634000D01*
X147193000Y-113665000D02*
X154780000Y-113665000D01*
X141224000Y-119634000D02*
X147193000Y-113665000D01*
X138430000Y-120904000D02*
X139700000Y-119634000D01*
X132080000Y-120904000D02*
X138430000Y-120904000D01*
X139700000Y-119634000D02*
X140208000Y-119634000D01*
X125373000Y-127611000D02*
X132080000Y-120904000D01*
X121920000Y-127611000D02*
X125373000Y-127611000D01*
%TO.N,Net-(J1-Pad6)*%
X123700000Y-128631000D02*
X126639000Y-128631000D01*
X133096000Y-122174000D02*
X137668000Y-122174000D01*
X126639000Y-128631000D02*
X133096000Y-122174000D01*
X147955000Y-114935000D02*
X154780000Y-114935000D01*
X141986000Y-120904000D02*
X147955000Y-114935000D01*
X139446000Y-120904000D02*
X141986000Y-120904000D01*
X138176000Y-122174000D02*
X139446000Y-120904000D01*
X137668000Y-122174000D02*
X138176000Y-122174000D01*
%TO.N,Net-(J1-Pad5)*%
X121920000Y-129651000D02*
X127905000Y-129651000D01*
X127905000Y-129651000D02*
X134112000Y-123444000D01*
X134112000Y-123444000D02*
X138430000Y-123444000D01*
X139700000Y-122174000D02*
X140208000Y-122174000D01*
X138430000Y-123444000D02*
X139700000Y-122174000D01*
X140208000Y-122174000D02*
X142494000Y-122174000D01*
X148463000Y-116205000D02*
X154780000Y-116205000D01*
X142494000Y-122174000D02*
X148463000Y-116205000D01*
%TO.N,Net-(J1-Pad4)*%
X123700000Y-130671000D02*
X129171000Y-130671000D01*
X135128000Y-124714000D02*
X137668000Y-124714000D01*
X129171000Y-130671000D02*
X135128000Y-124714000D01*
X148971000Y-117475000D02*
X154780000Y-117475000D01*
X143002000Y-123444000D02*
X148971000Y-117475000D01*
X139446000Y-123444000D02*
X143002000Y-123444000D01*
X138176000Y-124714000D02*
X139446000Y-123444000D01*
X137668000Y-124714000D02*
X138176000Y-124714000D01*
%TO.N,Net-(J1-Pad3)*%
X140208000Y-124714000D02*
X143510000Y-124714000D01*
X149479000Y-118745000D02*
X154780000Y-118745000D01*
X143510000Y-124714000D02*
X149479000Y-118745000D01*
X139700000Y-124714000D02*
X140208000Y-124714000D01*
X138430000Y-125984000D02*
X139700000Y-124714000D01*
X136398000Y-125984000D02*
X138430000Y-125984000D01*
X130691000Y-131691000D02*
X136398000Y-125984000D01*
X121920000Y-131691000D02*
X130691000Y-131691000D01*
%TO.N,Net-(J1-Pad2)*%
X132211000Y-132711000D02*
X137668000Y-127254000D01*
X123700000Y-132711000D02*
X132211000Y-132711000D01*
X149987000Y-120015000D02*
X154780000Y-120015000D01*
X144018000Y-125984000D02*
X149987000Y-120015000D01*
X139192000Y-125984000D02*
X144018000Y-125984000D01*
X137922000Y-127254000D02*
X139192000Y-125984000D01*
X137668000Y-127254000D02*
X137922000Y-127254000D01*
%TO.N,Net-(J1-Pad1)*%
X133731000Y-133731000D02*
X140208000Y-127254000D01*
X121920000Y-133731000D02*
X133731000Y-133731000D01*
X140208000Y-127254000D02*
X144272000Y-127254000D01*
X150241000Y-121285000D02*
X154780000Y-121285000D01*
X144272000Y-127254000D02*
X150241000Y-121285000D01*
%TO.N,Net-(J3-Pad8)*%
X159385000Y-113665000D02*
X160180000Y-113665000D01*
X158496000Y-112776000D02*
X159385000Y-113665000D01*
X156464000Y-104648000D02*
X158496000Y-106680000D01*
X158496000Y-106680000D02*
X158496000Y-112776000D01*
X139700000Y-104648000D02*
X156464000Y-104648000D01*
X138176000Y-103124000D02*
X139700000Y-104648000D01*
X138176000Y-101600000D02*
X138176000Y-103124000D01*
D20*
%TO.N,+3V3*%
X139192000Y-141478000D02*
X147066000Y-141478000D01*
X137160000Y-143510000D02*
X139192000Y-141478000D01*
X137160000Y-149860000D02*
X137160000Y-143510000D01*
D22*
%TO.N,Net-(J3-Pad7)*%
X155956000Y-106172000D02*
X157734000Y-107950000D01*
X157734000Y-107950000D02*
X157734000Y-113284000D01*
X159385000Y-114935000D02*
X160180000Y-114935000D01*
X157734000Y-113284000D02*
X159385000Y-114935000D01*
X155956000Y-106172000D02*
X138684000Y-106172000D01*
X138684000Y-106172000D02*
X135636000Y-103124000D01*
X135636000Y-103124000D02*
X135636000Y-101600000D01*
%TO.N,Net-(J3-Pad6)*%
X133096000Y-103124000D02*
X133096000Y-101600000D01*
X138176000Y-108204000D02*
X133096000Y-103124000D01*
X155956000Y-108204000D02*
X138176000Y-108204000D01*
X156972000Y-109220000D02*
X155956000Y-108204000D01*
X159385000Y-116205000D02*
X156972000Y-113792000D01*
X156972000Y-113792000D02*
X156972000Y-109220000D01*
X160180000Y-116205000D02*
X159385000Y-116205000D01*
%TO.N,Net-(J3-Pad5)*%
X130556000Y-102870000D02*
X130556000Y-102616000D01*
X130556000Y-101600000D02*
X130556000Y-102870000D01*
X155702000Y-109982000D02*
X137160000Y-109982000D01*
X137160000Y-109982000D02*
X130556000Y-103378000D01*
X156210000Y-114554000D02*
X156210000Y-110490000D01*
X159131000Y-117475000D02*
X156210000Y-114554000D01*
X156210000Y-110490000D02*
X155702000Y-109982000D01*
X130556000Y-103378000D02*
X130556000Y-102870000D01*
X160180000Y-117475000D02*
X159131000Y-117475000D01*
D20*
%TO.N,Net-(C2-Pad1)*%
X149606000Y-139700000D02*
X149606000Y-141478000D01*
X157546000Y-129220000D02*
X149606000Y-137160000D01*
X149606000Y-137160000D02*
X149606000Y-139700000D01*
X157480000Y-123698000D02*
X157546000Y-123764000D01*
X157160000Y-123698000D02*
X157480000Y-123698000D01*
X157546000Y-123764000D02*
X157546000Y-129220000D01*
X158623000Y-120015000D02*
X160180000Y-120015000D01*
X157546000Y-121092000D02*
X158623000Y-120015000D01*
X157546000Y-123764000D02*
X157546000Y-121092000D01*
%TO.N,+2V5*%
X152212000Y-141544000D02*
X152146000Y-141478000D01*
X155464000Y-141544000D02*
X152212000Y-141544000D01*
%TD*%
D23*
%TO.N,GND*%
G36*
X115401513Y-99847199D02*
G01*
X115087199Y-100161513D01*
X114840244Y-100531108D01*
X114670138Y-100941779D01*
X114583419Y-101377746D01*
X114583419Y-101822254D01*
X114670138Y-102258221D01*
X114840244Y-102668892D01*
X115087199Y-103038487D01*
X115401513Y-103352801D01*
X115771108Y-103599756D01*
X116181779Y-103769862D01*
X116617746Y-103856581D01*
X117062254Y-103856581D01*
X117498221Y-103769862D01*
X117908892Y-103599756D01*
X118278487Y-103352801D01*
X118592801Y-103038487D01*
X118839756Y-102668892D01*
X118912249Y-102493878D01*
X118920188Y-102574482D01*
X118956498Y-102694180D01*
X119015463Y-102804494D01*
X119094815Y-102901185D01*
X119191506Y-102980537D01*
X119301820Y-103039502D01*
X119421518Y-103075812D01*
X119546000Y-103088072D01*
X121246000Y-103088072D01*
X121370482Y-103075812D01*
X121490180Y-103039502D01*
X121600494Y-102980537D01*
X121697185Y-102901185D01*
X121776537Y-102804494D01*
X121835502Y-102694180D01*
X121857513Y-102621620D01*
X121989368Y-102753475D01*
X122232589Y-102915990D01*
X122502842Y-103027932D01*
X122789740Y-103085000D01*
X123082260Y-103085000D01*
X123369158Y-103027932D01*
X123639411Y-102915990D01*
X123882632Y-102753475D01*
X124089475Y-102546632D01*
X124206000Y-102372240D01*
X124322525Y-102546632D01*
X124529368Y-102753475D01*
X124772589Y-102915990D01*
X125042842Y-103027932D01*
X125329740Y-103085000D01*
X125622260Y-103085000D01*
X125909158Y-103027932D01*
X126179411Y-102915990D01*
X126422632Y-102753475D01*
X126629475Y-102546632D01*
X126751195Y-102364466D01*
X126820822Y-102481355D01*
X127015731Y-102697588D01*
X127249080Y-102871641D01*
X127511901Y-102996825D01*
X127659110Y-103041476D01*
X127889000Y-102920155D01*
X127889000Y-101727000D01*
X127869000Y-101727000D01*
X127869000Y-101473000D01*
X127889000Y-101473000D01*
X127889000Y-100279845D01*
X127659110Y-100158524D01*
X127511901Y-100203175D01*
X127249080Y-100328359D01*
X127015731Y-100502412D01*
X126820822Y-100718645D01*
X126751195Y-100835534D01*
X126629475Y-100653368D01*
X126422632Y-100446525D01*
X126179411Y-100284010D01*
X125909158Y-100172068D01*
X125622260Y-100115000D01*
X125329740Y-100115000D01*
X125042842Y-100172068D01*
X124772589Y-100284010D01*
X124529368Y-100446525D01*
X124322525Y-100653368D01*
X124206000Y-100827760D01*
X124089475Y-100653368D01*
X123882632Y-100446525D01*
X123639411Y-100284010D01*
X123369158Y-100172068D01*
X123082260Y-100115000D01*
X122789740Y-100115000D01*
X122502842Y-100172068D01*
X122232589Y-100284010D01*
X121989368Y-100446525D01*
X121857513Y-100578380D01*
X121835502Y-100505820D01*
X121776537Y-100395506D01*
X121697185Y-100298815D01*
X121600494Y-100219463D01*
X121490180Y-100160498D01*
X121370482Y-100124188D01*
X121246000Y-100111928D01*
X119546000Y-100111928D01*
X119421518Y-100124188D01*
X119301820Y-100160498D01*
X119191506Y-100219463D01*
X119094815Y-100298815D01*
X119015463Y-100395506D01*
X118956498Y-100505820D01*
X118920188Y-100625518D01*
X118912249Y-100706122D01*
X118839756Y-100531108D01*
X118592801Y-100161513D01*
X118278487Y-99847199D01*
X118145739Y-99758500D01*
X166751000Y-99758500D01*
X166751000Y-112268000D01*
X166753440Y-112292776D01*
X166760667Y-112316601D01*
X166772403Y-112338557D01*
X166788197Y-112357803D01*
X169291000Y-114860606D01*
X169291000Y-115299712D01*
X169078487Y-115087199D01*
X168708892Y-114840244D01*
X168298221Y-114670138D01*
X167862254Y-114583419D01*
X167417746Y-114583419D01*
X166981779Y-114670138D01*
X166571108Y-114840244D01*
X166201513Y-115087199D01*
X165887199Y-115401513D01*
X165640244Y-115771108D01*
X165470138Y-116181779D01*
X165383419Y-116617746D01*
X165383419Y-117062254D01*
X165470138Y-117498221D01*
X165640244Y-117908892D01*
X165887199Y-118278487D01*
X166201513Y-118592801D01*
X166571108Y-118839756D01*
X166981779Y-119009862D01*
X167417746Y-119096581D01*
X167862254Y-119096581D01*
X168298221Y-119009862D01*
X168708892Y-118839756D01*
X169078487Y-118592801D01*
X169291000Y-118380288D01*
X169291000Y-143239712D01*
X169078487Y-143027199D01*
X168708892Y-142780244D01*
X168298221Y-142610138D01*
X167862254Y-142523419D01*
X167417746Y-142523419D01*
X166981779Y-142610138D01*
X166571108Y-142780244D01*
X166201513Y-143027199D01*
X165887199Y-143341513D01*
X165640244Y-143711108D01*
X165470138Y-144121779D01*
X165383419Y-144557746D01*
X165383419Y-145002254D01*
X165470138Y-145438221D01*
X165640244Y-145848892D01*
X165887199Y-146218487D01*
X166201513Y-146532801D01*
X166571108Y-146779756D01*
X166981779Y-146949862D01*
X167417746Y-147036581D01*
X167862254Y-147036581D01*
X168298221Y-146949862D01*
X168708892Y-146779756D01*
X169078487Y-146532801D01*
X169291000Y-146320288D01*
X169291000Y-147013394D01*
X167042197Y-149262197D01*
X167026403Y-149281443D01*
X167014667Y-149303399D01*
X167007440Y-149327224D01*
X167005000Y-149352000D01*
X167005000Y-149566237D01*
X166991549Y-149591402D01*
X166991549Y-149591403D01*
X166954439Y-149713740D01*
X166951608Y-149723071D01*
X166938122Y-149860000D01*
X166941501Y-149894308D01*
X166941500Y-151701500D01*
X116875739Y-151701500D01*
X117008487Y-151612801D01*
X117322801Y-151298487D01*
X117569756Y-150928892D01*
X117739862Y-150518221D01*
X117826581Y-150082254D01*
X117826581Y-149637746D01*
X117739862Y-149201779D01*
X117660425Y-149010000D01*
X128051928Y-149010000D01*
X128051928Y-150710000D01*
X128064188Y-150834482D01*
X128100498Y-150954180D01*
X128159463Y-151064494D01*
X128238815Y-151161185D01*
X128335506Y-151240537D01*
X128445820Y-151299502D01*
X128565518Y-151335812D01*
X128690000Y-151348072D01*
X130390000Y-151348072D01*
X130514482Y-151335812D01*
X130634180Y-151299502D01*
X130744494Y-151240537D01*
X130841185Y-151161185D01*
X130920537Y-151064494D01*
X130979502Y-150954180D01*
X131001513Y-150881620D01*
X131133368Y-151013475D01*
X131376589Y-151175990D01*
X131646842Y-151287932D01*
X131933740Y-151345000D01*
X132226260Y-151345000D01*
X132513158Y-151287932D01*
X132783411Y-151175990D01*
X133026632Y-151013475D01*
X133233475Y-150806632D01*
X133350000Y-150632240D01*
X133466525Y-150806632D01*
X133673368Y-151013475D01*
X133916589Y-151175990D01*
X134186842Y-151287932D01*
X134473740Y-151345000D01*
X134766260Y-151345000D01*
X135053158Y-151287932D01*
X135323411Y-151175990D01*
X135566632Y-151013475D01*
X135773475Y-150806632D01*
X135890000Y-150632240D01*
X136006525Y-150806632D01*
X136213368Y-151013475D01*
X136456589Y-151175990D01*
X136726842Y-151287932D01*
X137013740Y-151345000D01*
X137306260Y-151345000D01*
X137593158Y-151287932D01*
X137863411Y-151175990D01*
X138106632Y-151013475D01*
X138313475Y-150806632D01*
X138430000Y-150632240D01*
X138546525Y-150806632D01*
X138753368Y-151013475D01*
X138996589Y-151175990D01*
X139266842Y-151287932D01*
X139553740Y-151345000D01*
X139846260Y-151345000D01*
X140133158Y-151287932D01*
X140403411Y-151175990D01*
X140646632Y-151013475D01*
X140853475Y-150806632D01*
X140975195Y-150624466D01*
X141044822Y-150741355D01*
X141239731Y-150957588D01*
X141473080Y-151131641D01*
X141735901Y-151256825D01*
X141883110Y-151301476D01*
X142113000Y-151180155D01*
X142113000Y-149987000D01*
X142367000Y-149987000D01*
X142367000Y-151180155D01*
X142596890Y-151301476D01*
X142744099Y-151256825D01*
X143006920Y-151131641D01*
X143240269Y-150957588D01*
X143435178Y-150741355D01*
X143510000Y-150615745D01*
X143584822Y-150741355D01*
X143779731Y-150957588D01*
X144013080Y-151131641D01*
X144275901Y-151256825D01*
X144423110Y-151301476D01*
X144653000Y-151180155D01*
X144653000Y-149987000D01*
X142367000Y-149987000D01*
X142113000Y-149987000D01*
X142093000Y-149987000D01*
X142093000Y-149733000D01*
X142113000Y-149733000D01*
X142113000Y-148539845D01*
X142367000Y-148539845D01*
X142367000Y-149733000D01*
X144653000Y-149733000D01*
X144653000Y-148539845D01*
X144907000Y-148539845D01*
X144907000Y-149733000D01*
X144927000Y-149733000D01*
X144927000Y-149987000D01*
X144907000Y-149987000D01*
X144907000Y-151180155D01*
X145136890Y-151301476D01*
X145284099Y-151256825D01*
X145546920Y-151131641D01*
X145780269Y-150957588D01*
X145975178Y-150741355D01*
X146044805Y-150624466D01*
X146166525Y-150806632D01*
X146373368Y-151013475D01*
X146616589Y-151175990D01*
X146886842Y-151287932D01*
X147173740Y-151345000D01*
X147466260Y-151345000D01*
X147753158Y-151287932D01*
X148023411Y-151175990D01*
X148266632Y-151013475D01*
X148473475Y-150806632D01*
X148635990Y-150563411D01*
X148747932Y-150293158D01*
X148805000Y-150006260D01*
X148805000Y-149713740D01*
X148747932Y-149426842D01*
X148635990Y-149156589D01*
X148538043Y-149010000D01*
X150911928Y-149010000D01*
X150911928Y-150710000D01*
X150924188Y-150834482D01*
X150960498Y-150954180D01*
X151019463Y-151064494D01*
X151098815Y-151161185D01*
X151195506Y-151240537D01*
X151305820Y-151299502D01*
X151425518Y-151335812D01*
X151550000Y-151348072D01*
X153250000Y-151348072D01*
X153374482Y-151335812D01*
X153494180Y-151299502D01*
X153604494Y-151240537D01*
X153701185Y-151161185D01*
X153780537Y-151064494D01*
X153839502Y-150954180D01*
X153861513Y-150881620D01*
X153993368Y-151013475D01*
X154236589Y-151175990D01*
X154506842Y-151287932D01*
X154793740Y-151345000D01*
X155086260Y-151345000D01*
X155373158Y-151287932D01*
X155643411Y-151175990D01*
X155886632Y-151013475D01*
X156093475Y-150806632D01*
X156210000Y-150632240D01*
X156326525Y-150806632D01*
X156533368Y-151013475D01*
X156776589Y-151175990D01*
X157046842Y-151287932D01*
X157333740Y-151345000D01*
X157626260Y-151345000D01*
X157913158Y-151287932D01*
X158183411Y-151175990D01*
X158426632Y-151013475D01*
X158633475Y-150806632D01*
X158750000Y-150632240D01*
X158866525Y-150806632D01*
X159073368Y-151013475D01*
X159316589Y-151175990D01*
X159586842Y-151287932D01*
X159873740Y-151345000D01*
X160166260Y-151345000D01*
X160453158Y-151287932D01*
X160723411Y-151175990D01*
X160966632Y-151013475D01*
X161173475Y-150806632D01*
X161290000Y-150632240D01*
X161406525Y-150806632D01*
X161613368Y-151013475D01*
X161856589Y-151175990D01*
X162126842Y-151287932D01*
X162413740Y-151345000D01*
X162706260Y-151345000D01*
X162993158Y-151287932D01*
X163263411Y-151175990D01*
X163506632Y-151013475D01*
X163713475Y-150806632D01*
X163830000Y-150632240D01*
X163946525Y-150806632D01*
X164153368Y-151013475D01*
X164396589Y-151175990D01*
X164666842Y-151287932D01*
X164953740Y-151345000D01*
X165246260Y-151345000D01*
X165533158Y-151287932D01*
X165803411Y-151175990D01*
X166046632Y-151013475D01*
X166253475Y-150806632D01*
X166415990Y-150563411D01*
X166527932Y-150293158D01*
X166585000Y-150006260D01*
X166585000Y-149713740D01*
X166527932Y-149426842D01*
X166415990Y-149156589D01*
X166253475Y-148913368D01*
X166046632Y-148706525D01*
X165803411Y-148544010D01*
X165533158Y-148432068D01*
X165246260Y-148375000D01*
X164953740Y-148375000D01*
X164666842Y-148432068D01*
X164396589Y-148544010D01*
X164153368Y-148706525D01*
X163946525Y-148913368D01*
X163830000Y-149087760D01*
X163713475Y-148913368D01*
X163506632Y-148706525D01*
X163263411Y-148544010D01*
X162993158Y-148432068D01*
X162706260Y-148375000D01*
X162413740Y-148375000D01*
X162126842Y-148432068D01*
X161856589Y-148544010D01*
X161613368Y-148706525D01*
X161406525Y-148913368D01*
X161290000Y-149087760D01*
X161173475Y-148913368D01*
X160966632Y-148706525D01*
X160723411Y-148544010D01*
X160453158Y-148432068D01*
X160166260Y-148375000D01*
X159873740Y-148375000D01*
X159586842Y-148432068D01*
X159316589Y-148544010D01*
X159073368Y-148706525D01*
X158866525Y-148913368D01*
X158750000Y-149087760D01*
X158633475Y-148913368D01*
X158426632Y-148706525D01*
X158183411Y-148544010D01*
X157913158Y-148432068D01*
X157626260Y-148375000D01*
X157333740Y-148375000D01*
X157046842Y-148432068D01*
X156776589Y-148544010D01*
X156533368Y-148706525D01*
X156326525Y-148913368D01*
X156210000Y-149087760D01*
X156093475Y-148913368D01*
X155886632Y-148706525D01*
X155643411Y-148544010D01*
X155373158Y-148432068D01*
X155086260Y-148375000D01*
X154793740Y-148375000D01*
X154506842Y-148432068D01*
X154236589Y-148544010D01*
X153993368Y-148706525D01*
X153861513Y-148838380D01*
X153839502Y-148765820D01*
X153780537Y-148655506D01*
X153701185Y-148558815D01*
X153604494Y-148479463D01*
X153494180Y-148420498D01*
X153374482Y-148384188D01*
X153250000Y-148371928D01*
X151550000Y-148371928D01*
X151425518Y-148384188D01*
X151305820Y-148420498D01*
X151195506Y-148479463D01*
X151098815Y-148558815D01*
X151019463Y-148655506D01*
X150960498Y-148765820D01*
X150924188Y-148885518D01*
X150911928Y-149010000D01*
X148538043Y-149010000D01*
X148473475Y-148913368D01*
X148266632Y-148706525D01*
X148023411Y-148544010D01*
X147753158Y-148432068D01*
X147466260Y-148375000D01*
X147173740Y-148375000D01*
X146886842Y-148432068D01*
X146616589Y-148544010D01*
X146373368Y-148706525D01*
X146166525Y-148913368D01*
X146044805Y-149095534D01*
X145975178Y-148978645D01*
X145780269Y-148762412D01*
X145546920Y-148588359D01*
X145284099Y-148463175D01*
X145136890Y-148418524D01*
X144907000Y-148539845D01*
X144653000Y-148539845D01*
X144423110Y-148418524D01*
X144275901Y-148463175D01*
X144013080Y-148588359D01*
X143779731Y-148762412D01*
X143584822Y-148978645D01*
X143510000Y-149104255D01*
X143435178Y-148978645D01*
X143240269Y-148762412D01*
X143006920Y-148588359D01*
X142744099Y-148463175D01*
X142596890Y-148418524D01*
X142367000Y-148539845D01*
X142113000Y-148539845D01*
X141883110Y-148418524D01*
X141735901Y-148463175D01*
X141473080Y-148588359D01*
X141239731Y-148762412D01*
X141044822Y-148978645D01*
X140975195Y-149095534D01*
X140853475Y-148913368D01*
X140685000Y-148744893D01*
X140685000Y-147223000D01*
X152417620Y-147223000D01*
X152466000Y-147227765D01*
X152514380Y-147223000D01*
X152659094Y-147208747D01*
X152844767Y-147152424D01*
X153015884Y-147060960D01*
X153165870Y-146937870D01*
X153196716Y-146900284D01*
X153287928Y-146809072D01*
X154082000Y-146809072D01*
X154206482Y-146796812D01*
X154326180Y-146760502D01*
X154432000Y-146703939D01*
X154537820Y-146760502D01*
X154657518Y-146796812D01*
X154782000Y-146809072D01*
X155096250Y-146806000D01*
X155255000Y-146647250D01*
X155255000Y-145923000D01*
X155509000Y-145923000D01*
X155509000Y-146647250D01*
X155667750Y-146806000D01*
X155982000Y-146809072D01*
X156106482Y-146796812D01*
X156226180Y-146760502D01*
X156336494Y-146701537D01*
X156433185Y-146622185D01*
X156512537Y-146525494D01*
X156571502Y-146415180D01*
X156607812Y-146295482D01*
X156620072Y-146171000D01*
X156617000Y-146081750D01*
X156458250Y-145923000D01*
X155509000Y-145923000D01*
X155255000Y-145923000D01*
X155235000Y-145923000D01*
X155235000Y-145669000D01*
X155255000Y-145669000D01*
X155255000Y-145649000D01*
X155509000Y-145649000D01*
X155509000Y-145669000D01*
X156458250Y-145669000D01*
X156617000Y-145510250D01*
X156620072Y-145421000D01*
X156607812Y-145296518D01*
X156595824Y-145257000D01*
X158701620Y-145257000D01*
X158750000Y-145261765D01*
X158798380Y-145257000D01*
X158943094Y-145242747D01*
X159128767Y-145186424D01*
X159299884Y-145094960D01*
X159449870Y-144971870D01*
X159480716Y-144934284D01*
X163476290Y-140938711D01*
X163513870Y-140907870D01*
X163636960Y-140757884D01*
X163728424Y-140586767D01*
X163784747Y-140401094D01*
X163799000Y-140256380D01*
X163799000Y-140256379D01*
X163803765Y-140208000D01*
X163799000Y-140159620D01*
X163799000Y-122476379D01*
X163803765Y-122427999D01*
X163784747Y-122234906D01*
X163728424Y-122049233D01*
X163716936Y-122027740D01*
X163636960Y-121878116D01*
X163513870Y-121728130D01*
X163476284Y-121697284D01*
X162401716Y-120622716D01*
X162370870Y-120585130D01*
X162220884Y-120462040D01*
X162049767Y-120370576D01*
X161864094Y-120314253D01*
X161719380Y-120300000D01*
X161671000Y-120295235D01*
X161622620Y-120300000D01*
X161568072Y-120300000D01*
X161568072Y-119715000D01*
X161555812Y-119590518D01*
X161519502Y-119470820D01*
X161470957Y-119380000D01*
X161519502Y-119289180D01*
X161555812Y-119169482D01*
X161568072Y-119045000D01*
X161565000Y-119030750D01*
X161406250Y-118872000D01*
X160307000Y-118872000D01*
X160307000Y-118892000D01*
X160053000Y-118892000D01*
X160053000Y-118872000D01*
X158953750Y-118872000D01*
X158795750Y-119030000D01*
X158671379Y-119030000D01*
X158622999Y-119025235D01*
X158429906Y-119044253D01*
X158244233Y-119100576D01*
X158073116Y-119192040D01*
X157923130Y-119315130D01*
X157892289Y-119352710D01*
X156883711Y-120361289D01*
X156846131Y-120392130D01*
X156723041Y-120542116D01*
X156676554Y-120629087D01*
X156631576Y-120713234D01*
X156575253Y-120898907D01*
X156556235Y-121092000D01*
X156561001Y-121140390D01*
X156561000Y-122684928D01*
X156560000Y-122684928D01*
X156435518Y-122697188D01*
X156315820Y-122733498D01*
X156210000Y-122790061D01*
X156104180Y-122733498D01*
X155984482Y-122697188D01*
X155860000Y-122684928D01*
X155545750Y-122688000D01*
X155387000Y-122846750D01*
X155387000Y-123571000D01*
X155407000Y-123571000D01*
X155407000Y-123825000D01*
X155387000Y-123825000D01*
X155387000Y-124549250D01*
X155545750Y-124708000D01*
X155860000Y-124711072D01*
X155984482Y-124698812D01*
X156104180Y-124662502D01*
X156210000Y-124605939D01*
X156315820Y-124662502D01*
X156435518Y-124698812D01*
X156560000Y-124711072D01*
X156561000Y-124711072D01*
X156561001Y-128811998D01*
X148943716Y-136429284D01*
X148906130Y-136460130D01*
X148783040Y-136610116D01*
X148691577Y-136781233D01*
X148691576Y-136781234D01*
X148635253Y-136966907D01*
X148616235Y-137160000D01*
X148621000Y-137208380D01*
X148621001Y-139651611D01*
X148621000Y-139651621D01*
X148621000Y-140362893D01*
X148527513Y-140456380D01*
X148505502Y-140383820D01*
X148446537Y-140273506D01*
X148367185Y-140176815D01*
X148270494Y-140097463D01*
X148160180Y-140038498D01*
X148040482Y-140002188D01*
X147916000Y-139989928D01*
X146216000Y-139989928D01*
X146091518Y-140002188D01*
X145971820Y-140038498D01*
X145861506Y-140097463D01*
X145764815Y-140176815D01*
X145685463Y-140273506D01*
X145626498Y-140383820D01*
X145593379Y-140493000D01*
X139240380Y-140493000D01*
X139192000Y-140488235D01*
X139143620Y-140493000D01*
X138998906Y-140507253D01*
X138813233Y-140563576D01*
X138642116Y-140655040D01*
X138492130Y-140778130D01*
X138461289Y-140815710D01*
X136497711Y-142779289D01*
X136460131Y-142810130D01*
X136337041Y-142960116D01*
X136292204Y-143044000D01*
X136245576Y-143131234D01*
X136189253Y-143316907D01*
X136170235Y-143510000D01*
X136175001Y-143558390D01*
X136175000Y-148744893D01*
X136006525Y-148913368D01*
X135890000Y-149087760D01*
X135773475Y-148913368D01*
X135566632Y-148706525D01*
X135323411Y-148544010D01*
X135053158Y-148432068D01*
X134766260Y-148375000D01*
X134473740Y-148375000D01*
X134186842Y-148432068D01*
X133916589Y-148544010D01*
X133673368Y-148706525D01*
X133466525Y-148913368D01*
X133350000Y-149087760D01*
X133233475Y-148913368D01*
X133026632Y-148706525D01*
X132783411Y-148544010D01*
X132513158Y-148432068D01*
X132226260Y-148375000D01*
X131933740Y-148375000D01*
X131646842Y-148432068D01*
X131376589Y-148544010D01*
X131133368Y-148706525D01*
X131001513Y-148838380D01*
X130979502Y-148765820D01*
X130920537Y-148655506D01*
X130841185Y-148558815D01*
X130744494Y-148479463D01*
X130634180Y-148420498D01*
X130514482Y-148384188D01*
X130390000Y-148371928D01*
X128690000Y-148371928D01*
X128565518Y-148384188D01*
X128445820Y-148420498D01*
X128335506Y-148479463D01*
X128238815Y-148558815D01*
X128159463Y-148655506D01*
X128100498Y-148765820D01*
X128064188Y-148885518D01*
X128051928Y-149010000D01*
X117660425Y-149010000D01*
X117569756Y-148791108D01*
X117322801Y-148421513D01*
X117008487Y-148107199D01*
X116638892Y-147860244D01*
X116228221Y-147690138D01*
X115792254Y-147603419D01*
X115347746Y-147603419D01*
X114911779Y-147690138D01*
X114501108Y-147860244D01*
X114131513Y-148107199D01*
X113982500Y-148256212D01*
X113982500Y-139575699D01*
X121684906Y-139575699D01*
X121809314Y-139864392D01*
X122139397Y-140028999D01*
X122495251Y-140126048D01*
X122863201Y-140151808D01*
X123229106Y-140105290D01*
X123578906Y-139988282D01*
X123810686Y-139864392D01*
X123935094Y-139575699D01*
X122810000Y-138450605D01*
X121684906Y-139575699D01*
X113982500Y-139575699D01*
X113982500Y-138324201D01*
X120929192Y-138324201D01*
X120975710Y-138690106D01*
X121092718Y-139039906D01*
X121216608Y-139271686D01*
X121505301Y-139396094D01*
X122630395Y-138271000D01*
X122989605Y-138271000D01*
X124114699Y-139396094D01*
X124403392Y-139271686D01*
X124567999Y-138941603D01*
X124665048Y-138585749D01*
X124690808Y-138217799D01*
X124644290Y-137851894D01*
X124527282Y-137502094D01*
X124403392Y-137270314D01*
X124114699Y-137145906D01*
X122989605Y-138271000D01*
X122630395Y-138271000D01*
X121505301Y-137145906D01*
X121216608Y-137270314D01*
X121052001Y-137600397D01*
X120954952Y-137956251D01*
X120929192Y-138324201D01*
X113982500Y-138324201D01*
X113982500Y-136377203D01*
X117920000Y-136377203D01*
X117920000Y-136664797D01*
X117976107Y-136946866D01*
X118086165Y-137212569D01*
X118245944Y-137451696D01*
X118449304Y-137655056D01*
X118688431Y-137814835D01*
X118954134Y-137924893D01*
X119236203Y-137981000D01*
X119523797Y-137981000D01*
X119805866Y-137924893D01*
X120071569Y-137814835D01*
X120310696Y-137655056D01*
X120514056Y-137451696D01*
X120673835Y-137212569D01*
X120775842Y-136966301D01*
X121684906Y-136966301D01*
X122810000Y-138091395D01*
X123935094Y-136966301D01*
X123810686Y-136677608D01*
X123480603Y-136513001D01*
X123124749Y-136415952D01*
X122756799Y-136390192D01*
X122390894Y-136436710D01*
X122041094Y-136553718D01*
X121809314Y-136677608D01*
X121684906Y-136966301D01*
X120775842Y-136966301D01*
X120783893Y-136946866D01*
X120840000Y-136664797D01*
X120840000Y-136377203D01*
X120783893Y-136095134D01*
X120673835Y-135829431D01*
X120514056Y-135590304D01*
X120310696Y-135386944D01*
X120071569Y-135227165D01*
X119805866Y-135117107D01*
X119523797Y-135061000D01*
X119236203Y-135061000D01*
X118954134Y-135117107D01*
X118688431Y-135227165D01*
X118449304Y-135386944D01*
X118245944Y-135590304D01*
X118086165Y-135829431D01*
X117976107Y-136095134D01*
X117920000Y-136377203D01*
X113982500Y-136377203D01*
X113982500Y-127474146D01*
X120530500Y-127474146D01*
X120530500Y-127747854D01*
X120583898Y-128016302D01*
X120688641Y-128269175D01*
X120840705Y-128496754D01*
X120974951Y-128631000D01*
X120840705Y-128765246D01*
X120688641Y-128992825D01*
X120583898Y-129245698D01*
X120530500Y-129514146D01*
X120530500Y-129787854D01*
X120583898Y-130056302D01*
X120688641Y-130309175D01*
X120840705Y-130536754D01*
X120974951Y-130671000D01*
X120840705Y-130805246D01*
X120688641Y-131032825D01*
X120583898Y-131285698D01*
X120530500Y-131554146D01*
X120530500Y-131827854D01*
X120583898Y-132096302D01*
X120688641Y-132349175D01*
X120840705Y-132576754D01*
X120974951Y-132711000D01*
X120840705Y-132845246D01*
X120688641Y-133072825D01*
X120583898Y-133325698D01*
X120530500Y-133594146D01*
X120530500Y-133867854D01*
X120583898Y-134136302D01*
X120688641Y-134389175D01*
X120840705Y-134616754D01*
X121034246Y-134810295D01*
X121261825Y-134962359D01*
X121514698Y-135067102D01*
X121783146Y-135120500D01*
X122056854Y-135120500D01*
X122325302Y-135067102D01*
X122578175Y-134962359D01*
X122805754Y-134810295D01*
X122999295Y-134616754D01*
X123100026Y-134466000D01*
X133694895Y-134466000D01*
X133731000Y-134469556D01*
X133767105Y-134466000D01*
X133875085Y-134455365D01*
X134013633Y-134413337D01*
X134141320Y-134345087D01*
X134253238Y-134253238D01*
X134276259Y-134225187D01*
X139759375Y-128742072D01*
X141058000Y-128742072D01*
X141182482Y-128729812D01*
X141302180Y-128693502D01*
X141412494Y-128634537D01*
X141509185Y-128555185D01*
X141588537Y-128458494D01*
X141647502Y-128348180D01*
X141683812Y-128228482D01*
X141696072Y-128104000D01*
X141696072Y-127989000D01*
X144235895Y-127989000D01*
X144272000Y-127992556D01*
X144308105Y-127989000D01*
X144416085Y-127978365D01*
X144554633Y-127936337D01*
X144682320Y-127868087D01*
X144794238Y-127776238D01*
X144817259Y-127748187D01*
X148492446Y-124073000D01*
X154021928Y-124073000D01*
X154034188Y-124197482D01*
X154070498Y-124317180D01*
X154129463Y-124427494D01*
X154208815Y-124524185D01*
X154305506Y-124603537D01*
X154415820Y-124662502D01*
X154535518Y-124698812D01*
X154660000Y-124711072D01*
X154974250Y-124708000D01*
X155133000Y-124549250D01*
X155133000Y-123825000D01*
X154183750Y-123825000D01*
X154025000Y-123983750D01*
X154021928Y-124073000D01*
X148492446Y-124073000D01*
X149242446Y-123323000D01*
X154021928Y-123323000D01*
X154025000Y-123412250D01*
X154183750Y-123571000D01*
X155133000Y-123571000D01*
X155133000Y-122846750D01*
X154974250Y-122688000D01*
X154660000Y-122684928D01*
X154535518Y-122697188D01*
X154415820Y-122733498D01*
X154305506Y-122792463D01*
X154208815Y-122871815D01*
X154129463Y-122968506D01*
X154070498Y-123078820D01*
X154034188Y-123198518D01*
X154021928Y-123323000D01*
X149242446Y-123323000D01*
X150545447Y-122020000D01*
X153565532Y-122020000D01*
X153578815Y-122036185D01*
X153675506Y-122115537D01*
X153785820Y-122174502D01*
X153905518Y-122210812D01*
X154030000Y-122223072D01*
X155530000Y-122223072D01*
X155654482Y-122210812D01*
X155774180Y-122174502D01*
X155884494Y-122115537D01*
X155981185Y-122036185D01*
X156060537Y-121939494D01*
X156119502Y-121829180D01*
X156155812Y-121709482D01*
X156168072Y-121585000D01*
X156168072Y-120985000D01*
X156155812Y-120860518D01*
X156119502Y-120740820D01*
X156070957Y-120650000D01*
X156119502Y-120559180D01*
X156155812Y-120439482D01*
X156168072Y-120315000D01*
X156168072Y-119715000D01*
X156155812Y-119590518D01*
X156119502Y-119470820D01*
X156070957Y-119380000D01*
X156119502Y-119289180D01*
X156155812Y-119169482D01*
X156168072Y-119045000D01*
X156168072Y-118445000D01*
X156155812Y-118320518D01*
X156119502Y-118200820D01*
X156070957Y-118110000D01*
X156119502Y-118019180D01*
X156155812Y-117899482D01*
X156168072Y-117775000D01*
X156168072Y-117175000D01*
X156155812Y-117050518D01*
X156119502Y-116930820D01*
X156070957Y-116840000D01*
X156119502Y-116749180D01*
X156155812Y-116629482D01*
X156168072Y-116505000D01*
X156168072Y-115905000D01*
X156155812Y-115780518D01*
X156119502Y-115660820D01*
X156070957Y-115570000D01*
X156111223Y-115494669D01*
X158585746Y-117969193D01*
X158608762Y-117997238D01*
X158720680Y-118089087D01*
X158848367Y-118157337D01*
X158861596Y-118161350D01*
X158840498Y-118200820D01*
X158804188Y-118320518D01*
X158791928Y-118445000D01*
X158795000Y-118459250D01*
X158953750Y-118618000D01*
X160053000Y-118618000D01*
X160053000Y-118598000D01*
X160307000Y-118598000D01*
X160307000Y-118618000D01*
X161406250Y-118618000D01*
X161565000Y-118459250D01*
X161568072Y-118445000D01*
X161555812Y-118320518D01*
X161519502Y-118200820D01*
X161470957Y-118110000D01*
X161519502Y-118019180D01*
X161555812Y-117899482D01*
X161568072Y-117775000D01*
X161568072Y-117175000D01*
X161555812Y-117050518D01*
X161519502Y-116930820D01*
X161470957Y-116840000D01*
X161519502Y-116749180D01*
X161555812Y-116629482D01*
X161568072Y-116505000D01*
X161568072Y-115905000D01*
X161555812Y-115780518D01*
X161519502Y-115660820D01*
X161470957Y-115570000D01*
X161519502Y-115479180D01*
X161555812Y-115359482D01*
X161568072Y-115235000D01*
X161568072Y-114635000D01*
X161555812Y-114510518D01*
X161519502Y-114390820D01*
X161470957Y-114300000D01*
X161519502Y-114209180D01*
X161555812Y-114089482D01*
X161568072Y-113965000D01*
X161568072Y-113365000D01*
X161555812Y-113240518D01*
X161519502Y-113120820D01*
X161470957Y-113030000D01*
X161519502Y-112939180D01*
X161555812Y-112819482D01*
X161568072Y-112695000D01*
X161565000Y-112680750D01*
X161406250Y-112522000D01*
X160307000Y-112522000D01*
X160307000Y-112542000D01*
X160053000Y-112542000D01*
X160053000Y-112522000D01*
X160033000Y-112522000D01*
X160033000Y-112268000D01*
X160053000Y-112268000D01*
X160053000Y-111618750D01*
X160307000Y-111618750D01*
X160307000Y-112268000D01*
X161406250Y-112268000D01*
X161565000Y-112109250D01*
X161568072Y-112095000D01*
X161555812Y-111970518D01*
X161519502Y-111850820D01*
X161460537Y-111740506D01*
X161381185Y-111643815D01*
X161284494Y-111564463D01*
X161174180Y-111505498D01*
X161054482Y-111469188D01*
X160930000Y-111456928D01*
X160465750Y-111460000D01*
X160307000Y-111618750D01*
X160053000Y-111618750D01*
X159894250Y-111460000D01*
X159430000Y-111456928D01*
X159305518Y-111469188D01*
X159231000Y-111491793D01*
X159231000Y-106716105D01*
X159234556Y-106680000D01*
X159220365Y-106535915D01*
X159178337Y-106397368D01*
X159178337Y-106397367D01*
X159110087Y-106269680D01*
X159066117Y-106216103D01*
X159041253Y-106185806D01*
X159041250Y-106185803D01*
X159018237Y-106157762D01*
X158990197Y-106134750D01*
X157009258Y-104153812D01*
X156986238Y-104125762D01*
X156874320Y-104033913D01*
X156746633Y-103965663D01*
X156608085Y-103923635D01*
X156500105Y-103913000D01*
X156464000Y-103909444D01*
X156427895Y-103913000D01*
X140004447Y-103913000D01*
X138956157Y-102864710D01*
X139122632Y-102753475D01*
X139329475Y-102546632D01*
X139446000Y-102372240D01*
X139562525Y-102546632D01*
X139769368Y-102753475D01*
X140012589Y-102915990D01*
X140282842Y-103027932D01*
X140569740Y-103085000D01*
X140862260Y-103085000D01*
X141149158Y-103027932D01*
X141419411Y-102915990D01*
X141662632Y-102753475D01*
X141869475Y-102546632D01*
X141986000Y-102372240D01*
X142102525Y-102546632D01*
X142309368Y-102753475D01*
X142552589Y-102915990D01*
X142822842Y-103027932D01*
X143109740Y-103085000D01*
X143402260Y-103085000D01*
X143689158Y-103027932D01*
X143959411Y-102915990D01*
X144202632Y-102753475D01*
X144409475Y-102546632D01*
X144571990Y-102303411D01*
X144683932Y-102033158D01*
X144741000Y-101746260D01*
X144741000Y-101453740D01*
X144683932Y-101166842D01*
X144571990Y-100896589D01*
X144474043Y-100750000D01*
X145831928Y-100750000D01*
X145831928Y-102450000D01*
X145844188Y-102574482D01*
X145880498Y-102694180D01*
X145939463Y-102804494D01*
X146018815Y-102901185D01*
X146115506Y-102980537D01*
X146225820Y-103039502D01*
X146345518Y-103075812D01*
X146470000Y-103088072D01*
X148170000Y-103088072D01*
X148294482Y-103075812D01*
X148414180Y-103039502D01*
X148524494Y-102980537D01*
X148621185Y-102901185D01*
X148700537Y-102804494D01*
X148759502Y-102694180D01*
X148781513Y-102621620D01*
X148913368Y-102753475D01*
X149156589Y-102915990D01*
X149426842Y-103027932D01*
X149713740Y-103085000D01*
X150006260Y-103085000D01*
X150293158Y-103027932D01*
X150563411Y-102915990D01*
X150806632Y-102753475D01*
X151013475Y-102546632D01*
X151130000Y-102372240D01*
X151246525Y-102546632D01*
X151453368Y-102753475D01*
X151696589Y-102915990D01*
X151966842Y-103027932D01*
X152253740Y-103085000D01*
X152546260Y-103085000D01*
X152833158Y-103027932D01*
X153103411Y-102915990D01*
X153346632Y-102753475D01*
X153553475Y-102546632D01*
X153670000Y-102372240D01*
X153786525Y-102546632D01*
X153993368Y-102753475D01*
X154236589Y-102915990D01*
X154506842Y-103027932D01*
X154793740Y-103085000D01*
X155086260Y-103085000D01*
X155373158Y-103027932D01*
X155643411Y-102915990D01*
X155886632Y-102753475D01*
X156093475Y-102546632D01*
X156210000Y-102372240D01*
X156326525Y-102546632D01*
X156533368Y-102753475D01*
X156776589Y-102915990D01*
X157046842Y-103027932D01*
X157333740Y-103085000D01*
X157626260Y-103085000D01*
X157913158Y-103027932D01*
X158183411Y-102915990D01*
X158426632Y-102753475D01*
X158633475Y-102546632D01*
X158750000Y-102372240D01*
X158866525Y-102546632D01*
X159073368Y-102753475D01*
X159316589Y-102915990D01*
X159586842Y-103027932D01*
X159873740Y-103085000D01*
X160166260Y-103085000D01*
X160453158Y-103027932D01*
X160723411Y-102915990D01*
X160966632Y-102753475D01*
X161173475Y-102546632D01*
X161290000Y-102372240D01*
X161406525Y-102546632D01*
X161613368Y-102753475D01*
X161856589Y-102915990D01*
X162126842Y-103027932D01*
X162413740Y-103085000D01*
X162706260Y-103085000D01*
X162993158Y-103027932D01*
X163263411Y-102915990D01*
X163506632Y-102753475D01*
X163713475Y-102546632D01*
X163830000Y-102372240D01*
X163946525Y-102546632D01*
X164153368Y-102753475D01*
X164396589Y-102915990D01*
X164666842Y-103027932D01*
X164953740Y-103085000D01*
X165246260Y-103085000D01*
X165533158Y-103027932D01*
X165803411Y-102915990D01*
X166046632Y-102753475D01*
X166253475Y-102546632D01*
X166415990Y-102303411D01*
X166527932Y-102033158D01*
X166585000Y-101746260D01*
X166585000Y-101453740D01*
X166527932Y-101166842D01*
X166415990Y-100896589D01*
X166253475Y-100653368D01*
X166046632Y-100446525D01*
X165803411Y-100284010D01*
X165533158Y-100172068D01*
X165246260Y-100115000D01*
X164953740Y-100115000D01*
X164666842Y-100172068D01*
X164396589Y-100284010D01*
X164153368Y-100446525D01*
X163946525Y-100653368D01*
X163830000Y-100827760D01*
X163713475Y-100653368D01*
X163506632Y-100446525D01*
X163263411Y-100284010D01*
X162993158Y-100172068D01*
X162706260Y-100115000D01*
X162413740Y-100115000D01*
X162126842Y-100172068D01*
X161856589Y-100284010D01*
X161613368Y-100446525D01*
X161406525Y-100653368D01*
X161290000Y-100827760D01*
X161173475Y-100653368D01*
X160966632Y-100446525D01*
X160723411Y-100284010D01*
X160453158Y-100172068D01*
X160166260Y-100115000D01*
X159873740Y-100115000D01*
X159586842Y-100172068D01*
X159316589Y-100284010D01*
X159073368Y-100446525D01*
X158866525Y-100653368D01*
X158750000Y-100827760D01*
X158633475Y-100653368D01*
X158426632Y-100446525D01*
X158183411Y-100284010D01*
X157913158Y-100172068D01*
X157626260Y-100115000D01*
X157333740Y-100115000D01*
X157046842Y-100172068D01*
X156776589Y-100284010D01*
X156533368Y-100446525D01*
X156326525Y-100653368D01*
X156210000Y-100827760D01*
X156093475Y-100653368D01*
X155886632Y-100446525D01*
X155643411Y-100284010D01*
X155373158Y-100172068D01*
X155086260Y-100115000D01*
X154793740Y-100115000D01*
X154506842Y-100172068D01*
X154236589Y-100284010D01*
X153993368Y-100446525D01*
X153786525Y-100653368D01*
X153670000Y-100827760D01*
X153553475Y-100653368D01*
X153346632Y-100446525D01*
X153103411Y-100284010D01*
X152833158Y-100172068D01*
X152546260Y-100115000D01*
X152253740Y-100115000D01*
X151966842Y-100172068D01*
X151696589Y-100284010D01*
X151453368Y-100446525D01*
X151246525Y-100653368D01*
X151130000Y-100827760D01*
X151013475Y-100653368D01*
X150806632Y-100446525D01*
X150563411Y-100284010D01*
X150293158Y-100172068D01*
X150006260Y-100115000D01*
X149713740Y-100115000D01*
X149426842Y-100172068D01*
X149156589Y-100284010D01*
X148913368Y-100446525D01*
X148781513Y-100578380D01*
X148759502Y-100505820D01*
X148700537Y-100395506D01*
X148621185Y-100298815D01*
X148524494Y-100219463D01*
X148414180Y-100160498D01*
X148294482Y-100124188D01*
X148170000Y-100111928D01*
X146470000Y-100111928D01*
X146345518Y-100124188D01*
X146225820Y-100160498D01*
X146115506Y-100219463D01*
X146018815Y-100298815D01*
X145939463Y-100395506D01*
X145880498Y-100505820D01*
X145844188Y-100625518D01*
X145831928Y-100750000D01*
X144474043Y-100750000D01*
X144409475Y-100653368D01*
X144202632Y-100446525D01*
X143959411Y-100284010D01*
X143689158Y-100172068D01*
X143402260Y-100115000D01*
X143109740Y-100115000D01*
X142822842Y-100172068D01*
X142552589Y-100284010D01*
X142309368Y-100446525D01*
X142102525Y-100653368D01*
X141986000Y-100827760D01*
X141869475Y-100653368D01*
X141662632Y-100446525D01*
X141419411Y-100284010D01*
X141149158Y-100172068D01*
X140862260Y-100115000D01*
X140569740Y-100115000D01*
X140282842Y-100172068D01*
X140012589Y-100284010D01*
X139769368Y-100446525D01*
X139562525Y-100653368D01*
X139446000Y-100827760D01*
X139329475Y-100653368D01*
X139122632Y-100446525D01*
X138879411Y-100284010D01*
X138609158Y-100172068D01*
X138322260Y-100115000D01*
X138029740Y-100115000D01*
X137742842Y-100172068D01*
X137472589Y-100284010D01*
X137229368Y-100446525D01*
X137022525Y-100653368D01*
X136906000Y-100827760D01*
X136789475Y-100653368D01*
X136582632Y-100446525D01*
X136339411Y-100284010D01*
X136069158Y-100172068D01*
X135782260Y-100115000D01*
X135489740Y-100115000D01*
X135202842Y-100172068D01*
X134932589Y-100284010D01*
X134689368Y-100446525D01*
X134482525Y-100653368D01*
X134366000Y-100827760D01*
X134249475Y-100653368D01*
X134042632Y-100446525D01*
X133799411Y-100284010D01*
X133529158Y-100172068D01*
X133242260Y-100115000D01*
X132949740Y-100115000D01*
X132662842Y-100172068D01*
X132392589Y-100284010D01*
X132149368Y-100446525D01*
X131942525Y-100653368D01*
X131826000Y-100827760D01*
X131709475Y-100653368D01*
X131502632Y-100446525D01*
X131259411Y-100284010D01*
X130989158Y-100172068D01*
X130702260Y-100115000D01*
X130409740Y-100115000D01*
X130122842Y-100172068D01*
X129852589Y-100284010D01*
X129609368Y-100446525D01*
X129402525Y-100653368D01*
X129280805Y-100835534D01*
X129211178Y-100718645D01*
X129016269Y-100502412D01*
X128782920Y-100328359D01*
X128520099Y-100203175D01*
X128372890Y-100158524D01*
X128143000Y-100279845D01*
X128143000Y-101473000D01*
X128163000Y-101473000D01*
X128163000Y-101727000D01*
X128143000Y-101727000D01*
X128143000Y-102920155D01*
X128372890Y-103041476D01*
X128520099Y-102996825D01*
X128782920Y-102871641D01*
X129016269Y-102697588D01*
X129211178Y-102481355D01*
X129280805Y-102364466D01*
X129402525Y-102546632D01*
X129609368Y-102753475D01*
X129821000Y-102894883D01*
X129821000Y-103341895D01*
X129817444Y-103378000D01*
X129821000Y-103414104D01*
X129831635Y-103522084D01*
X129873663Y-103660632D01*
X129941913Y-103788319D01*
X130033762Y-103900237D01*
X130061808Y-103923254D01*
X136614746Y-110476193D01*
X136637762Y-110504238D01*
X136749680Y-110596087D01*
X136877367Y-110664337D01*
X137015915Y-110706365D01*
X137123895Y-110717000D01*
X137123904Y-110717000D01*
X137159999Y-110720555D01*
X137196094Y-110717000D01*
X155397554Y-110717000D01*
X155475001Y-110794447D01*
X155475001Y-111456928D01*
X154030000Y-111456928D01*
X153905518Y-111469188D01*
X153785820Y-111505498D01*
X153675506Y-111564463D01*
X153578815Y-111643815D01*
X153565532Y-111660000D01*
X146721105Y-111660000D01*
X146685000Y-111656444D01*
X146540915Y-111670635D01*
X146402366Y-111712663D01*
X146274680Y-111780913D01*
X146162762Y-111872762D01*
X146139746Y-111900807D01*
X140411554Y-117629000D01*
X139482094Y-117629000D01*
X139445999Y-117625445D01*
X139409904Y-117629000D01*
X139409895Y-117629000D01*
X139301915Y-117639635D01*
X139163367Y-117681663D01*
X139035680Y-117749913D01*
X138923762Y-117841762D01*
X138900746Y-117869807D01*
X138420046Y-118350507D01*
X138371411Y-118318010D01*
X138101158Y-118206068D01*
X137814260Y-118149000D01*
X137521740Y-118149000D01*
X137234842Y-118206068D01*
X136964589Y-118318010D01*
X136721368Y-118480525D01*
X136514525Y-118687368D01*
X136373117Y-118899000D01*
X131227105Y-118899000D01*
X131191000Y-118895444D01*
X131046915Y-118909635D01*
X130908366Y-118951663D01*
X130799484Y-119009862D01*
X130780680Y-119019913D01*
X130668762Y-119111762D01*
X130645746Y-119139807D01*
X124398781Y-125386773D01*
X124358175Y-125359641D01*
X124105302Y-125254898D01*
X123836854Y-125201500D01*
X123563146Y-125201500D01*
X123294698Y-125254898D01*
X123041825Y-125359641D01*
X122814246Y-125511705D01*
X122620705Y-125705246D01*
X122468641Y-125932825D01*
X122363898Y-126185698D01*
X122344568Y-126282878D01*
X122325302Y-126274898D01*
X122056854Y-126221500D01*
X121783146Y-126221500D01*
X121514698Y-126274898D01*
X121261825Y-126379641D01*
X121034246Y-126531705D01*
X120840705Y-126725246D01*
X120688641Y-126952825D01*
X120583898Y-127205698D01*
X120530500Y-127474146D01*
X113982500Y-127474146D01*
X113982500Y-123677203D01*
X117920000Y-123677203D01*
X117920000Y-123964797D01*
X117976107Y-124246866D01*
X118086165Y-124512569D01*
X118245944Y-124751696D01*
X118449304Y-124955056D01*
X118688431Y-125114835D01*
X118954134Y-125224893D01*
X119236203Y-125281000D01*
X119523797Y-125281000D01*
X119805866Y-125224893D01*
X120071569Y-125114835D01*
X120310696Y-124955056D01*
X120514056Y-124751696D01*
X120673835Y-124512569D01*
X120783893Y-124246866D01*
X120840000Y-123964797D01*
X120840000Y-123677203D01*
X120783893Y-123395134D01*
X120775843Y-123375699D01*
X121684906Y-123375699D01*
X121809314Y-123664392D01*
X122139397Y-123828999D01*
X122495251Y-123926048D01*
X122863201Y-123951808D01*
X123229106Y-123905290D01*
X123578906Y-123788282D01*
X123810686Y-123664392D01*
X123935094Y-123375699D01*
X122810000Y-122250605D01*
X121684906Y-123375699D01*
X120775843Y-123375699D01*
X120673835Y-123129431D01*
X120514056Y-122890304D01*
X120310696Y-122686944D01*
X120071569Y-122527165D01*
X119805866Y-122417107D01*
X119523797Y-122361000D01*
X119236203Y-122361000D01*
X118954134Y-122417107D01*
X118688431Y-122527165D01*
X118449304Y-122686944D01*
X118245944Y-122890304D01*
X118086165Y-123129431D01*
X117976107Y-123395134D01*
X117920000Y-123677203D01*
X113982500Y-123677203D01*
X113982500Y-122124201D01*
X120929192Y-122124201D01*
X120975710Y-122490106D01*
X121092718Y-122839906D01*
X121216608Y-123071686D01*
X121505301Y-123196094D01*
X122630395Y-122071000D01*
X122989605Y-122071000D01*
X124114699Y-123196094D01*
X124403392Y-123071686D01*
X124567999Y-122741603D01*
X124665048Y-122385749D01*
X124690808Y-122017799D01*
X124644290Y-121651894D01*
X124527282Y-121302094D01*
X124403392Y-121070314D01*
X124114699Y-120945906D01*
X122989605Y-122071000D01*
X122630395Y-122071000D01*
X121505301Y-120945906D01*
X121216608Y-121070314D01*
X121052001Y-121400397D01*
X120954952Y-121756251D01*
X120929192Y-122124201D01*
X113982500Y-122124201D01*
X113982500Y-120766301D01*
X121684906Y-120766301D01*
X122810000Y-121891395D01*
X123935094Y-120766301D01*
X123810686Y-120477608D01*
X123480603Y-120313001D01*
X123124749Y-120215952D01*
X122756799Y-120190192D01*
X122390894Y-120236710D01*
X122041094Y-120353718D01*
X121809314Y-120477608D01*
X121684906Y-120766301D01*
X113982500Y-120766301D01*
X113982500Y-99758500D01*
X115534261Y-99758500D01*
X115401513Y-99847199D01*
G37*
X115401513Y-99847199D02*
X115087199Y-100161513D01*
X114840244Y-100531108D01*
X114670138Y-100941779D01*
X114583419Y-101377746D01*
X114583419Y-101822254D01*
X114670138Y-102258221D01*
X114840244Y-102668892D01*
X115087199Y-103038487D01*
X115401513Y-103352801D01*
X115771108Y-103599756D01*
X116181779Y-103769862D01*
X116617746Y-103856581D01*
X117062254Y-103856581D01*
X117498221Y-103769862D01*
X117908892Y-103599756D01*
X118278487Y-103352801D01*
X118592801Y-103038487D01*
X118839756Y-102668892D01*
X118912249Y-102493878D01*
X118920188Y-102574482D01*
X118956498Y-102694180D01*
X119015463Y-102804494D01*
X119094815Y-102901185D01*
X119191506Y-102980537D01*
X119301820Y-103039502D01*
X119421518Y-103075812D01*
X119546000Y-103088072D01*
X121246000Y-103088072D01*
X121370482Y-103075812D01*
X121490180Y-103039502D01*
X121600494Y-102980537D01*
X121697185Y-102901185D01*
X121776537Y-102804494D01*
X121835502Y-102694180D01*
X121857513Y-102621620D01*
X121989368Y-102753475D01*
X122232589Y-102915990D01*
X122502842Y-103027932D01*
X122789740Y-103085000D01*
X123082260Y-103085000D01*
X123369158Y-103027932D01*
X123639411Y-102915990D01*
X123882632Y-102753475D01*
X124089475Y-102546632D01*
X124206000Y-102372240D01*
X124322525Y-102546632D01*
X124529368Y-102753475D01*
X124772589Y-102915990D01*
X125042842Y-103027932D01*
X125329740Y-103085000D01*
X125622260Y-103085000D01*
X125909158Y-103027932D01*
X126179411Y-102915990D01*
X126422632Y-102753475D01*
X126629475Y-102546632D01*
X126751195Y-102364466D01*
X126820822Y-102481355D01*
X127015731Y-102697588D01*
X127249080Y-102871641D01*
X127511901Y-102996825D01*
X127659110Y-103041476D01*
X127889000Y-102920155D01*
X127889000Y-101727000D01*
X127869000Y-101727000D01*
X127869000Y-101473000D01*
X127889000Y-101473000D01*
X127889000Y-100279845D01*
X127659110Y-100158524D01*
X127511901Y-100203175D01*
X127249080Y-100328359D01*
X127015731Y-100502412D01*
X126820822Y-100718645D01*
X126751195Y-100835534D01*
X126629475Y-100653368D01*
X126422632Y-100446525D01*
X126179411Y-100284010D01*
X125909158Y-100172068D01*
X125622260Y-100115000D01*
X125329740Y-100115000D01*
X125042842Y-100172068D01*
X124772589Y-100284010D01*
X124529368Y-100446525D01*
X124322525Y-100653368D01*
X124206000Y-100827760D01*
X124089475Y-100653368D01*
X123882632Y-100446525D01*
X123639411Y-100284010D01*
X123369158Y-100172068D01*
X123082260Y-100115000D01*
X122789740Y-100115000D01*
X122502842Y-100172068D01*
X122232589Y-100284010D01*
X121989368Y-100446525D01*
X121857513Y-100578380D01*
X121835502Y-100505820D01*
X121776537Y-100395506D01*
X121697185Y-100298815D01*
X121600494Y-100219463D01*
X121490180Y-100160498D01*
X121370482Y-100124188D01*
X121246000Y-100111928D01*
X119546000Y-100111928D01*
X119421518Y-100124188D01*
X119301820Y-100160498D01*
X119191506Y-100219463D01*
X119094815Y-100298815D01*
X119015463Y-100395506D01*
X118956498Y-100505820D01*
X118920188Y-100625518D01*
X118912249Y-100706122D01*
X118839756Y-100531108D01*
X118592801Y-100161513D01*
X118278487Y-99847199D01*
X118145739Y-99758500D01*
X166751000Y-99758500D01*
X166751000Y-112268000D01*
X166753440Y-112292776D01*
X166760667Y-112316601D01*
X166772403Y-112338557D01*
X166788197Y-112357803D01*
X169291000Y-114860606D01*
X169291000Y-115299712D01*
X169078487Y-115087199D01*
X168708892Y-114840244D01*
X168298221Y-114670138D01*
X167862254Y-114583419D01*
X167417746Y-114583419D01*
X166981779Y-114670138D01*
X166571108Y-114840244D01*
X166201513Y-115087199D01*
X165887199Y-115401513D01*
X165640244Y-115771108D01*
X165470138Y-116181779D01*
X165383419Y-116617746D01*
X165383419Y-117062254D01*
X165470138Y-117498221D01*
X165640244Y-117908892D01*
X165887199Y-118278487D01*
X166201513Y-118592801D01*
X166571108Y-118839756D01*
X166981779Y-119009862D01*
X167417746Y-119096581D01*
X167862254Y-119096581D01*
X168298221Y-119009862D01*
X168708892Y-118839756D01*
X169078487Y-118592801D01*
X169291000Y-118380288D01*
X169291000Y-143239712D01*
X169078487Y-143027199D01*
X168708892Y-142780244D01*
X168298221Y-142610138D01*
X167862254Y-142523419D01*
X167417746Y-142523419D01*
X166981779Y-142610138D01*
X166571108Y-142780244D01*
X166201513Y-143027199D01*
X165887199Y-143341513D01*
X165640244Y-143711108D01*
X165470138Y-144121779D01*
X165383419Y-144557746D01*
X165383419Y-145002254D01*
X165470138Y-145438221D01*
X165640244Y-145848892D01*
X165887199Y-146218487D01*
X166201513Y-146532801D01*
X166571108Y-146779756D01*
X166981779Y-146949862D01*
X167417746Y-147036581D01*
X167862254Y-147036581D01*
X168298221Y-146949862D01*
X168708892Y-146779756D01*
X169078487Y-146532801D01*
X169291000Y-146320288D01*
X169291000Y-147013394D01*
X167042197Y-149262197D01*
X167026403Y-149281443D01*
X167014667Y-149303399D01*
X167007440Y-149327224D01*
X167005000Y-149352000D01*
X167005000Y-149566237D01*
X166991549Y-149591402D01*
X166991549Y-149591403D01*
X166954439Y-149713740D01*
X166951608Y-149723071D01*
X166938122Y-149860000D01*
X166941501Y-149894308D01*
X166941500Y-151701500D01*
X116875739Y-151701500D01*
X117008487Y-151612801D01*
X117322801Y-151298487D01*
X117569756Y-150928892D01*
X117739862Y-150518221D01*
X117826581Y-150082254D01*
X117826581Y-149637746D01*
X117739862Y-149201779D01*
X117660425Y-149010000D01*
X128051928Y-149010000D01*
X128051928Y-150710000D01*
X128064188Y-150834482D01*
X128100498Y-150954180D01*
X128159463Y-151064494D01*
X128238815Y-151161185D01*
X128335506Y-151240537D01*
X128445820Y-151299502D01*
X128565518Y-151335812D01*
X128690000Y-151348072D01*
X130390000Y-151348072D01*
X130514482Y-151335812D01*
X130634180Y-151299502D01*
X130744494Y-151240537D01*
X130841185Y-151161185D01*
X130920537Y-151064494D01*
X130979502Y-150954180D01*
X131001513Y-150881620D01*
X131133368Y-151013475D01*
X131376589Y-151175990D01*
X131646842Y-151287932D01*
X131933740Y-151345000D01*
X132226260Y-151345000D01*
X132513158Y-151287932D01*
X132783411Y-151175990D01*
X133026632Y-151013475D01*
X133233475Y-150806632D01*
X133350000Y-150632240D01*
X133466525Y-150806632D01*
X133673368Y-151013475D01*
X133916589Y-151175990D01*
X134186842Y-151287932D01*
X134473740Y-151345000D01*
X134766260Y-151345000D01*
X135053158Y-151287932D01*
X135323411Y-151175990D01*
X135566632Y-151013475D01*
X135773475Y-150806632D01*
X135890000Y-150632240D01*
X136006525Y-150806632D01*
X136213368Y-151013475D01*
X136456589Y-151175990D01*
X136726842Y-151287932D01*
X137013740Y-151345000D01*
X137306260Y-151345000D01*
X137593158Y-151287932D01*
X137863411Y-151175990D01*
X138106632Y-151013475D01*
X138313475Y-150806632D01*
X138430000Y-150632240D01*
X138546525Y-150806632D01*
X138753368Y-151013475D01*
X138996589Y-151175990D01*
X139266842Y-151287932D01*
X139553740Y-151345000D01*
X139846260Y-151345000D01*
X140133158Y-151287932D01*
X140403411Y-151175990D01*
X140646632Y-151013475D01*
X140853475Y-150806632D01*
X140975195Y-150624466D01*
X141044822Y-150741355D01*
X141239731Y-150957588D01*
X141473080Y-151131641D01*
X141735901Y-151256825D01*
X141883110Y-151301476D01*
X142113000Y-151180155D01*
X142113000Y-149987000D01*
X142367000Y-149987000D01*
X142367000Y-151180155D01*
X142596890Y-151301476D01*
X142744099Y-151256825D01*
X143006920Y-151131641D01*
X143240269Y-150957588D01*
X143435178Y-150741355D01*
X143510000Y-150615745D01*
X143584822Y-150741355D01*
X143779731Y-150957588D01*
X144013080Y-151131641D01*
X144275901Y-151256825D01*
X144423110Y-151301476D01*
X144653000Y-151180155D01*
X144653000Y-149987000D01*
X142367000Y-149987000D01*
X142113000Y-149987000D01*
X142093000Y-149987000D01*
X142093000Y-149733000D01*
X142113000Y-149733000D01*
X142113000Y-148539845D01*
X142367000Y-148539845D01*
X142367000Y-149733000D01*
X144653000Y-149733000D01*
X144653000Y-148539845D01*
X144907000Y-148539845D01*
X144907000Y-149733000D01*
X144927000Y-149733000D01*
X144927000Y-149987000D01*
X144907000Y-149987000D01*
X144907000Y-151180155D01*
X145136890Y-151301476D01*
X145284099Y-151256825D01*
X145546920Y-151131641D01*
X145780269Y-150957588D01*
X145975178Y-150741355D01*
X146044805Y-150624466D01*
X146166525Y-150806632D01*
X146373368Y-151013475D01*
X146616589Y-151175990D01*
X146886842Y-151287932D01*
X147173740Y-151345000D01*
X147466260Y-151345000D01*
X147753158Y-151287932D01*
X148023411Y-151175990D01*
X148266632Y-151013475D01*
X148473475Y-150806632D01*
X148635990Y-150563411D01*
X148747932Y-150293158D01*
X148805000Y-150006260D01*
X148805000Y-149713740D01*
X148747932Y-149426842D01*
X148635990Y-149156589D01*
X148538043Y-149010000D01*
X150911928Y-149010000D01*
X150911928Y-150710000D01*
X150924188Y-150834482D01*
X150960498Y-150954180D01*
X151019463Y-151064494D01*
X151098815Y-151161185D01*
X151195506Y-151240537D01*
X151305820Y-151299502D01*
X151425518Y-151335812D01*
X151550000Y-151348072D01*
X153250000Y-151348072D01*
X153374482Y-151335812D01*
X153494180Y-151299502D01*
X153604494Y-151240537D01*
X153701185Y-151161185D01*
X153780537Y-151064494D01*
X153839502Y-150954180D01*
X153861513Y-150881620D01*
X153993368Y-151013475D01*
X154236589Y-151175990D01*
X154506842Y-151287932D01*
X154793740Y-151345000D01*
X155086260Y-151345000D01*
X155373158Y-151287932D01*
X155643411Y-151175990D01*
X155886632Y-151013475D01*
X156093475Y-150806632D01*
X156210000Y-150632240D01*
X156326525Y-150806632D01*
X156533368Y-151013475D01*
X156776589Y-151175990D01*
X157046842Y-151287932D01*
X157333740Y-151345000D01*
X157626260Y-151345000D01*
X157913158Y-151287932D01*
X158183411Y-151175990D01*
X158426632Y-151013475D01*
X158633475Y-150806632D01*
X158750000Y-150632240D01*
X158866525Y-150806632D01*
X159073368Y-151013475D01*
X159316589Y-151175990D01*
X159586842Y-151287932D01*
X159873740Y-151345000D01*
X160166260Y-151345000D01*
X160453158Y-151287932D01*
X160723411Y-151175990D01*
X160966632Y-151013475D01*
X161173475Y-150806632D01*
X161290000Y-150632240D01*
X161406525Y-150806632D01*
X161613368Y-151013475D01*
X161856589Y-151175990D01*
X162126842Y-151287932D01*
X162413740Y-151345000D01*
X162706260Y-151345000D01*
X162993158Y-151287932D01*
X163263411Y-151175990D01*
X163506632Y-151013475D01*
X163713475Y-150806632D01*
X163830000Y-150632240D01*
X163946525Y-150806632D01*
X164153368Y-151013475D01*
X164396589Y-151175990D01*
X164666842Y-151287932D01*
X164953740Y-151345000D01*
X165246260Y-151345000D01*
X165533158Y-151287932D01*
X165803411Y-151175990D01*
X166046632Y-151013475D01*
X166253475Y-150806632D01*
X166415990Y-150563411D01*
X166527932Y-150293158D01*
X166585000Y-150006260D01*
X166585000Y-149713740D01*
X166527932Y-149426842D01*
X166415990Y-149156589D01*
X166253475Y-148913368D01*
X166046632Y-148706525D01*
X165803411Y-148544010D01*
X165533158Y-148432068D01*
X165246260Y-148375000D01*
X164953740Y-148375000D01*
X164666842Y-148432068D01*
X164396589Y-148544010D01*
X164153368Y-148706525D01*
X163946525Y-148913368D01*
X163830000Y-149087760D01*
X163713475Y-148913368D01*
X163506632Y-148706525D01*
X163263411Y-148544010D01*
X162993158Y-148432068D01*
X162706260Y-148375000D01*
X162413740Y-148375000D01*
X162126842Y-148432068D01*
X161856589Y-148544010D01*
X161613368Y-148706525D01*
X161406525Y-148913368D01*
X161290000Y-149087760D01*
X161173475Y-148913368D01*
X160966632Y-148706525D01*
X160723411Y-148544010D01*
X160453158Y-148432068D01*
X160166260Y-148375000D01*
X159873740Y-148375000D01*
X159586842Y-148432068D01*
X159316589Y-148544010D01*
X159073368Y-148706525D01*
X158866525Y-148913368D01*
X158750000Y-149087760D01*
X158633475Y-148913368D01*
X158426632Y-148706525D01*
X158183411Y-148544010D01*
X157913158Y-148432068D01*
X157626260Y-148375000D01*
X157333740Y-148375000D01*
X157046842Y-148432068D01*
X156776589Y-148544010D01*
X156533368Y-148706525D01*
X156326525Y-148913368D01*
X156210000Y-149087760D01*
X156093475Y-148913368D01*
X155886632Y-148706525D01*
X155643411Y-148544010D01*
X155373158Y-148432068D01*
X155086260Y-148375000D01*
X154793740Y-148375000D01*
X154506842Y-148432068D01*
X154236589Y-148544010D01*
X153993368Y-148706525D01*
X153861513Y-148838380D01*
X153839502Y-148765820D01*
X153780537Y-148655506D01*
X153701185Y-148558815D01*
X153604494Y-148479463D01*
X153494180Y-148420498D01*
X153374482Y-148384188D01*
X153250000Y-148371928D01*
X151550000Y-148371928D01*
X151425518Y-148384188D01*
X151305820Y-148420498D01*
X151195506Y-148479463D01*
X151098815Y-148558815D01*
X151019463Y-148655506D01*
X150960498Y-148765820D01*
X150924188Y-148885518D01*
X150911928Y-149010000D01*
X148538043Y-149010000D01*
X148473475Y-148913368D01*
X148266632Y-148706525D01*
X148023411Y-148544010D01*
X147753158Y-148432068D01*
X147466260Y-148375000D01*
X147173740Y-148375000D01*
X146886842Y-148432068D01*
X146616589Y-148544010D01*
X146373368Y-148706525D01*
X146166525Y-148913368D01*
X146044805Y-149095534D01*
X145975178Y-148978645D01*
X145780269Y-148762412D01*
X145546920Y-148588359D01*
X145284099Y-148463175D01*
X145136890Y-148418524D01*
X144907000Y-148539845D01*
X144653000Y-148539845D01*
X144423110Y-148418524D01*
X144275901Y-148463175D01*
X144013080Y-148588359D01*
X143779731Y-148762412D01*
X143584822Y-148978645D01*
X143510000Y-149104255D01*
X143435178Y-148978645D01*
X143240269Y-148762412D01*
X143006920Y-148588359D01*
X142744099Y-148463175D01*
X142596890Y-148418524D01*
X142367000Y-148539845D01*
X142113000Y-148539845D01*
X141883110Y-148418524D01*
X141735901Y-148463175D01*
X141473080Y-148588359D01*
X141239731Y-148762412D01*
X141044822Y-148978645D01*
X140975195Y-149095534D01*
X140853475Y-148913368D01*
X140685000Y-148744893D01*
X140685000Y-147223000D01*
X152417620Y-147223000D01*
X152466000Y-147227765D01*
X152514380Y-147223000D01*
X152659094Y-147208747D01*
X152844767Y-147152424D01*
X153015884Y-147060960D01*
X153165870Y-146937870D01*
X153196716Y-146900284D01*
X153287928Y-146809072D01*
X154082000Y-146809072D01*
X154206482Y-146796812D01*
X154326180Y-146760502D01*
X154432000Y-146703939D01*
X154537820Y-146760502D01*
X154657518Y-146796812D01*
X154782000Y-146809072D01*
X155096250Y-146806000D01*
X155255000Y-146647250D01*
X155255000Y-145923000D01*
X155509000Y-145923000D01*
X155509000Y-146647250D01*
X155667750Y-146806000D01*
X155982000Y-146809072D01*
X156106482Y-146796812D01*
X156226180Y-146760502D01*
X156336494Y-146701537D01*
X156433185Y-146622185D01*
X156512537Y-146525494D01*
X156571502Y-146415180D01*
X156607812Y-146295482D01*
X156620072Y-146171000D01*
X156617000Y-146081750D01*
X156458250Y-145923000D01*
X155509000Y-145923000D01*
X155255000Y-145923000D01*
X155235000Y-145923000D01*
X155235000Y-145669000D01*
X155255000Y-145669000D01*
X155255000Y-145649000D01*
X155509000Y-145649000D01*
X155509000Y-145669000D01*
X156458250Y-145669000D01*
X156617000Y-145510250D01*
X156620072Y-145421000D01*
X156607812Y-145296518D01*
X156595824Y-145257000D01*
X158701620Y-145257000D01*
X158750000Y-145261765D01*
X158798380Y-145257000D01*
X158943094Y-145242747D01*
X159128767Y-145186424D01*
X159299884Y-145094960D01*
X159449870Y-144971870D01*
X159480716Y-144934284D01*
X163476290Y-140938711D01*
X163513870Y-140907870D01*
X163636960Y-140757884D01*
X163728424Y-140586767D01*
X163784747Y-140401094D01*
X163799000Y-140256380D01*
X163799000Y-140256379D01*
X163803765Y-140208000D01*
X163799000Y-140159620D01*
X163799000Y-122476379D01*
X163803765Y-122427999D01*
X163784747Y-122234906D01*
X163728424Y-122049233D01*
X163716936Y-122027740D01*
X163636960Y-121878116D01*
X163513870Y-121728130D01*
X163476284Y-121697284D01*
X162401716Y-120622716D01*
X162370870Y-120585130D01*
X162220884Y-120462040D01*
X162049767Y-120370576D01*
X161864094Y-120314253D01*
X161719380Y-120300000D01*
X161671000Y-120295235D01*
X161622620Y-120300000D01*
X161568072Y-120300000D01*
X161568072Y-119715000D01*
X161555812Y-119590518D01*
X161519502Y-119470820D01*
X161470957Y-119380000D01*
X161519502Y-119289180D01*
X161555812Y-119169482D01*
X161568072Y-119045000D01*
X161565000Y-119030750D01*
X161406250Y-118872000D01*
X160307000Y-118872000D01*
X160307000Y-118892000D01*
X160053000Y-118892000D01*
X160053000Y-118872000D01*
X158953750Y-118872000D01*
X158795750Y-119030000D01*
X158671379Y-119030000D01*
X158622999Y-119025235D01*
X158429906Y-119044253D01*
X158244233Y-119100576D01*
X158073116Y-119192040D01*
X157923130Y-119315130D01*
X157892289Y-119352710D01*
X156883711Y-120361289D01*
X156846131Y-120392130D01*
X156723041Y-120542116D01*
X156676554Y-120629087D01*
X156631576Y-120713234D01*
X156575253Y-120898907D01*
X156556235Y-121092000D01*
X156561001Y-121140390D01*
X156561000Y-122684928D01*
X156560000Y-122684928D01*
X156435518Y-122697188D01*
X156315820Y-122733498D01*
X156210000Y-122790061D01*
X156104180Y-122733498D01*
X155984482Y-122697188D01*
X155860000Y-122684928D01*
X155545750Y-122688000D01*
X155387000Y-122846750D01*
X155387000Y-123571000D01*
X155407000Y-123571000D01*
X155407000Y-123825000D01*
X155387000Y-123825000D01*
X155387000Y-124549250D01*
X155545750Y-124708000D01*
X155860000Y-124711072D01*
X155984482Y-124698812D01*
X156104180Y-124662502D01*
X156210000Y-124605939D01*
X156315820Y-124662502D01*
X156435518Y-124698812D01*
X156560000Y-124711072D01*
X156561000Y-124711072D01*
X156561001Y-128811998D01*
X148943716Y-136429284D01*
X148906130Y-136460130D01*
X148783040Y-136610116D01*
X148691577Y-136781233D01*
X148691576Y-136781234D01*
X148635253Y-136966907D01*
X148616235Y-137160000D01*
X148621000Y-137208380D01*
X148621001Y-139651611D01*
X148621000Y-139651621D01*
X148621000Y-140362893D01*
X148527513Y-140456380D01*
X148505502Y-140383820D01*
X148446537Y-140273506D01*
X148367185Y-140176815D01*
X148270494Y-140097463D01*
X148160180Y-140038498D01*
X148040482Y-140002188D01*
X147916000Y-139989928D01*
X146216000Y-139989928D01*
X146091518Y-140002188D01*
X145971820Y-140038498D01*
X145861506Y-140097463D01*
X145764815Y-140176815D01*
X145685463Y-140273506D01*
X145626498Y-140383820D01*
X145593379Y-140493000D01*
X139240380Y-140493000D01*
X139192000Y-140488235D01*
X139143620Y-140493000D01*
X138998906Y-140507253D01*
X138813233Y-140563576D01*
X138642116Y-140655040D01*
X138492130Y-140778130D01*
X138461289Y-140815710D01*
X136497711Y-142779289D01*
X136460131Y-142810130D01*
X136337041Y-142960116D01*
X136292204Y-143044000D01*
X136245576Y-143131234D01*
X136189253Y-143316907D01*
X136170235Y-143510000D01*
X136175001Y-143558390D01*
X136175000Y-148744893D01*
X136006525Y-148913368D01*
X135890000Y-149087760D01*
X135773475Y-148913368D01*
X135566632Y-148706525D01*
X135323411Y-148544010D01*
X135053158Y-148432068D01*
X134766260Y-148375000D01*
X134473740Y-148375000D01*
X134186842Y-148432068D01*
X133916589Y-148544010D01*
X133673368Y-148706525D01*
X133466525Y-148913368D01*
X133350000Y-149087760D01*
X133233475Y-148913368D01*
X133026632Y-148706525D01*
X132783411Y-148544010D01*
X132513158Y-148432068D01*
X132226260Y-148375000D01*
X131933740Y-148375000D01*
X131646842Y-148432068D01*
X131376589Y-148544010D01*
X131133368Y-148706525D01*
X131001513Y-148838380D01*
X130979502Y-148765820D01*
X130920537Y-148655506D01*
X130841185Y-148558815D01*
X130744494Y-148479463D01*
X130634180Y-148420498D01*
X130514482Y-148384188D01*
X130390000Y-148371928D01*
X128690000Y-148371928D01*
X128565518Y-148384188D01*
X128445820Y-148420498D01*
X128335506Y-148479463D01*
X128238815Y-148558815D01*
X128159463Y-148655506D01*
X128100498Y-148765820D01*
X128064188Y-148885518D01*
X128051928Y-149010000D01*
X117660425Y-149010000D01*
X117569756Y-148791108D01*
X117322801Y-148421513D01*
X117008487Y-148107199D01*
X116638892Y-147860244D01*
X116228221Y-147690138D01*
X115792254Y-147603419D01*
X115347746Y-147603419D01*
X114911779Y-147690138D01*
X114501108Y-147860244D01*
X114131513Y-148107199D01*
X113982500Y-148256212D01*
X113982500Y-139575699D01*
X121684906Y-139575699D01*
X121809314Y-139864392D01*
X122139397Y-140028999D01*
X122495251Y-140126048D01*
X122863201Y-140151808D01*
X123229106Y-140105290D01*
X123578906Y-139988282D01*
X123810686Y-139864392D01*
X123935094Y-139575699D01*
X122810000Y-138450605D01*
X121684906Y-139575699D01*
X113982500Y-139575699D01*
X113982500Y-138324201D01*
X120929192Y-138324201D01*
X120975710Y-138690106D01*
X121092718Y-139039906D01*
X121216608Y-139271686D01*
X121505301Y-139396094D01*
X122630395Y-138271000D01*
X122989605Y-138271000D01*
X124114699Y-139396094D01*
X124403392Y-139271686D01*
X124567999Y-138941603D01*
X124665048Y-138585749D01*
X124690808Y-138217799D01*
X124644290Y-137851894D01*
X124527282Y-137502094D01*
X124403392Y-137270314D01*
X124114699Y-137145906D01*
X122989605Y-138271000D01*
X122630395Y-138271000D01*
X121505301Y-137145906D01*
X121216608Y-137270314D01*
X121052001Y-137600397D01*
X120954952Y-137956251D01*
X120929192Y-138324201D01*
X113982500Y-138324201D01*
X113982500Y-136377203D01*
X117920000Y-136377203D01*
X117920000Y-136664797D01*
X117976107Y-136946866D01*
X118086165Y-137212569D01*
X118245944Y-137451696D01*
X118449304Y-137655056D01*
X118688431Y-137814835D01*
X118954134Y-137924893D01*
X119236203Y-137981000D01*
X119523797Y-137981000D01*
X119805866Y-137924893D01*
X120071569Y-137814835D01*
X120310696Y-137655056D01*
X120514056Y-137451696D01*
X120673835Y-137212569D01*
X120775842Y-136966301D01*
X121684906Y-136966301D01*
X122810000Y-138091395D01*
X123935094Y-136966301D01*
X123810686Y-136677608D01*
X123480603Y-136513001D01*
X123124749Y-136415952D01*
X122756799Y-136390192D01*
X122390894Y-136436710D01*
X122041094Y-136553718D01*
X121809314Y-136677608D01*
X121684906Y-136966301D01*
X120775842Y-136966301D01*
X120783893Y-136946866D01*
X120840000Y-136664797D01*
X120840000Y-136377203D01*
X120783893Y-136095134D01*
X120673835Y-135829431D01*
X120514056Y-135590304D01*
X120310696Y-135386944D01*
X120071569Y-135227165D01*
X119805866Y-135117107D01*
X119523797Y-135061000D01*
X119236203Y-135061000D01*
X118954134Y-135117107D01*
X118688431Y-135227165D01*
X118449304Y-135386944D01*
X118245944Y-135590304D01*
X118086165Y-135829431D01*
X117976107Y-136095134D01*
X117920000Y-136377203D01*
X113982500Y-136377203D01*
X113982500Y-127474146D01*
X120530500Y-127474146D01*
X120530500Y-127747854D01*
X120583898Y-128016302D01*
X120688641Y-128269175D01*
X120840705Y-128496754D01*
X120974951Y-128631000D01*
X120840705Y-128765246D01*
X120688641Y-128992825D01*
X120583898Y-129245698D01*
X120530500Y-129514146D01*
X120530500Y-129787854D01*
X120583898Y-130056302D01*
X120688641Y-130309175D01*
X120840705Y-130536754D01*
X120974951Y-130671000D01*
X120840705Y-130805246D01*
X120688641Y-131032825D01*
X120583898Y-131285698D01*
X120530500Y-131554146D01*
X120530500Y-131827854D01*
X120583898Y-132096302D01*
X120688641Y-132349175D01*
X120840705Y-132576754D01*
X120974951Y-132711000D01*
X120840705Y-132845246D01*
X120688641Y-133072825D01*
X120583898Y-133325698D01*
X120530500Y-133594146D01*
X120530500Y-133867854D01*
X120583898Y-134136302D01*
X120688641Y-134389175D01*
X120840705Y-134616754D01*
X121034246Y-134810295D01*
X121261825Y-134962359D01*
X121514698Y-135067102D01*
X121783146Y-135120500D01*
X122056854Y-135120500D01*
X122325302Y-135067102D01*
X122578175Y-134962359D01*
X122805754Y-134810295D01*
X122999295Y-134616754D01*
X123100026Y-134466000D01*
X133694895Y-134466000D01*
X133731000Y-134469556D01*
X133767105Y-134466000D01*
X133875085Y-134455365D01*
X134013633Y-134413337D01*
X134141320Y-134345087D01*
X134253238Y-134253238D01*
X134276259Y-134225187D01*
X139759375Y-128742072D01*
X141058000Y-128742072D01*
X141182482Y-128729812D01*
X141302180Y-128693502D01*
X141412494Y-128634537D01*
X141509185Y-128555185D01*
X141588537Y-128458494D01*
X141647502Y-128348180D01*
X141683812Y-128228482D01*
X141696072Y-128104000D01*
X141696072Y-127989000D01*
X144235895Y-127989000D01*
X144272000Y-127992556D01*
X144308105Y-127989000D01*
X144416085Y-127978365D01*
X144554633Y-127936337D01*
X144682320Y-127868087D01*
X144794238Y-127776238D01*
X144817259Y-127748187D01*
X148492446Y-124073000D01*
X154021928Y-124073000D01*
X154034188Y-124197482D01*
X154070498Y-124317180D01*
X154129463Y-124427494D01*
X154208815Y-124524185D01*
X154305506Y-124603537D01*
X154415820Y-124662502D01*
X154535518Y-124698812D01*
X154660000Y-124711072D01*
X154974250Y-124708000D01*
X155133000Y-124549250D01*
X155133000Y-123825000D01*
X154183750Y-123825000D01*
X154025000Y-123983750D01*
X154021928Y-124073000D01*
X148492446Y-124073000D01*
X149242446Y-123323000D01*
X154021928Y-123323000D01*
X154025000Y-123412250D01*
X154183750Y-123571000D01*
X155133000Y-123571000D01*
X155133000Y-122846750D01*
X154974250Y-122688000D01*
X154660000Y-122684928D01*
X154535518Y-122697188D01*
X154415820Y-122733498D01*
X154305506Y-122792463D01*
X154208815Y-122871815D01*
X154129463Y-122968506D01*
X154070498Y-123078820D01*
X154034188Y-123198518D01*
X154021928Y-123323000D01*
X149242446Y-123323000D01*
X150545447Y-122020000D01*
X153565532Y-122020000D01*
X153578815Y-122036185D01*
X153675506Y-122115537D01*
X153785820Y-122174502D01*
X153905518Y-122210812D01*
X154030000Y-122223072D01*
X155530000Y-122223072D01*
X155654482Y-122210812D01*
X155774180Y-122174502D01*
X155884494Y-122115537D01*
X155981185Y-122036185D01*
X156060537Y-121939494D01*
X156119502Y-121829180D01*
X156155812Y-121709482D01*
X156168072Y-121585000D01*
X156168072Y-120985000D01*
X156155812Y-120860518D01*
X156119502Y-120740820D01*
X156070957Y-120650000D01*
X156119502Y-120559180D01*
X156155812Y-120439482D01*
X156168072Y-120315000D01*
X156168072Y-119715000D01*
X156155812Y-119590518D01*
X156119502Y-119470820D01*
X156070957Y-119380000D01*
X156119502Y-119289180D01*
X156155812Y-119169482D01*
X156168072Y-119045000D01*
X156168072Y-118445000D01*
X156155812Y-118320518D01*
X156119502Y-118200820D01*
X156070957Y-118110000D01*
X156119502Y-118019180D01*
X156155812Y-117899482D01*
X156168072Y-117775000D01*
X156168072Y-117175000D01*
X156155812Y-117050518D01*
X156119502Y-116930820D01*
X156070957Y-116840000D01*
X156119502Y-116749180D01*
X156155812Y-116629482D01*
X156168072Y-116505000D01*
X156168072Y-115905000D01*
X156155812Y-115780518D01*
X156119502Y-115660820D01*
X156070957Y-115570000D01*
X156111223Y-115494669D01*
X158585746Y-117969193D01*
X158608762Y-117997238D01*
X158720680Y-118089087D01*
X158848367Y-118157337D01*
X158861596Y-118161350D01*
X158840498Y-118200820D01*
X158804188Y-118320518D01*
X158791928Y-118445000D01*
X158795000Y-118459250D01*
X158953750Y-118618000D01*
X160053000Y-118618000D01*
X160053000Y-118598000D01*
X160307000Y-118598000D01*
X160307000Y-118618000D01*
X161406250Y-118618000D01*
X161565000Y-118459250D01*
X161568072Y-118445000D01*
X161555812Y-118320518D01*
X161519502Y-118200820D01*
X161470957Y-118110000D01*
X161519502Y-118019180D01*
X161555812Y-117899482D01*
X161568072Y-117775000D01*
X161568072Y-117175000D01*
X161555812Y-117050518D01*
X161519502Y-116930820D01*
X161470957Y-116840000D01*
X161519502Y-116749180D01*
X161555812Y-116629482D01*
X161568072Y-116505000D01*
X161568072Y-115905000D01*
X161555812Y-115780518D01*
X161519502Y-115660820D01*
X161470957Y-115570000D01*
X161519502Y-115479180D01*
X161555812Y-115359482D01*
X161568072Y-115235000D01*
X161568072Y-114635000D01*
X161555812Y-114510518D01*
X161519502Y-114390820D01*
X161470957Y-114300000D01*
X161519502Y-114209180D01*
X161555812Y-114089482D01*
X161568072Y-113965000D01*
X161568072Y-113365000D01*
X161555812Y-113240518D01*
X161519502Y-113120820D01*
X161470957Y-113030000D01*
X161519502Y-112939180D01*
X161555812Y-112819482D01*
X161568072Y-112695000D01*
X161565000Y-112680750D01*
X161406250Y-112522000D01*
X160307000Y-112522000D01*
X160307000Y-112542000D01*
X160053000Y-112542000D01*
X160053000Y-112522000D01*
X160033000Y-112522000D01*
X160033000Y-112268000D01*
X160053000Y-112268000D01*
X160053000Y-111618750D01*
X160307000Y-111618750D01*
X160307000Y-112268000D01*
X161406250Y-112268000D01*
X161565000Y-112109250D01*
X161568072Y-112095000D01*
X161555812Y-111970518D01*
X161519502Y-111850820D01*
X161460537Y-111740506D01*
X161381185Y-111643815D01*
X161284494Y-111564463D01*
X161174180Y-111505498D01*
X161054482Y-111469188D01*
X160930000Y-111456928D01*
X160465750Y-111460000D01*
X160307000Y-111618750D01*
X160053000Y-111618750D01*
X159894250Y-111460000D01*
X159430000Y-111456928D01*
X159305518Y-111469188D01*
X159231000Y-111491793D01*
X159231000Y-106716105D01*
X159234556Y-106680000D01*
X159220365Y-106535915D01*
X159178337Y-106397368D01*
X159178337Y-106397367D01*
X159110087Y-106269680D01*
X159066117Y-106216103D01*
X159041253Y-106185806D01*
X159041250Y-106185803D01*
X159018237Y-106157762D01*
X158990197Y-106134750D01*
X157009258Y-104153812D01*
X156986238Y-104125762D01*
X156874320Y-104033913D01*
X156746633Y-103965663D01*
X156608085Y-103923635D01*
X156500105Y-103913000D01*
X156464000Y-103909444D01*
X156427895Y-103913000D01*
X140004447Y-103913000D01*
X138956157Y-102864710D01*
X139122632Y-102753475D01*
X139329475Y-102546632D01*
X139446000Y-102372240D01*
X139562525Y-102546632D01*
X139769368Y-102753475D01*
X140012589Y-102915990D01*
X140282842Y-103027932D01*
X140569740Y-103085000D01*
X140862260Y-103085000D01*
X141149158Y-103027932D01*
X141419411Y-102915990D01*
X141662632Y-102753475D01*
X141869475Y-102546632D01*
X141986000Y-102372240D01*
X142102525Y-102546632D01*
X142309368Y-102753475D01*
X142552589Y-102915990D01*
X142822842Y-103027932D01*
X143109740Y-103085000D01*
X143402260Y-103085000D01*
X143689158Y-103027932D01*
X143959411Y-102915990D01*
X144202632Y-102753475D01*
X144409475Y-102546632D01*
X144571990Y-102303411D01*
X144683932Y-102033158D01*
X144741000Y-101746260D01*
X144741000Y-101453740D01*
X144683932Y-101166842D01*
X144571990Y-100896589D01*
X144474043Y-100750000D01*
X145831928Y-100750000D01*
X145831928Y-102450000D01*
X145844188Y-102574482D01*
X145880498Y-102694180D01*
X145939463Y-102804494D01*
X146018815Y-102901185D01*
X146115506Y-102980537D01*
X146225820Y-103039502D01*
X146345518Y-103075812D01*
X146470000Y-103088072D01*
X148170000Y-103088072D01*
X148294482Y-103075812D01*
X148414180Y-103039502D01*
X148524494Y-102980537D01*
X148621185Y-102901185D01*
X148700537Y-102804494D01*
X148759502Y-102694180D01*
X148781513Y-102621620D01*
X148913368Y-102753475D01*
X149156589Y-102915990D01*
X149426842Y-103027932D01*
X149713740Y-103085000D01*
X150006260Y-103085000D01*
X150293158Y-103027932D01*
X150563411Y-102915990D01*
X150806632Y-102753475D01*
X151013475Y-102546632D01*
X151130000Y-102372240D01*
X151246525Y-102546632D01*
X151453368Y-102753475D01*
X151696589Y-102915990D01*
X151966842Y-103027932D01*
X152253740Y-103085000D01*
X152546260Y-103085000D01*
X152833158Y-103027932D01*
X153103411Y-102915990D01*
X153346632Y-102753475D01*
X153553475Y-102546632D01*
X153670000Y-102372240D01*
X153786525Y-102546632D01*
X153993368Y-102753475D01*
X154236589Y-102915990D01*
X154506842Y-103027932D01*
X154793740Y-103085000D01*
X155086260Y-103085000D01*
X155373158Y-103027932D01*
X155643411Y-102915990D01*
X155886632Y-102753475D01*
X156093475Y-102546632D01*
X156210000Y-102372240D01*
X156326525Y-102546632D01*
X156533368Y-102753475D01*
X156776589Y-102915990D01*
X157046842Y-103027932D01*
X157333740Y-103085000D01*
X157626260Y-103085000D01*
X157913158Y-103027932D01*
X158183411Y-102915990D01*
X158426632Y-102753475D01*
X158633475Y-102546632D01*
X158750000Y-102372240D01*
X158866525Y-102546632D01*
X159073368Y-102753475D01*
X159316589Y-102915990D01*
X159586842Y-103027932D01*
X159873740Y-103085000D01*
X160166260Y-103085000D01*
X160453158Y-103027932D01*
X160723411Y-102915990D01*
X160966632Y-102753475D01*
X161173475Y-102546632D01*
X161290000Y-102372240D01*
X161406525Y-102546632D01*
X161613368Y-102753475D01*
X161856589Y-102915990D01*
X162126842Y-103027932D01*
X162413740Y-103085000D01*
X162706260Y-103085000D01*
X162993158Y-103027932D01*
X163263411Y-102915990D01*
X163506632Y-102753475D01*
X163713475Y-102546632D01*
X163830000Y-102372240D01*
X163946525Y-102546632D01*
X164153368Y-102753475D01*
X164396589Y-102915990D01*
X164666842Y-103027932D01*
X164953740Y-103085000D01*
X165246260Y-103085000D01*
X165533158Y-103027932D01*
X165803411Y-102915990D01*
X166046632Y-102753475D01*
X166253475Y-102546632D01*
X166415990Y-102303411D01*
X166527932Y-102033158D01*
X166585000Y-101746260D01*
X166585000Y-101453740D01*
X166527932Y-101166842D01*
X166415990Y-100896589D01*
X166253475Y-100653368D01*
X166046632Y-100446525D01*
X165803411Y-100284010D01*
X165533158Y-100172068D01*
X165246260Y-100115000D01*
X164953740Y-100115000D01*
X164666842Y-100172068D01*
X164396589Y-100284010D01*
X164153368Y-100446525D01*
X163946525Y-100653368D01*
X163830000Y-100827760D01*
X163713475Y-100653368D01*
X163506632Y-100446525D01*
X163263411Y-100284010D01*
X162993158Y-100172068D01*
X162706260Y-100115000D01*
X162413740Y-100115000D01*
X162126842Y-100172068D01*
X161856589Y-100284010D01*
X161613368Y-100446525D01*
X161406525Y-100653368D01*
X161290000Y-100827760D01*
X161173475Y-100653368D01*
X160966632Y-100446525D01*
X160723411Y-100284010D01*
X160453158Y-100172068D01*
X160166260Y-100115000D01*
X159873740Y-100115000D01*
X159586842Y-100172068D01*
X159316589Y-100284010D01*
X159073368Y-100446525D01*
X158866525Y-100653368D01*
X158750000Y-100827760D01*
X158633475Y-100653368D01*
X158426632Y-100446525D01*
X158183411Y-100284010D01*
X157913158Y-100172068D01*
X157626260Y-100115000D01*
X157333740Y-100115000D01*
X157046842Y-100172068D01*
X156776589Y-100284010D01*
X156533368Y-100446525D01*
X156326525Y-100653368D01*
X156210000Y-100827760D01*
X156093475Y-100653368D01*
X155886632Y-100446525D01*
X155643411Y-100284010D01*
X155373158Y-100172068D01*
X155086260Y-100115000D01*
X154793740Y-100115000D01*
X154506842Y-100172068D01*
X154236589Y-100284010D01*
X153993368Y-100446525D01*
X153786525Y-100653368D01*
X153670000Y-100827760D01*
X153553475Y-100653368D01*
X153346632Y-100446525D01*
X153103411Y-100284010D01*
X152833158Y-100172068D01*
X152546260Y-100115000D01*
X152253740Y-100115000D01*
X151966842Y-100172068D01*
X151696589Y-100284010D01*
X151453368Y-100446525D01*
X151246525Y-100653368D01*
X151130000Y-100827760D01*
X151013475Y-100653368D01*
X150806632Y-100446525D01*
X150563411Y-100284010D01*
X150293158Y-100172068D01*
X150006260Y-100115000D01*
X149713740Y-100115000D01*
X149426842Y-100172068D01*
X149156589Y-100284010D01*
X148913368Y-100446525D01*
X148781513Y-100578380D01*
X148759502Y-100505820D01*
X148700537Y-100395506D01*
X148621185Y-100298815D01*
X148524494Y-100219463D01*
X148414180Y-100160498D01*
X148294482Y-100124188D01*
X148170000Y-100111928D01*
X146470000Y-100111928D01*
X146345518Y-100124188D01*
X146225820Y-100160498D01*
X146115506Y-100219463D01*
X146018815Y-100298815D01*
X145939463Y-100395506D01*
X145880498Y-100505820D01*
X145844188Y-100625518D01*
X145831928Y-100750000D01*
X144474043Y-100750000D01*
X144409475Y-100653368D01*
X144202632Y-100446525D01*
X143959411Y-100284010D01*
X143689158Y-100172068D01*
X143402260Y-100115000D01*
X143109740Y-100115000D01*
X142822842Y-100172068D01*
X142552589Y-100284010D01*
X142309368Y-100446525D01*
X142102525Y-100653368D01*
X141986000Y-100827760D01*
X141869475Y-100653368D01*
X141662632Y-100446525D01*
X141419411Y-100284010D01*
X141149158Y-100172068D01*
X140862260Y-100115000D01*
X140569740Y-100115000D01*
X140282842Y-100172068D01*
X140012589Y-100284010D01*
X139769368Y-100446525D01*
X139562525Y-100653368D01*
X139446000Y-100827760D01*
X139329475Y-100653368D01*
X139122632Y-100446525D01*
X138879411Y-100284010D01*
X138609158Y-100172068D01*
X138322260Y-100115000D01*
X138029740Y-100115000D01*
X137742842Y-100172068D01*
X137472589Y-100284010D01*
X137229368Y-100446525D01*
X137022525Y-100653368D01*
X136906000Y-100827760D01*
X136789475Y-100653368D01*
X136582632Y-100446525D01*
X136339411Y-100284010D01*
X136069158Y-100172068D01*
X135782260Y-100115000D01*
X135489740Y-100115000D01*
X135202842Y-100172068D01*
X134932589Y-100284010D01*
X134689368Y-100446525D01*
X134482525Y-100653368D01*
X134366000Y-100827760D01*
X134249475Y-100653368D01*
X134042632Y-100446525D01*
X133799411Y-100284010D01*
X133529158Y-100172068D01*
X133242260Y-100115000D01*
X132949740Y-100115000D01*
X132662842Y-100172068D01*
X132392589Y-100284010D01*
X132149368Y-100446525D01*
X131942525Y-100653368D01*
X131826000Y-100827760D01*
X131709475Y-100653368D01*
X131502632Y-100446525D01*
X131259411Y-100284010D01*
X130989158Y-100172068D01*
X130702260Y-100115000D01*
X130409740Y-100115000D01*
X130122842Y-100172068D01*
X129852589Y-100284010D01*
X129609368Y-100446525D01*
X129402525Y-100653368D01*
X129280805Y-100835534D01*
X129211178Y-100718645D01*
X129016269Y-100502412D01*
X128782920Y-100328359D01*
X128520099Y-100203175D01*
X128372890Y-100158524D01*
X128143000Y-100279845D01*
X128143000Y-101473000D01*
X128163000Y-101473000D01*
X128163000Y-101727000D01*
X128143000Y-101727000D01*
X128143000Y-102920155D01*
X128372890Y-103041476D01*
X128520099Y-102996825D01*
X128782920Y-102871641D01*
X129016269Y-102697588D01*
X129211178Y-102481355D01*
X129280805Y-102364466D01*
X129402525Y-102546632D01*
X129609368Y-102753475D01*
X129821000Y-102894883D01*
X129821000Y-103341895D01*
X129817444Y-103378000D01*
X129821000Y-103414104D01*
X129831635Y-103522084D01*
X129873663Y-103660632D01*
X129941913Y-103788319D01*
X130033762Y-103900237D01*
X130061808Y-103923254D01*
X136614746Y-110476193D01*
X136637762Y-110504238D01*
X136749680Y-110596087D01*
X136877367Y-110664337D01*
X137015915Y-110706365D01*
X137123895Y-110717000D01*
X137123904Y-110717000D01*
X137159999Y-110720555D01*
X137196094Y-110717000D01*
X155397554Y-110717000D01*
X155475001Y-110794447D01*
X155475001Y-111456928D01*
X154030000Y-111456928D01*
X153905518Y-111469188D01*
X153785820Y-111505498D01*
X153675506Y-111564463D01*
X153578815Y-111643815D01*
X153565532Y-111660000D01*
X146721105Y-111660000D01*
X146685000Y-111656444D01*
X146540915Y-111670635D01*
X146402366Y-111712663D01*
X146274680Y-111780913D01*
X146162762Y-111872762D01*
X146139746Y-111900807D01*
X140411554Y-117629000D01*
X139482094Y-117629000D01*
X139445999Y-117625445D01*
X139409904Y-117629000D01*
X139409895Y-117629000D01*
X139301915Y-117639635D01*
X139163367Y-117681663D01*
X139035680Y-117749913D01*
X138923762Y-117841762D01*
X138900746Y-117869807D01*
X138420046Y-118350507D01*
X138371411Y-118318010D01*
X138101158Y-118206068D01*
X137814260Y-118149000D01*
X137521740Y-118149000D01*
X137234842Y-118206068D01*
X136964589Y-118318010D01*
X136721368Y-118480525D01*
X136514525Y-118687368D01*
X136373117Y-118899000D01*
X131227105Y-118899000D01*
X131191000Y-118895444D01*
X131046915Y-118909635D01*
X130908366Y-118951663D01*
X130799484Y-119009862D01*
X130780680Y-119019913D01*
X130668762Y-119111762D01*
X130645746Y-119139807D01*
X124398781Y-125386773D01*
X124358175Y-125359641D01*
X124105302Y-125254898D01*
X123836854Y-125201500D01*
X123563146Y-125201500D01*
X123294698Y-125254898D01*
X123041825Y-125359641D01*
X122814246Y-125511705D01*
X122620705Y-125705246D01*
X122468641Y-125932825D01*
X122363898Y-126185698D01*
X122344568Y-126282878D01*
X122325302Y-126274898D01*
X122056854Y-126221500D01*
X121783146Y-126221500D01*
X121514698Y-126274898D01*
X121261825Y-126379641D01*
X121034246Y-126531705D01*
X120840705Y-126725246D01*
X120688641Y-126952825D01*
X120583898Y-127205698D01*
X120530500Y-127474146D01*
X113982500Y-127474146D01*
X113982500Y-123677203D01*
X117920000Y-123677203D01*
X117920000Y-123964797D01*
X117976107Y-124246866D01*
X118086165Y-124512569D01*
X118245944Y-124751696D01*
X118449304Y-124955056D01*
X118688431Y-125114835D01*
X118954134Y-125224893D01*
X119236203Y-125281000D01*
X119523797Y-125281000D01*
X119805866Y-125224893D01*
X120071569Y-125114835D01*
X120310696Y-124955056D01*
X120514056Y-124751696D01*
X120673835Y-124512569D01*
X120783893Y-124246866D01*
X120840000Y-123964797D01*
X120840000Y-123677203D01*
X120783893Y-123395134D01*
X120775843Y-123375699D01*
X121684906Y-123375699D01*
X121809314Y-123664392D01*
X122139397Y-123828999D01*
X122495251Y-123926048D01*
X122863201Y-123951808D01*
X123229106Y-123905290D01*
X123578906Y-123788282D01*
X123810686Y-123664392D01*
X123935094Y-123375699D01*
X122810000Y-122250605D01*
X121684906Y-123375699D01*
X120775843Y-123375699D01*
X120673835Y-123129431D01*
X120514056Y-122890304D01*
X120310696Y-122686944D01*
X120071569Y-122527165D01*
X119805866Y-122417107D01*
X119523797Y-122361000D01*
X119236203Y-122361000D01*
X118954134Y-122417107D01*
X118688431Y-122527165D01*
X118449304Y-122686944D01*
X118245944Y-122890304D01*
X118086165Y-123129431D01*
X117976107Y-123395134D01*
X117920000Y-123677203D01*
X113982500Y-123677203D01*
X113982500Y-122124201D01*
X120929192Y-122124201D01*
X120975710Y-122490106D01*
X121092718Y-122839906D01*
X121216608Y-123071686D01*
X121505301Y-123196094D01*
X122630395Y-122071000D01*
X122989605Y-122071000D01*
X124114699Y-123196094D01*
X124403392Y-123071686D01*
X124567999Y-122741603D01*
X124665048Y-122385749D01*
X124690808Y-122017799D01*
X124644290Y-121651894D01*
X124527282Y-121302094D01*
X124403392Y-121070314D01*
X124114699Y-120945906D01*
X122989605Y-122071000D01*
X122630395Y-122071000D01*
X121505301Y-120945906D01*
X121216608Y-121070314D01*
X121052001Y-121400397D01*
X120954952Y-121756251D01*
X120929192Y-122124201D01*
X113982500Y-122124201D01*
X113982500Y-120766301D01*
X121684906Y-120766301D01*
X122810000Y-121891395D01*
X123935094Y-120766301D01*
X123810686Y-120477608D01*
X123480603Y-120313001D01*
X123124749Y-120215952D01*
X122756799Y-120190192D01*
X122390894Y-120236710D01*
X122041094Y-120353718D01*
X121809314Y-120477608D01*
X121684906Y-120766301D01*
X113982500Y-120766301D01*
X113982500Y-99758500D01*
X115534261Y-99758500D01*
X115401513Y-99847199D01*
G36*
X150992525Y-142424632D02*
G01*
X151199368Y-142631475D01*
X151442589Y-142793990D01*
X151712842Y-142905932D01*
X151999740Y-142963000D01*
X152292260Y-142963000D01*
X152579158Y-142905932D01*
X152849411Y-142793990D01*
X153092632Y-142631475D01*
X153195107Y-142529000D01*
X154590574Y-142529000D01*
X154512815Y-142592815D01*
X154433463Y-142689506D01*
X154374498Y-142799820D01*
X154338188Y-142919518D01*
X154325928Y-143044000D01*
X154325928Y-143292682D01*
X154238906Y-143301253D01*
X154053233Y-143357576D01*
X153882116Y-143449040D01*
X153732130Y-143572130D01*
X153701289Y-143609710D01*
X152245714Y-145065285D01*
X152208130Y-145096130D01*
X152177285Y-145133715D01*
X152058000Y-145253000D01*
X140626647Y-145253000D01*
X140664502Y-145182180D01*
X140700812Y-145062482D01*
X140713072Y-144938000D01*
X140710000Y-144623750D01*
X140551250Y-144465000D01*
X139827000Y-144465000D01*
X139827000Y-144485000D01*
X139573000Y-144485000D01*
X139573000Y-144465000D01*
X138848750Y-144465000D01*
X138690000Y-144623750D01*
X138686928Y-144938000D01*
X138699188Y-145062482D01*
X138735498Y-145182180D01*
X138792061Y-145288000D01*
X138735498Y-145393820D01*
X138699188Y-145513518D01*
X138686928Y-145638000D01*
X138686928Y-146838000D01*
X138699188Y-146962482D01*
X138715001Y-147014610D01*
X138715000Y-148744893D01*
X138546525Y-148913368D01*
X138430000Y-149087760D01*
X138313475Y-148913368D01*
X138145000Y-148744893D01*
X138145000Y-143918000D01*
X138325000Y-143738000D01*
X138686928Y-143738000D01*
X138690000Y-144052250D01*
X138848750Y-144211000D01*
X139573000Y-144211000D01*
X139573000Y-143261750D01*
X139827000Y-143261750D01*
X139827000Y-144211000D01*
X140551250Y-144211000D01*
X140710000Y-144052250D01*
X140713072Y-143738000D01*
X140700812Y-143613518D01*
X140664502Y-143493820D01*
X140605537Y-143383506D01*
X140526185Y-143286815D01*
X140429494Y-143207463D01*
X140319180Y-143148498D01*
X140199482Y-143112188D01*
X140075000Y-143099928D01*
X139985750Y-143103000D01*
X139827000Y-143261750D01*
X139573000Y-143261750D01*
X139414250Y-143103000D01*
X139325000Y-143099928D01*
X139200518Y-143112188D01*
X139080820Y-143148498D01*
X138970506Y-143207463D01*
X138873815Y-143286815D01*
X138794463Y-143383506D01*
X138735498Y-143493820D01*
X138699188Y-143613518D01*
X138686928Y-143738000D01*
X138325000Y-143738000D01*
X139600001Y-142463000D01*
X145593379Y-142463000D01*
X145626498Y-142572180D01*
X145685463Y-142682494D01*
X145764815Y-142779185D01*
X145861506Y-142858537D01*
X145971820Y-142917502D01*
X146091518Y-142953812D01*
X146216000Y-142966072D01*
X147916000Y-142966072D01*
X148040482Y-142953812D01*
X148160180Y-142917502D01*
X148270494Y-142858537D01*
X148367185Y-142779185D01*
X148446537Y-142682494D01*
X148505502Y-142572180D01*
X148527513Y-142499620D01*
X148659368Y-142631475D01*
X148902589Y-142793990D01*
X149172842Y-142905932D01*
X149459740Y-142963000D01*
X149752260Y-142963000D01*
X150039158Y-142905932D01*
X150309411Y-142793990D01*
X150552632Y-142631475D01*
X150759475Y-142424632D01*
X150876000Y-142250240D01*
X150992525Y-142424632D01*
G37*
X150992525Y-142424632D02*
X151199368Y-142631475D01*
X151442589Y-142793990D01*
X151712842Y-142905932D01*
X151999740Y-142963000D01*
X152292260Y-142963000D01*
X152579158Y-142905932D01*
X152849411Y-142793990D01*
X153092632Y-142631475D01*
X153195107Y-142529000D01*
X154590574Y-142529000D01*
X154512815Y-142592815D01*
X154433463Y-142689506D01*
X154374498Y-142799820D01*
X154338188Y-142919518D01*
X154325928Y-143044000D01*
X154325928Y-143292682D01*
X154238906Y-143301253D01*
X154053233Y-143357576D01*
X153882116Y-143449040D01*
X153732130Y-143572130D01*
X153701289Y-143609710D01*
X152245714Y-145065285D01*
X152208130Y-145096130D01*
X152177285Y-145133715D01*
X152058000Y-145253000D01*
X140626647Y-145253000D01*
X140664502Y-145182180D01*
X140700812Y-145062482D01*
X140713072Y-144938000D01*
X140710000Y-144623750D01*
X140551250Y-144465000D01*
X139827000Y-144465000D01*
X139827000Y-144485000D01*
X139573000Y-144485000D01*
X139573000Y-144465000D01*
X138848750Y-144465000D01*
X138690000Y-144623750D01*
X138686928Y-144938000D01*
X138699188Y-145062482D01*
X138735498Y-145182180D01*
X138792061Y-145288000D01*
X138735498Y-145393820D01*
X138699188Y-145513518D01*
X138686928Y-145638000D01*
X138686928Y-146838000D01*
X138699188Y-146962482D01*
X138715001Y-147014610D01*
X138715000Y-148744893D01*
X138546525Y-148913368D01*
X138430000Y-149087760D01*
X138313475Y-148913368D01*
X138145000Y-148744893D01*
X138145000Y-143918000D01*
X138325000Y-143738000D01*
X138686928Y-143738000D01*
X138690000Y-144052250D01*
X138848750Y-144211000D01*
X139573000Y-144211000D01*
X139573000Y-143261750D01*
X139827000Y-143261750D01*
X139827000Y-144211000D01*
X140551250Y-144211000D01*
X140710000Y-144052250D01*
X140713072Y-143738000D01*
X140700812Y-143613518D01*
X140664502Y-143493820D01*
X140605537Y-143383506D01*
X140526185Y-143286815D01*
X140429494Y-143207463D01*
X140319180Y-143148498D01*
X140199482Y-143112188D01*
X140075000Y-143099928D01*
X139985750Y-143103000D01*
X139827000Y-143261750D01*
X139573000Y-143261750D01*
X139414250Y-143103000D01*
X139325000Y-143099928D01*
X139200518Y-143112188D01*
X139080820Y-143148498D01*
X138970506Y-143207463D01*
X138873815Y-143286815D01*
X138794463Y-143383506D01*
X138735498Y-143493820D01*
X138699188Y-143613518D01*
X138686928Y-143738000D01*
X138325000Y-143738000D01*
X139600001Y-142463000D01*
X145593379Y-142463000D01*
X145626498Y-142572180D01*
X145685463Y-142682494D01*
X145764815Y-142779185D01*
X145861506Y-142858537D01*
X145971820Y-142917502D01*
X146091518Y-142953812D01*
X146216000Y-142966072D01*
X147916000Y-142966072D01*
X148040482Y-142953812D01*
X148160180Y-142917502D01*
X148270494Y-142858537D01*
X148367185Y-142779185D01*
X148446537Y-142682494D01*
X148505502Y-142572180D01*
X148527513Y-142499620D01*
X148659368Y-142631475D01*
X148902589Y-142793990D01*
X149172842Y-142905932D01*
X149459740Y-142963000D01*
X149752260Y-142963000D01*
X150039158Y-142905932D01*
X150309411Y-142793990D01*
X150552632Y-142631475D01*
X150759475Y-142424632D01*
X150876000Y-142250240D01*
X150992525Y-142424632D01*
G36*
X158791928Y-121585000D02*
G01*
X158804188Y-121709482D01*
X158840498Y-121829180D01*
X158899463Y-121939494D01*
X158978815Y-122036185D01*
X159075506Y-122115537D01*
X159185820Y-122174502D01*
X159305518Y-122210812D01*
X159430000Y-122223072D01*
X159879190Y-122223072D01*
X159986906Y-122255747D01*
X160131620Y-122270000D01*
X161263000Y-122270000D01*
X161708652Y-122715652D01*
X161649820Y-122733498D01*
X161544000Y-122790061D01*
X161438180Y-122733498D01*
X161318482Y-122697188D01*
X161194000Y-122684928D01*
X160879750Y-122688000D01*
X160721000Y-122846750D01*
X160721000Y-123571000D01*
X160741000Y-123571000D01*
X160741000Y-123825000D01*
X160721000Y-123825000D01*
X160721000Y-124549250D01*
X160879750Y-124708000D01*
X161194000Y-124711072D01*
X161318482Y-124698812D01*
X161438180Y-124662502D01*
X161544000Y-124605939D01*
X161649820Y-124662502D01*
X161769518Y-124698812D01*
X161829001Y-124704670D01*
X161829000Y-139799999D01*
X158580796Y-143048204D01*
X158589812Y-143018482D01*
X158602072Y-142894000D01*
X158599000Y-142779750D01*
X158440250Y-142621000D01*
X157591000Y-142621000D01*
X157591000Y-142641000D01*
X157337000Y-142641000D01*
X157337000Y-142621000D01*
X156487750Y-142621000D01*
X156460598Y-142648152D01*
X156415185Y-142592815D01*
X156318494Y-142513463D01*
X156282082Y-142494000D01*
X156318494Y-142474537D01*
X156415185Y-142395185D01*
X156460598Y-142339848D01*
X156487750Y-142367000D01*
X157337000Y-142367000D01*
X157337000Y-141617750D01*
X157591000Y-141617750D01*
X157591000Y-142367000D01*
X158440250Y-142367000D01*
X158599000Y-142208250D01*
X158602072Y-142094000D01*
X158589812Y-141969518D01*
X158553502Y-141849820D01*
X158494537Y-141739506D01*
X158415185Y-141642815D01*
X158318494Y-141563463D01*
X158208180Y-141504498D01*
X158088482Y-141468188D01*
X157964000Y-141455928D01*
X157749750Y-141459000D01*
X157591000Y-141617750D01*
X157337000Y-141617750D01*
X157178250Y-141459000D01*
X156964000Y-141455928D01*
X156839518Y-141468188D01*
X156719820Y-141504498D01*
X156609506Y-141563463D01*
X156602072Y-141569564D01*
X156602072Y-141144000D01*
X156589812Y-141019518D01*
X156553502Y-140899820D01*
X156494537Y-140789506D01*
X156415185Y-140692815D01*
X156318494Y-140613463D01*
X156208180Y-140554498D01*
X156088482Y-140518188D01*
X155964000Y-140505928D01*
X154964000Y-140505928D01*
X154839518Y-140518188D01*
X154719820Y-140554498D01*
X154711397Y-140559000D01*
X153317938Y-140559000D01*
X153299475Y-140531368D01*
X153092632Y-140324525D01*
X152849411Y-140162010D01*
X152579158Y-140050068D01*
X152292260Y-139993000D01*
X151999740Y-139993000D01*
X151712842Y-140050068D01*
X151442589Y-140162010D01*
X151199368Y-140324525D01*
X150992525Y-140531368D01*
X150876000Y-140705760D01*
X150759475Y-140531368D01*
X150591000Y-140362893D01*
X150591000Y-137568000D01*
X158208290Y-129950711D01*
X158245870Y-129919870D01*
X158368960Y-129769884D01*
X158460424Y-129598767D01*
X158516747Y-129413094D01*
X158531000Y-129268380D01*
X158535765Y-129220000D01*
X158531000Y-129171620D01*
X158531000Y-124073000D01*
X159355928Y-124073000D01*
X159368188Y-124197482D01*
X159404498Y-124317180D01*
X159463463Y-124427494D01*
X159542815Y-124524185D01*
X159639506Y-124603537D01*
X159749820Y-124662502D01*
X159869518Y-124698812D01*
X159994000Y-124711072D01*
X160308250Y-124708000D01*
X160467000Y-124549250D01*
X160467000Y-123825000D01*
X159517750Y-123825000D01*
X159359000Y-123983750D01*
X159355928Y-124073000D01*
X158531000Y-124073000D01*
X158531000Y-123812379D01*
X158535765Y-123763999D01*
X158531000Y-123715619D01*
X158531000Y-123323000D01*
X159355928Y-123323000D01*
X159359000Y-123412250D01*
X159517750Y-123571000D01*
X160467000Y-123571000D01*
X160467000Y-122846750D01*
X160308250Y-122688000D01*
X159994000Y-122684928D01*
X159869518Y-122697188D01*
X159749820Y-122733498D01*
X159639506Y-122792463D01*
X159542815Y-122871815D01*
X159463463Y-122968506D01*
X159404498Y-123078820D01*
X159368188Y-123198518D01*
X159355928Y-123323000D01*
X158531000Y-123323000D01*
X158531000Y-121500000D01*
X158791928Y-121239073D01*
X158791928Y-121585000D01*
G37*
X158791928Y-121585000D02*
X158804188Y-121709482D01*
X158840498Y-121829180D01*
X158899463Y-121939494D01*
X158978815Y-122036185D01*
X159075506Y-122115537D01*
X159185820Y-122174502D01*
X159305518Y-122210812D01*
X159430000Y-122223072D01*
X159879190Y-122223072D01*
X159986906Y-122255747D01*
X160131620Y-122270000D01*
X161263000Y-122270000D01*
X161708652Y-122715652D01*
X161649820Y-122733498D01*
X161544000Y-122790061D01*
X161438180Y-122733498D01*
X161318482Y-122697188D01*
X161194000Y-122684928D01*
X160879750Y-122688000D01*
X160721000Y-122846750D01*
X160721000Y-123571000D01*
X160741000Y-123571000D01*
X160741000Y-123825000D01*
X160721000Y-123825000D01*
X160721000Y-124549250D01*
X160879750Y-124708000D01*
X161194000Y-124711072D01*
X161318482Y-124698812D01*
X161438180Y-124662502D01*
X161544000Y-124605939D01*
X161649820Y-124662502D01*
X161769518Y-124698812D01*
X161829001Y-124704670D01*
X161829000Y-139799999D01*
X158580796Y-143048204D01*
X158589812Y-143018482D01*
X158602072Y-142894000D01*
X158599000Y-142779750D01*
X158440250Y-142621000D01*
X157591000Y-142621000D01*
X157591000Y-142641000D01*
X157337000Y-142641000D01*
X157337000Y-142621000D01*
X156487750Y-142621000D01*
X156460598Y-142648152D01*
X156415185Y-142592815D01*
X156318494Y-142513463D01*
X156282082Y-142494000D01*
X156318494Y-142474537D01*
X156415185Y-142395185D01*
X156460598Y-142339848D01*
X156487750Y-142367000D01*
X157337000Y-142367000D01*
X157337000Y-141617750D01*
X157591000Y-141617750D01*
X157591000Y-142367000D01*
X158440250Y-142367000D01*
X158599000Y-142208250D01*
X158602072Y-142094000D01*
X158589812Y-141969518D01*
X158553502Y-141849820D01*
X158494537Y-141739506D01*
X158415185Y-141642815D01*
X158318494Y-141563463D01*
X158208180Y-141504498D01*
X158088482Y-141468188D01*
X157964000Y-141455928D01*
X157749750Y-141459000D01*
X157591000Y-141617750D01*
X157337000Y-141617750D01*
X157178250Y-141459000D01*
X156964000Y-141455928D01*
X156839518Y-141468188D01*
X156719820Y-141504498D01*
X156609506Y-141563463D01*
X156602072Y-141569564D01*
X156602072Y-141144000D01*
X156589812Y-141019518D01*
X156553502Y-140899820D01*
X156494537Y-140789506D01*
X156415185Y-140692815D01*
X156318494Y-140613463D01*
X156208180Y-140554498D01*
X156088482Y-140518188D01*
X155964000Y-140505928D01*
X154964000Y-140505928D01*
X154839518Y-140518188D01*
X154719820Y-140554498D01*
X154711397Y-140559000D01*
X153317938Y-140559000D01*
X153299475Y-140531368D01*
X153092632Y-140324525D01*
X152849411Y-140162010D01*
X152579158Y-140050068D01*
X152292260Y-139993000D01*
X151999740Y-139993000D01*
X151712842Y-140050068D01*
X151442589Y-140162010D01*
X151199368Y-140324525D01*
X150992525Y-140531368D01*
X150876000Y-140705760D01*
X150759475Y-140531368D01*
X150591000Y-140362893D01*
X150591000Y-137568000D01*
X158208290Y-129950711D01*
X158245870Y-129919870D01*
X158368960Y-129769884D01*
X158460424Y-129598767D01*
X158516747Y-129413094D01*
X158531000Y-129268380D01*
X158535765Y-129220000D01*
X158531000Y-129171620D01*
X158531000Y-124073000D01*
X159355928Y-124073000D01*
X159368188Y-124197482D01*
X159404498Y-124317180D01*
X159463463Y-124427494D01*
X159542815Y-124524185D01*
X159639506Y-124603537D01*
X159749820Y-124662502D01*
X159869518Y-124698812D01*
X159994000Y-124711072D01*
X160308250Y-124708000D01*
X160467000Y-124549250D01*
X160467000Y-123825000D01*
X159517750Y-123825000D01*
X159359000Y-123983750D01*
X159355928Y-124073000D01*
X158531000Y-124073000D01*
X158531000Y-123812379D01*
X158535765Y-123763999D01*
X158531000Y-123715619D01*
X158531000Y-123323000D01*
X159355928Y-123323000D01*
X159359000Y-123412250D01*
X159517750Y-123571000D01*
X160467000Y-123571000D01*
X160467000Y-122846750D01*
X160308250Y-122688000D01*
X159994000Y-122684928D01*
X159869518Y-122697188D01*
X159749820Y-122733498D01*
X159639506Y-122792463D01*
X159542815Y-122871815D01*
X159463463Y-122968506D01*
X159404498Y-123078820D01*
X159368188Y-123198518D01*
X159355928Y-123323000D01*
X158531000Y-123323000D01*
X158531000Y-121500000D01*
X158791928Y-121239073D01*
X158791928Y-121585000D01*
%TD*%
M02*
