%TF.GenerationSoftware,KiCad,Pcbnew,(5.1.6-0-10_14)*%
%TF.CreationDate,2022-12-11T12:30:35+09:00*%
%TF.ProjectId,MuxReadoutBoard,4d757852-6561-4646-9f75-74426f617264,rev?*%
%TF.SameCoordinates,Original*%
%TF.FileFunction,Soldermask,Bot*%
%TF.FilePolarity,Negative*%
%FSLAX46Y46*%
G04 Gerber Fmt 4.6, Leading zero omitted, Abs format (unit mm)*
G04 Created by KiCad (PCBNEW (5.1.6-0-10_14)) date 2022-12-11 12:30:35*
%MOMM*%
%LPD*%
G01*
G04 APERTURE LIST*
%ADD10R,1.100000X0.900000*%
%ADD11R,1.300000X0.850000*%
%ADD12C,2.575000*%
%ADD13C,1.750000*%
%ADD14C,1.609000*%
%ADD15O,1.800000X1.800000*%
%ADD16R,1.800000X1.800000*%
%ADD17R,1.600000X0.700000*%
%ADD18R,0.850000X1.300000*%
G04 APERTURE END LIST*
D10*
%TO.C,U2*%
X158226000Y-140716000D03*
X156226000Y-139766000D03*
X156226000Y-141666000D03*
%TD*%
D11*
%TO.C,C1*%
X163134000Y-123698000D03*
X165034000Y-123698000D03*
%TD*%
D12*
%TO.C,J1*%
X122810000Y-122071000D03*
X122810000Y-138271000D03*
D13*
X119380000Y-123821000D03*
X119380000Y-136521000D03*
D14*
X123700000Y-126591000D03*
X121920000Y-127611000D03*
X123700000Y-128631000D03*
X121920000Y-129651000D03*
X123700000Y-130671000D03*
X121920000Y-131691000D03*
X123700000Y-132711000D03*
X121920000Y-133731000D03*
%TD*%
D15*
%TO.C,J5*%
X147320000Y-149860000D03*
X144780000Y-149860000D03*
X142240000Y-149860000D03*
X139700000Y-149860000D03*
X137160000Y-149860000D03*
X134620000Y-149860000D03*
X132080000Y-149860000D03*
D16*
X129540000Y-149860000D03*
%TD*%
D17*
%TO.C,U1*%
X160180000Y-121285000D03*
X160180000Y-120015000D03*
X160180000Y-118745000D03*
X160180000Y-117475000D03*
X160180000Y-116205000D03*
X160180000Y-114935000D03*
X160180000Y-113665000D03*
X160180000Y-112395000D03*
X154780000Y-112395000D03*
X154780000Y-113665000D03*
X154780000Y-114935000D03*
X154780000Y-116205000D03*
X154780000Y-117475000D03*
X154780000Y-118745000D03*
X154780000Y-120015000D03*
X154780000Y-121285000D03*
%TD*%
D15*
%TO.C,J3*%
X143256000Y-101600000D03*
X140716000Y-101600000D03*
X138176000Y-101600000D03*
X135636000Y-101600000D03*
X133096000Y-101600000D03*
X130556000Y-101600000D03*
X128016000Y-101600000D03*
X125476000Y-101600000D03*
X122936000Y-101600000D03*
D16*
X120396000Y-101600000D03*
%TD*%
D15*
%TO.C,J4*%
X165100000Y-101600000D03*
X162560000Y-101600000D03*
X160020000Y-101600000D03*
X157480000Y-101600000D03*
X154940000Y-101600000D03*
X152400000Y-101600000D03*
X149860000Y-101600000D03*
D16*
X147320000Y-101600000D03*
%TD*%
D15*
%TO.C,J6*%
X165100000Y-149860000D03*
X162560000Y-149860000D03*
X160020000Y-149860000D03*
X157480000Y-149860000D03*
X154940000Y-149860000D03*
D16*
X152400000Y-149860000D03*
%TD*%
D15*
%TO.C,J2*%
X136906000Y-126746000D03*
X139446000Y-126746000D03*
X136906000Y-129286000D03*
X139446000Y-129286000D03*
X136906000Y-131826000D03*
X139446000Y-131826000D03*
X136906000Y-134366000D03*
D16*
X139446000Y-134366000D03*
%TD*%
D11*
%TO.C,C2*%
X157546000Y-123698000D03*
X159446000Y-123698000D03*
%TD*%
D18*
%TO.C,C3*%
X139700000Y-144338000D03*
X139700000Y-146238000D03*
%TD*%
D11*
%TO.C,C4*%
X156652000Y-144272000D03*
X154752000Y-144272000D03*
%TD*%
D15*
%TO.C,J7*%
X152146000Y-139700000D03*
X149606000Y-139700000D03*
D16*
X147066000Y-139700000D03*
%TD*%
M02*
