%TF.GenerationSoftware,KiCad,Pcbnew,(5.1.6-0-10_14)*%
%TF.CreationDate,2022-12-11T12:30:35+09:00*%
%TF.ProjectId,MuxReadoutBoard,4d757852-6561-4646-9f75-74426f617264,rev?*%
%TF.SameCoordinates,Original*%
%TF.FileFunction,Legend,Bot*%
%TF.FilePolarity,Positive*%
%FSLAX46Y46*%
G04 Gerber Fmt 4.6, Leading zero omitted, Abs format (unit mm)*
G04 Created by KiCad (PCBNEW (5.1.6-0-10_14)) date 2022-12-11 12:30:35*
%MOMM*%
%LPD*%
G01*
G04 APERTURE LIST*
%ADD10C,0.150000*%
%ADD11C,0.120000*%
G04 APERTURE END LIST*
D10*
X152534952Y-112426761D02*
X152487333Y-112331523D01*
X152439714Y-112283904D01*
X152344476Y-112236285D01*
X152296857Y-112236285D01*
X152201619Y-112283904D01*
X152154000Y-112331523D01*
X152106380Y-112426761D01*
X152106380Y-112617238D01*
X152154000Y-112712476D01*
X152201619Y-112760095D01*
X152296857Y-112807714D01*
X152344476Y-112807714D01*
X152439714Y-112760095D01*
X152487333Y-112712476D01*
X152534952Y-112617238D01*
X152534952Y-112426761D01*
X152582571Y-112331523D01*
X152630190Y-112283904D01*
X152725428Y-112236285D01*
X152915904Y-112236285D01*
X153011142Y-112283904D01*
X153058761Y-112331523D01*
X153106380Y-112426761D01*
X153106380Y-112617238D01*
X153058761Y-112712476D01*
X153011142Y-112760095D01*
X152915904Y-112807714D01*
X152725428Y-112807714D01*
X152630190Y-112760095D01*
X152582571Y-112712476D01*
X152534952Y-112617238D01*
X153106380Y-121697714D02*
X153106380Y-121126285D01*
X153106380Y-121412000D02*
X152106380Y-121412000D01*
X152249238Y-121316761D01*
X152344476Y-121221523D01*
X152392095Y-121126285D01*
D11*
%TO.C,U2*%
X157986000Y-139136000D02*
X157986000Y-140066000D01*
X157986000Y-142296000D02*
X157986000Y-141366000D01*
X157986000Y-142296000D02*
X155826000Y-142296000D01*
X157986000Y-139136000D02*
X156526000Y-139136000D01*
%TO.C,C1*%
X163734000Y-124298000D02*
X164434000Y-124298000D01*
X164434000Y-123098000D02*
X163734000Y-123098000D01*
%TO.C,J5*%
X128210000Y-148530000D02*
X128210000Y-149860000D01*
X129540000Y-148530000D02*
X128210000Y-148530000D01*
X130810000Y-148530000D02*
X130810000Y-151190000D01*
X130810000Y-151190000D02*
X148650000Y-151190000D01*
X130810000Y-148530000D02*
X148650000Y-148530000D01*
X148650000Y-148530000D02*
X148650000Y-151190000D01*
D10*
%TO.C,U1*%
X155405000Y-121890000D02*
X154030000Y-121890000D01*
X155405000Y-111765000D02*
X159555000Y-111765000D01*
X155405000Y-121915000D02*
X159555000Y-121915000D01*
X155405000Y-111765000D02*
X155405000Y-111870000D01*
X159555000Y-111765000D02*
X159555000Y-111870000D01*
X159555000Y-121915000D02*
X159555000Y-121810000D01*
X155405000Y-121915000D02*
X155405000Y-121890000D01*
D11*
%TO.C,J3*%
X144586000Y-100270000D02*
X144586000Y-102930000D01*
X121666000Y-100270000D02*
X144586000Y-100270000D01*
X121666000Y-102930000D02*
X144586000Y-102930000D01*
X121666000Y-100270000D02*
X121666000Y-102930000D01*
X120396000Y-100270000D02*
X119066000Y-100270000D01*
X119066000Y-100270000D02*
X119066000Y-101600000D01*
%TO.C,J4*%
X166430000Y-100270000D02*
X166430000Y-102930000D01*
X148590000Y-100270000D02*
X166430000Y-100270000D01*
X148590000Y-102930000D02*
X166430000Y-102930000D01*
X148590000Y-100270000D02*
X148590000Y-102930000D01*
X147320000Y-100270000D02*
X145990000Y-100270000D01*
X145990000Y-100270000D02*
X145990000Y-101600000D01*
%TO.C,J6*%
X166430000Y-148530000D02*
X166430000Y-151190000D01*
X153670000Y-148530000D02*
X166430000Y-148530000D01*
X153670000Y-151190000D02*
X166430000Y-151190000D01*
X153670000Y-148530000D02*
X153670000Y-151190000D01*
X152400000Y-148530000D02*
X151070000Y-148530000D01*
X151070000Y-148530000D02*
X151070000Y-149860000D01*
%TO.C,C2*%
X158846000Y-123098000D02*
X158146000Y-123098000D01*
X158146000Y-124298000D02*
X158846000Y-124298000D01*
%TO.C,C3*%
X140300000Y-145638000D02*
X140300000Y-144938000D01*
X139100000Y-144938000D02*
X139100000Y-145638000D01*
%TO.C,C4*%
X155352000Y-144872000D02*
X156052000Y-144872000D01*
X156052000Y-143672000D02*
X155352000Y-143672000D01*
%TO.C,U2*%
D10*
X160980380Y-135842952D02*
X159980380Y-135842952D01*
X160694666Y-136176285D01*
X159980380Y-136509619D01*
X160980380Y-136509619D01*
X160885142Y-137557238D02*
X160932761Y-137509619D01*
X160980380Y-137366761D01*
X160980380Y-137271523D01*
X160932761Y-137128666D01*
X160837523Y-137033428D01*
X160742285Y-136985809D01*
X160551809Y-136938190D01*
X160408952Y-136938190D01*
X160218476Y-136985809D01*
X160123238Y-137033428D01*
X160028000Y-137128666D01*
X159980380Y-137271523D01*
X159980380Y-137366761D01*
X160028000Y-137509619D01*
X160075619Y-137557238D01*
X160980380Y-137985809D02*
X159980380Y-137985809D01*
X159980380Y-138366761D01*
X160028000Y-138462000D01*
X160075619Y-138509619D01*
X160170857Y-138557238D01*
X160313714Y-138557238D01*
X160408952Y-138509619D01*
X160456571Y-138462000D01*
X160504190Y-138366761D01*
X160504190Y-137985809D01*
X160980380Y-139509619D02*
X160980380Y-138938190D01*
X160980380Y-139223904D02*
X159980380Y-139223904D01*
X160123238Y-139128666D01*
X160218476Y-139033428D01*
X160266095Y-138938190D01*
X159980380Y-140414380D02*
X159980380Y-139938190D01*
X160456571Y-139890571D01*
X160408952Y-139938190D01*
X160361333Y-140033428D01*
X160361333Y-140271523D01*
X160408952Y-140366761D01*
X160456571Y-140414380D01*
X160551809Y-140462000D01*
X160789904Y-140462000D01*
X160885142Y-140414380D01*
X160932761Y-140366761D01*
X160980380Y-140271523D01*
X160980380Y-140033428D01*
X160932761Y-139938190D01*
X160885142Y-139890571D01*
X160075619Y-140842952D02*
X160028000Y-140890571D01*
X159980380Y-140985809D01*
X159980380Y-141223904D01*
X160028000Y-141319142D01*
X160075619Y-141366761D01*
X160170857Y-141414380D01*
X160266095Y-141414380D01*
X160408952Y-141366761D01*
X160980380Y-140795333D01*
X160980380Y-141414380D01*
X159980380Y-142319142D02*
X159980380Y-141842952D01*
X160456571Y-141795333D01*
X160408952Y-141842952D01*
X160361333Y-141938190D01*
X160361333Y-142176285D01*
X160408952Y-142271523D01*
X160456571Y-142319142D01*
X160551809Y-142366761D01*
X160789904Y-142366761D01*
X160885142Y-142319142D01*
X160932761Y-142271523D01*
X160980380Y-142176285D01*
X160980380Y-141938190D01*
X160932761Y-141842952D01*
X160885142Y-141795333D01*
X160599428Y-142795333D02*
X160599428Y-143557238D01*
X159980380Y-143890571D02*
X159980380Y-144462000D01*
X160980380Y-144176285D02*
X159980380Y-144176285D01*
X159980380Y-144652476D02*
X159980380Y-145223904D01*
X160980380Y-144938190D02*
X159980380Y-144938190D01*
%TO.C,C1*%
X164250666Y-125325142D02*
X164298285Y-125372761D01*
X164441142Y-125420380D01*
X164536380Y-125420380D01*
X164679238Y-125372761D01*
X164774476Y-125277523D01*
X164822095Y-125182285D01*
X164869714Y-124991809D01*
X164869714Y-124848952D01*
X164822095Y-124658476D01*
X164774476Y-124563238D01*
X164679238Y-124468000D01*
X164536380Y-124420380D01*
X164441142Y-124420380D01*
X164298285Y-124468000D01*
X164250666Y-124515619D01*
X163298285Y-125420380D02*
X163869714Y-125420380D01*
X163584000Y-125420380D02*
X163584000Y-124420380D01*
X163679238Y-124563238D01*
X163774476Y-124658476D01*
X163869714Y-124706095D01*
%TO.C,U1*%
X163266380Y-113601904D02*
X162266380Y-113601904D01*
X162980666Y-113935238D01*
X162266380Y-114268571D01*
X163266380Y-114268571D01*
X163171142Y-115316190D02*
X163218761Y-115268571D01*
X163266380Y-115125714D01*
X163266380Y-115030476D01*
X163218761Y-114887619D01*
X163123523Y-114792380D01*
X163028285Y-114744761D01*
X162837809Y-114697142D01*
X162694952Y-114697142D01*
X162504476Y-114744761D01*
X162409238Y-114792380D01*
X162314000Y-114887619D01*
X162266380Y-115030476D01*
X162266380Y-115125714D01*
X162314000Y-115268571D01*
X162361619Y-115316190D01*
X163266380Y-115744761D02*
X162266380Y-115744761D01*
X162266380Y-116125714D01*
X162314000Y-116220952D01*
X162361619Y-116268571D01*
X162456857Y-116316190D01*
X162599714Y-116316190D01*
X162694952Y-116268571D01*
X162742571Y-116220952D01*
X162790190Y-116125714D01*
X162790190Y-115744761D01*
X162266380Y-116649523D02*
X162266380Y-117268571D01*
X162647333Y-116935238D01*
X162647333Y-117078095D01*
X162694952Y-117173333D01*
X162742571Y-117220952D01*
X162837809Y-117268571D01*
X163075904Y-117268571D01*
X163171142Y-117220952D01*
X163218761Y-117173333D01*
X163266380Y-117078095D01*
X163266380Y-116792380D01*
X163218761Y-116697142D01*
X163171142Y-116649523D01*
X162361619Y-117649523D02*
X162314000Y-117697142D01*
X162266380Y-117792380D01*
X162266380Y-118030476D01*
X162314000Y-118125714D01*
X162361619Y-118173333D01*
X162456857Y-118220952D01*
X162552095Y-118220952D01*
X162694952Y-118173333D01*
X163266380Y-117601904D01*
X163266380Y-118220952D01*
X162266380Y-118840000D02*
X162266380Y-118935238D01*
X162314000Y-119030476D01*
X162361619Y-119078095D01*
X162456857Y-119125714D01*
X162647333Y-119173333D01*
X162885428Y-119173333D01*
X163075904Y-119125714D01*
X163171142Y-119078095D01*
X163218761Y-119030476D01*
X163266380Y-118935238D01*
X163266380Y-118840000D01*
X163218761Y-118744761D01*
X163171142Y-118697142D01*
X163075904Y-118649523D01*
X162885428Y-118601904D01*
X162647333Y-118601904D01*
X162456857Y-118649523D01*
X162361619Y-118697142D01*
X162314000Y-118744761D01*
X162266380Y-118840000D01*
X162694952Y-119744761D02*
X162647333Y-119649523D01*
X162599714Y-119601904D01*
X162504476Y-119554285D01*
X162456857Y-119554285D01*
X162361619Y-119601904D01*
X162314000Y-119649523D01*
X162266380Y-119744761D01*
X162266380Y-119935238D01*
X162314000Y-120030476D01*
X162361619Y-120078095D01*
X162456857Y-120125714D01*
X162504476Y-120125714D01*
X162599714Y-120078095D01*
X162647333Y-120030476D01*
X162694952Y-119935238D01*
X162694952Y-119744761D01*
X162742571Y-119649523D01*
X162790190Y-119601904D01*
X162885428Y-119554285D01*
X163075904Y-119554285D01*
X163171142Y-119601904D01*
X163218761Y-119649523D01*
X163266380Y-119744761D01*
X163266380Y-119935238D01*
X163218761Y-120030476D01*
X163171142Y-120078095D01*
X163075904Y-120125714D01*
X162885428Y-120125714D01*
X162790190Y-120078095D01*
X162742571Y-120030476D01*
X162694952Y-119935238D01*
%TO.C,C2*%
X158662666Y-125325142D02*
X158710285Y-125372761D01*
X158853142Y-125420380D01*
X158948380Y-125420380D01*
X159091238Y-125372761D01*
X159186476Y-125277523D01*
X159234095Y-125182285D01*
X159281714Y-124991809D01*
X159281714Y-124848952D01*
X159234095Y-124658476D01*
X159186476Y-124563238D01*
X159091238Y-124468000D01*
X158948380Y-124420380D01*
X158853142Y-124420380D01*
X158710285Y-124468000D01*
X158662666Y-124515619D01*
X158281714Y-124515619D02*
X158234095Y-124468000D01*
X158138857Y-124420380D01*
X157900761Y-124420380D01*
X157805523Y-124468000D01*
X157757904Y-124515619D01*
X157710285Y-124610857D01*
X157710285Y-124706095D01*
X157757904Y-124848952D01*
X158329333Y-125420380D01*
X157710285Y-125420380D01*
%TO.C,C3*%
X141307142Y-145121333D02*
X141354761Y-145073714D01*
X141402380Y-144930857D01*
X141402380Y-144835619D01*
X141354761Y-144692761D01*
X141259523Y-144597523D01*
X141164285Y-144549904D01*
X140973809Y-144502285D01*
X140830952Y-144502285D01*
X140640476Y-144549904D01*
X140545238Y-144597523D01*
X140450000Y-144692761D01*
X140402380Y-144835619D01*
X140402380Y-144930857D01*
X140450000Y-145073714D01*
X140497619Y-145121333D01*
X140402380Y-145454666D02*
X140402380Y-146073714D01*
X140783333Y-145740380D01*
X140783333Y-145883238D01*
X140830952Y-145978476D01*
X140878571Y-146026095D01*
X140973809Y-146073714D01*
X141211904Y-146073714D01*
X141307142Y-146026095D01*
X141354761Y-145978476D01*
X141402380Y-145883238D01*
X141402380Y-145597523D01*
X141354761Y-145502285D01*
X141307142Y-145454666D01*
%TO.C,C4*%
X155868666Y-145879142D02*
X155916285Y-145926761D01*
X156059142Y-145974380D01*
X156154380Y-145974380D01*
X156297238Y-145926761D01*
X156392476Y-145831523D01*
X156440095Y-145736285D01*
X156487714Y-145545809D01*
X156487714Y-145402952D01*
X156440095Y-145212476D01*
X156392476Y-145117238D01*
X156297238Y-145022000D01*
X156154380Y-144974380D01*
X156059142Y-144974380D01*
X155916285Y-145022000D01*
X155868666Y-145069619D01*
X155011523Y-145307714D02*
X155011523Y-145974380D01*
X155249619Y-144926761D02*
X155487714Y-145641047D01*
X154868666Y-145641047D01*
%TD*%
M02*
