M48
; DRILL file {KiCad (5.1.6-0-10_14)} date Sunday, December 11, 2022 at 12:30:39 PM
; FORMAT={-:-/ absolute / metric / decimal}
; #@! TF.CreationDate,2022-12-11T12:30:39+09:00
; #@! TF.GenerationSoftware,Kicad,Pcbnew,(5.1.6-0-10_14)
FMAT,2
METRIC
T1C0.400
T2C0.970
T3C1.000
T4C1.650
T5C3.300
%
G90
G05
T1
X116.84Y-105.664
X117.094Y-120.396
X117.094Y-130.302
X117.094Y-139.954
X120.396Y-149.86
X126.492Y-112.522
X126.492Y-149.86
X130.048Y-142.748
X130.556Y-122.682
X139.7Y-141.986
X140.716Y-103.378
X142.24Y-122.682
X142.494Y-144.526
X144.018Y-110.998
X145.288Y-103.378
X148.336Y-144.526
X152.4Y-137.414
X153.924Y-141.986
X154.94Y-110.998
X156.972Y-132.588
X158.242Y-138.684
X159.004Y-144.272
X161.29Y-123.698
X161.29Y-132.588
X165.1Y-104.902
X165.354Y-112.522
X167.64Y-120.904
X167.64Y-130.302
X167.64Y-140.716
X195.834Y-161.29
T2
X121.92Y-127.611
X121.92Y-129.651
X121.92Y-131.691
X121.92Y-133.731
X123.7Y-126.591
X123.7Y-128.631
X123.7Y-130.671
X123.7Y-132.711
T3
X120.396Y-101.6
X122.936Y-101.6
X125.476Y-101.6
X128.016Y-101.6
X130.556Y-101.6
X133.096Y-101.6
X135.636Y-101.6
X138.176Y-101.6
X140.716Y-101.6
X143.256Y-101.6
X136.906Y-126.746
X136.906Y-129.286
X136.906Y-131.826
X136.906Y-134.366
X139.446Y-126.746
X139.446Y-129.286
X139.446Y-131.826
X139.446Y-134.366
X152.4Y-149.86
X154.94Y-149.86
X157.48Y-149.86
X160.02Y-149.86
X162.56Y-149.86
X165.1Y-149.86
X147.066Y-139.7
X149.606Y-139.7
X152.146Y-139.7
X129.54Y-149.86
X132.08Y-149.86
X134.62Y-149.86
X137.16Y-149.86
X139.7Y-149.86
X142.24Y-149.86
X144.78Y-149.86
X147.32Y-149.86
X147.32Y-101.6
X149.86Y-101.6
X152.4Y-101.6
X154.94Y-101.6
X157.48Y-101.6
X160.02Y-101.6
X162.56Y-101.6
X165.1Y-101.6
T4
X122.81Y-122.071
X122.81Y-138.271
T5
X119.38Y-123.821
X119.38Y-136.521
T0
M30
