%FSLAX45Y45*%
G04 Gerber Fmt 4.5, Leading zero omitted, Abs format (unit mm)*
G04 Created by KiCad (PCBNEW (5.1.6-0-10_14)) date 2022-12-11 12:23:31*
%MOMM*%
%LPD*%
G01*
G04 APERTURE LIST*
%TA.AperFunction,Profile*%
%ADD10C,0.050000*%
%TD*%
%TA.AperFunction,Profile*%
%ADD11C,0.127000*%
%TD*%
%ADD12C,0.200000*%
%ADD13C,0.300000*%
G04 APERTURE END LIST*
D10*
X11842750Y-10160000D02*
G75*
G03*
X11842750Y-10160000I-158750J0D01*
G01*
X16922750Y-14478000D02*
G75*
G03*
X16922750Y-14478000I-158750J0D01*
G01*
X11715750Y-14986000D02*
G75*
G03*
X11715750Y-14986000I-158750J0D01*
G01*
X16922750Y-11684000D02*
G75*
G03*
X16922750Y-11684000I-158750J0D01*
G01*
D11*
X16764000Y-15240000D02*
X16764000Y-14986000D01*
X17018000Y-14732000D02*
X16764000Y-14986000D01*
X17018000Y-14732000D02*
X17018000Y-11455400D01*
X16764000Y-11201400D02*
X17018000Y-11455400D01*
X16764000Y-11201400D02*
X16764000Y-9906000D01*
X11328400Y-9906000D02*
X16764000Y-9906000D01*
X11328400Y-15240000D02*
X16764000Y-15240000D01*
X11328400Y-15240000D02*
X11328400Y-9906000D01*
D12*
X11664000Y-10546400D02*
X11704000Y-10586400D01*
X11704000Y-10546400D02*
X11664000Y-10586400D01*
X11689400Y-12019600D02*
X11729400Y-12059600D01*
X11729400Y-12019600D02*
X11689400Y-12059600D01*
X11689400Y-13010200D02*
X11729400Y-13050200D01*
X11729400Y-13010200D02*
X11689400Y-13050200D01*
X11689400Y-13975400D02*
X11729400Y-14015400D01*
X11729400Y-13975400D02*
X11689400Y-14015400D01*
X12019600Y-14966000D02*
X12059600Y-15006000D01*
X12059600Y-14966000D02*
X12019600Y-15006000D01*
X12629200Y-11232200D02*
X12669200Y-11272200D01*
X12669200Y-11232200D02*
X12629200Y-11272200D01*
X12629200Y-14966000D02*
X12669200Y-15006000D01*
X12669200Y-14966000D02*
X12629200Y-15006000D01*
X12984800Y-14254800D02*
X13024800Y-14294800D01*
X13024800Y-14254800D02*
X12984800Y-14294800D01*
X13035600Y-12248200D02*
X13075600Y-12288200D01*
X13075600Y-12248200D02*
X13035600Y-12288200D01*
X13950000Y-14178600D02*
X13990000Y-14218600D01*
X13990000Y-14178600D02*
X13950000Y-14218600D01*
X14051600Y-10317800D02*
X14091600Y-10357800D01*
X14091600Y-10317800D02*
X14051600Y-10357800D01*
X14204000Y-12248200D02*
X14244000Y-12288200D01*
X14244000Y-12248200D02*
X14204000Y-12288200D01*
X14229400Y-14432600D02*
X14269400Y-14472600D01*
X14269400Y-14432600D02*
X14229400Y-14472600D01*
X14381800Y-11079800D02*
X14421800Y-11119800D01*
X14421800Y-11079800D02*
X14381800Y-11119800D01*
X14508800Y-10317800D02*
X14548800Y-10357800D01*
X14548800Y-10317800D02*
X14508800Y-10357800D01*
X14813600Y-14432600D02*
X14853600Y-14472600D01*
X14853600Y-14432600D02*
X14813600Y-14472600D01*
X15220000Y-13721400D02*
X15260000Y-13761400D01*
X15260000Y-13721400D02*
X15220000Y-13761400D01*
X15372400Y-14178600D02*
X15412400Y-14218600D01*
X15412400Y-14178600D02*
X15372400Y-14218600D01*
X15474000Y-11079800D02*
X15514000Y-11119800D01*
X15514000Y-11079800D02*
X15474000Y-11119800D01*
X15677200Y-13238800D02*
X15717200Y-13278800D01*
X15717200Y-13238800D02*
X15677200Y-13278800D01*
X15804200Y-13848400D02*
X15844200Y-13888400D01*
X15844200Y-13848400D02*
X15804200Y-13888400D01*
X15804200Y-14686600D02*
X15844200Y-14726600D01*
X15844200Y-14686600D02*
X15804200Y-14726600D01*
X16109000Y-12349800D02*
X16149000Y-12389800D01*
X16149000Y-12349800D02*
X16109000Y-12389800D01*
X16109000Y-13238800D02*
X16149000Y-13278800D01*
X16149000Y-13238800D02*
X16109000Y-13278800D01*
X16490000Y-10470200D02*
X16530000Y-10510200D01*
X16530000Y-10470200D02*
X16490000Y-10510200D01*
X16515400Y-11232200D02*
X16555400Y-11272200D01*
X16555400Y-11232200D02*
X16515400Y-11272200D01*
X16744000Y-12070400D02*
X16784000Y-12110400D01*
X16784000Y-12070400D02*
X16744000Y-12110400D01*
X16744000Y-13010200D02*
X16784000Y-13050200D01*
X16784000Y-13010200D02*
X16744000Y-13050200D01*
X16744000Y-14051600D02*
X16784000Y-14091600D01*
X16784000Y-14051600D02*
X16744000Y-14091600D01*
X19563400Y-16109000D02*
X19603400Y-16149000D01*
X19603400Y-16109000D02*
X19563400Y-16149000D01*
X12240500Y-12761100D02*
G75*
G03*
X12240500Y-12761100I-48500J0D01*
G01*
X12240500Y-12965100D02*
G75*
G03*
X12240500Y-12965100I-48500J0D01*
G01*
X12240500Y-13169100D02*
G75*
G03*
X12240500Y-13169100I-48500J0D01*
G01*
X12240500Y-13373100D02*
G75*
G03*
X12240500Y-13373100I-48500J0D01*
G01*
X12418500Y-12659100D02*
G75*
G03*
X12418500Y-12659100I-48500J0D01*
G01*
X12418500Y-12863100D02*
G75*
G03*
X12418500Y-12863100I-48500J0D01*
G01*
X12418500Y-13067100D02*
G75*
G03*
X12418500Y-13067100I-48500J0D01*
G01*
X12418500Y-13271100D02*
G75*
G03*
X12418500Y-13271100I-48500J0D01*
G01*
X12039600Y-10110000D02*
X12039600Y-10210000D01*
X11989600Y-10160000D02*
X12089600Y-10160000D01*
X12293600Y-10110000D02*
X12293600Y-10210000D01*
X12243600Y-10160000D02*
X12343600Y-10160000D01*
X12547600Y-10110000D02*
X12547600Y-10210000D01*
X12497600Y-10160000D02*
X12597600Y-10160000D01*
X12801600Y-10110000D02*
X12801600Y-10210000D01*
X12751600Y-10160000D02*
X12851600Y-10160000D01*
X13055600Y-10110000D02*
X13055600Y-10210000D01*
X13005600Y-10160000D02*
X13105600Y-10160000D01*
X13309600Y-10110000D02*
X13309600Y-10210000D01*
X13259600Y-10160000D02*
X13359600Y-10160000D01*
X13563600Y-10110000D02*
X13563600Y-10210000D01*
X13513600Y-10160000D02*
X13613600Y-10160000D01*
X13817600Y-10110000D02*
X13817600Y-10210000D01*
X13767600Y-10160000D02*
X13867600Y-10160000D01*
X14071600Y-10110000D02*
X14071600Y-10210000D01*
X14021600Y-10160000D02*
X14121600Y-10160000D01*
X14325600Y-10110000D02*
X14325600Y-10210000D01*
X14275600Y-10160000D02*
X14375600Y-10160000D01*
X13690600Y-12624600D02*
X13690600Y-12724600D01*
X13640600Y-12674600D02*
X13740600Y-12674600D01*
X13690600Y-12878600D02*
X13690600Y-12978600D01*
X13640600Y-12928600D02*
X13740600Y-12928600D01*
X13690600Y-13132600D02*
X13690600Y-13232600D01*
X13640600Y-13182600D02*
X13740600Y-13182600D01*
X13690600Y-13386600D02*
X13690600Y-13486600D01*
X13640600Y-13436600D02*
X13740600Y-13436600D01*
X13944600Y-12624600D02*
X13944600Y-12724600D01*
X13894600Y-12674600D02*
X13994600Y-12674600D01*
X13944600Y-12878600D02*
X13944600Y-12978600D01*
X13894600Y-12928600D02*
X13994600Y-12928600D01*
X13944600Y-13132600D02*
X13944600Y-13232600D01*
X13894600Y-13182600D02*
X13994600Y-13182600D01*
X13944600Y-13386600D02*
X13944600Y-13486600D01*
X13894600Y-13436600D02*
X13994600Y-13436600D01*
X15240000Y-14936000D02*
X15240000Y-15036000D01*
X15190000Y-14986000D02*
X15290000Y-14986000D01*
X15494000Y-14936000D02*
X15494000Y-15036000D01*
X15444000Y-14986000D02*
X15544000Y-14986000D01*
X15748000Y-14936000D02*
X15748000Y-15036000D01*
X15698000Y-14986000D02*
X15798000Y-14986000D01*
X16002000Y-14936000D02*
X16002000Y-15036000D01*
X15952000Y-14986000D02*
X16052000Y-14986000D01*
X16256000Y-14936000D02*
X16256000Y-15036000D01*
X16206000Y-14986000D02*
X16306000Y-14986000D01*
X16510000Y-14936000D02*
X16510000Y-15036000D01*
X16460000Y-14986000D02*
X16560000Y-14986000D01*
X14706600Y-13920000D02*
X14706600Y-14020000D01*
X14656600Y-13970000D02*
X14756600Y-13970000D01*
X14960600Y-13920000D02*
X14960600Y-14020000D01*
X14910600Y-13970000D02*
X15010600Y-13970000D01*
X15214600Y-13920000D02*
X15214600Y-14020000D01*
X15164600Y-13970000D02*
X15264600Y-13970000D01*
X12954000Y-14936000D02*
X12954000Y-15036000D01*
X12904000Y-14986000D02*
X13004000Y-14986000D01*
X13208000Y-14936000D02*
X13208000Y-15036000D01*
X13158000Y-14986000D02*
X13258000Y-14986000D01*
X13462000Y-14936000D02*
X13462000Y-15036000D01*
X13412000Y-14986000D02*
X13512000Y-14986000D01*
X13716000Y-14936000D02*
X13716000Y-15036000D01*
X13666000Y-14986000D02*
X13766000Y-14986000D01*
X13970000Y-14936000D02*
X13970000Y-15036000D01*
X13920000Y-14986000D02*
X14020000Y-14986000D01*
X14224000Y-14936000D02*
X14224000Y-15036000D01*
X14174000Y-14986000D02*
X14274000Y-14986000D01*
X14478000Y-14936000D02*
X14478000Y-15036000D01*
X14428000Y-14986000D02*
X14528000Y-14986000D01*
X14732000Y-14936000D02*
X14732000Y-15036000D01*
X14682000Y-14986000D02*
X14782000Y-14986000D01*
X14732000Y-10110000D02*
X14732000Y-10210000D01*
X14682000Y-10160000D02*
X14782000Y-10160000D01*
X14986000Y-10110000D02*
X14986000Y-10210000D01*
X14936000Y-10160000D02*
X15036000Y-10160000D01*
X15240000Y-10110000D02*
X15240000Y-10210000D01*
X15190000Y-10160000D02*
X15290000Y-10160000D01*
X15494000Y-10110000D02*
X15494000Y-10210000D01*
X15444000Y-10160000D02*
X15544000Y-10160000D01*
X15748000Y-10110000D02*
X15748000Y-10210000D01*
X15698000Y-10160000D02*
X15798000Y-10160000D01*
X16002000Y-10110000D02*
X16002000Y-10210000D01*
X15952000Y-10160000D02*
X16052000Y-10160000D01*
X16256000Y-10110000D02*
X16256000Y-10210000D01*
X16206000Y-10160000D02*
X16306000Y-10160000D01*
X16510000Y-10110000D02*
X16510000Y-10210000D01*
X16460000Y-10160000D02*
X16560000Y-10160000D01*
X12339337Y-12265437D02*
X12339337Y-12148763D01*
X12222663Y-12148763D01*
X12222663Y-12265437D01*
X12339337Y-12265437D01*
X12339337Y-13885437D02*
X12339337Y-13768763D01*
X12222663Y-13768763D01*
X12222663Y-13885437D01*
X12339337Y-13885437D01*
X11938000Y-12547100D02*
X12103000Y-12382100D01*
X11938000Y-12217100D01*
X11773000Y-12382100D01*
X11938000Y-12547100D01*
X11938000Y-13817100D02*
X12103000Y-13652100D01*
X11938000Y-13487100D01*
X11773000Y-13652100D01*
X11938000Y-13817100D01*
D13*
X11608478Y-15712064D02*
X11608478Y-15412064D01*
X11679907Y-15412064D01*
X11722764Y-15426350D01*
X11751336Y-15454921D01*
X11765621Y-15483493D01*
X11779907Y-15540636D01*
X11779907Y-15583493D01*
X11765621Y-15640636D01*
X11751336Y-15669207D01*
X11722764Y-15697779D01*
X11679907Y-15712064D01*
X11608478Y-15712064D01*
X11908478Y-15712064D02*
X11908478Y-15512064D01*
X11908478Y-15569207D02*
X11922764Y-15540636D01*
X11937050Y-15526350D01*
X11965621Y-15512064D01*
X11994193Y-15512064D01*
X12094193Y-15712064D02*
X12094193Y-15512064D01*
X12094193Y-15412064D02*
X12079907Y-15426350D01*
X12094193Y-15440636D01*
X12108478Y-15426350D01*
X12094193Y-15412064D01*
X12094193Y-15440636D01*
X12279907Y-15712064D02*
X12251336Y-15697779D01*
X12237050Y-15669207D01*
X12237050Y-15412064D01*
X12437050Y-15712064D02*
X12408478Y-15697779D01*
X12394193Y-15669207D01*
X12394193Y-15412064D01*
X12779907Y-15712064D02*
X12779907Y-15412064D01*
X12879907Y-15626350D01*
X12979907Y-15412064D01*
X12979907Y-15712064D01*
X13251336Y-15712064D02*
X13251336Y-15554921D01*
X13237050Y-15526350D01*
X13208478Y-15512064D01*
X13151336Y-15512064D01*
X13122764Y-15526350D01*
X13251336Y-15697779D02*
X13222764Y-15712064D01*
X13151336Y-15712064D01*
X13122764Y-15697779D01*
X13108478Y-15669207D01*
X13108478Y-15640636D01*
X13122764Y-15612064D01*
X13151336Y-15597779D01*
X13222764Y-15597779D01*
X13251336Y-15583493D01*
X13394193Y-15512064D02*
X13394193Y-15812064D01*
X13394193Y-15526350D02*
X13422764Y-15512064D01*
X13479907Y-15512064D01*
X13508478Y-15526350D01*
X13522764Y-15540636D01*
X13537050Y-15569207D01*
X13537050Y-15654921D01*
X13522764Y-15683493D01*
X13508478Y-15697779D01*
X13479907Y-15712064D01*
X13422764Y-15712064D01*
X13394193Y-15697779D01*
X13665621Y-15683493D02*
X13679907Y-15697779D01*
X13665621Y-15712064D01*
X13651336Y-15697779D01*
X13665621Y-15683493D01*
X13665621Y-15712064D01*
X13665621Y-15526350D02*
X13679907Y-15540636D01*
X13665621Y-15554921D01*
X13651336Y-15540636D01*
X13665621Y-15526350D01*
X13665621Y-15554921D01*
X11282050Y-16186350D02*
X11322050Y-16226350D01*
X11322050Y-16186350D02*
X11282050Y-16226350D01*
X11665621Y-16042064D02*
X11694193Y-16042064D01*
X11722764Y-16056350D01*
X11737050Y-16070636D01*
X11751336Y-16099207D01*
X11765621Y-16156350D01*
X11765621Y-16227779D01*
X11751336Y-16284921D01*
X11737050Y-16313493D01*
X11722764Y-16327779D01*
X11694193Y-16342064D01*
X11665621Y-16342064D01*
X11637050Y-16327779D01*
X11622764Y-16313493D01*
X11608478Y-16284921D01*
X11594193Y-16227779D01*
X11594193Y-16156350D01*
X11608478Y-16099207D01*
X11622764Y-16070636D01*
X11637050Y-16056350D01*
X11665621Y-16042064D01*
X11894193Y-16313493D02*
X11908478Y-16327779D01*
X11894193Y-16342064D01*
X11879907Y-16327779D01*
X11894193Y-16313493D01*
X11894193Y-16342064D01*
X12165621Y-16142064D02*
X12165621Y-16342064D01*
X12094193Y-16027779D02*
X12022764Y-16242064D01*
X12208478Y-16242064D01*
X12379907Y-16042064D02*
X12408478Y-16042064D01*
X12437050Y-16056350D01*
X12451336Y-16070636D01*
X12465621Y-16099207D01*
X12479907Y-16156350D01*
X12479907Y-16227779D01*
X12465621Y-16284921D01*
X12451336Y-16313493D01*
X12437050Y-16327779D01*
X12408478Y-16342064D01*
X12379907Y-16342064D01*
X12351336Y-16327779D01*
X12337050Y-16313493D01*
X12322764Y-16284921D01*
X12308478Y-16227779D01*
X12308478Y-16156350D01*
X12322764Y-16099207D01*
X12337050Y-16070636D01*
X12351336Y-16056350D01*
X12379907Y-16042064D01*
X12608478Y-16342064D02*
X12608478Y-16142064D01*
X12608478Y-16170636D02*
X12622764Y-16156350D01*
X12651336Y-16142064D01*
X12694193Y-16142064D01*
X12722764Y-16156350D01*
X12737050Y-16184921D01*
X12737050Y-16342064D01*
X12737050Y-16184921D02*
X12751336Y-16156350D01*
X12779907Y-16142064D01*
X12822764Y-16142064D01*
X12851336Y-16156350D01*
X12865621Y-16184921D01*
X12865621Y-16342064D01*
X13008478Y-16342064D02*
X13008478Y-16142064D01*
X13008478Y-16170636D02*
X13022764Y-16156350D01*
X13051336Y-16142064D01*
X13094193Y-16142064D01*
X13122764Y-16156350D01*
X13137050Y-16184921D01*
X13137050Y-16342064D01*
X13137050Y-16184921D02*
X13151336Y-16156350D01*
X13179907Y-16142064D01*
X13222764Y-16142064D01*
X13251336Y-16156350D01*
X13265621Y-16184921D01*
X13265621Y-16342064D01*
X13851336Y-16027779D02*
X13594193Y-16413493D01*
X14237050Y-16042064D02*
X14265621Y-16042064D01*
X14294193Y-16056350D01*
X14308478Y-16070636D01*
X14322764Y-16099207D01*
X14337050Y-16156350D01*
X14337050Y-16227779D01*
X14322764Y-16284921D01*
X14308478Y-16313493D01*
X14294193Y-16327779D01*
X14265621Y-16342064D01*
X14237050Y-16342064D01*
X14208478Y-16327779D01*
X14194193Y-16313493D01*
X14179907Y-16284921D01*
X14165621Y-16227779D01*
X14165621Y-16156350D01*
X14179907Y-16099207D01*
X14194193Y-16070636D01*
X14208478Y-16056350D01*
X14237050Y-16042064D01*
X14465621Y-16313493D02*
X14479907Y-16327779D01*
X14465621Y-16342064D01*
X14451336Y-16327779D01*
X14465621Y-16313493D01*
X14465621Y-16342064D01*
X14665621Y-16042064D02*
X14694193Y-16042064D01*
X14722764Y-16056350D01*
X14737050Y-16070636D01*
X14751336Y-16099207D01*
X14765621Y-16156350D01*
X14765621Y-16227779D01*
X14751336Y-16284921D01*
X14737050Y-16313493D01*
X14722764Y-16327779D01*
X14694193Y-16342064D01*
X14665621Y-16342064D01*
X14637050Y-16327779D01*
X14622764Y-16313493D01*
X14608478Y-16284921D01*
X14594193Y-16227779D01*
X14594193Y-16156350D01*
X14608478Y-16099207D01*
X14622764Y-16070636D01*
X14637050Y-16056350D01*
X14665621Y-16042064D01*
X15051336Y-16342064D02*
X14879907Y-16342064D01*
X14965621Y-16342064D02*
X14965621Y-16042064D01*
X14937050Y-16084921D01*
X14908478Y-16113493D01*
X14879907Y-16127779D01*
X15308478Y-16042064D02*
X15251336Y-16042064D01*
X15222764Y-16056350D01*
X15208478Y-16070636D01*
X15179907Y-16113493D01*
X15165621Y-16170636D01*
X15165621Y-16284921D01*
X15179907Y-16313493D01*
X15194193Y-16327779D01*
X15222764Y-16342064D01*
X15279907Y-16342064D01*
X15308478Y-16327779D01*
X15322764Y-16313493D01*
X15337050Y-16284921D01*
X15337050Y-16213493D01*
X15322764Y-16184921D01*
X15308478Y-16170636D01*
X15279907Y-16156350D01*
X15222764Y-16156350D01*
X15194193Y-16170636D01*
X15179907Y-16184921D01*
X15165621Y-16213493D01*
X15451336Y-16042064D02*
X15451336Y-16099207D01*
X15565621Y-16042064D02*
X15565621Y-16099207D01*
X16008478Y-16456350D02*
X15994193Y-16442064D01*
X15965621Y-16399207D01*
X15951336Y-16370636D01*
X15937050Y-16327779D01*
X15922764Y-16256350D01*
X15922764Y-16199207D01*
X15937050Y-16127779D01*
X15951336Y-16084921D01*
X15965621Y-16056350D01*
X15994193Y-16013493D01*
X16008478Y-15999207D01*
X16094193Y-16042064D02*
X16279907Y-16042064D01*
X16179907Y-16156350D01*
X16222764Y-16156350D01*
X16251336Y-16170636D01*
X16265621Y-16184921D01*
X16279907Y-16213493D01*
X16279907Y-16284921D01*
X16265621Y-16313493D01*
X16251336Y-16327779D01*
X16222764Y-16342064D01*
X16137050Y-16342064D01*
X16108478Y-16327779D01*
X16094193Y-16313493D01*
X16465621Y-16042064D02*
X16494193Y-16042064D01*
X16522764Y-16056350D01*
X16537050Y-16070636D01*
X16551336Y-16099207D01*
X16565621Y-16156350D01*
X16565621Y-16227779D01*
X16551336Y-16284921D01*
X16537050Y-16313493D01*
X16522764Y-16327779D01*
X16494193Y-16342064D01*
X16465621Y-16342064D01*
X16437050Y-16327779D01*
X16422764Y-16313493D01*
X16408478Y-16284921D01*
X16394193Y-16227779D01*
X16394193Y-16156350D01*
X16408478Y-16099207D01*
X16422764Y-16070636D01*
X16437050Y-16056350D01*
X16465621Y-16042064D01*
X16922764Y-16342064D02*
X16922764Y-16042064D01*
X17051336Y-16342064D02*
X17051336Y-16184921D01*
X17037050Y-16156350D01*
X17008478Y-16142064D01*
X16965621Y-16142064D01*
X16937050Y-16156350D01*
X16922764Y-16170636D01*
X17237050Y-16342064D02*
X17208478Y-16327779D01*
X17194193Y-16313493D01*
X17179907Y-16284921D01*
X17179907Y-16199207D01*
X17194193Y-16170636D01*
X17208478Y-16156350D01*
X17237050Y-16142064D01*
X17279907Y-16142064D01*
X17308478Y-16156350D01*
X17322764Y-16170636D01*
X17337050Y-16199207D01*
X17337050Y-16284921D01*
X17322764Y-16313493D01*
X17308478Y-16327779D01*
X17279907Y-16342064D01*
X17237050Y-16342064D01*
X17508478Y-16342064D02*
X17479907Y-16327779D01*
X17465621Y-16299207D01*
X17465621Y-16042064D01*
X17737050Y-16327779D02*
X17708478Y-16342064D01*
X17651336Y-16342064D01*
X17622764Y-16327779D01*
X17608478Y-16299207D01*
X17608478Y-16184921D01*
X17622764Y-16156350D01*
X17651336Y-16142064D01*
X17708478Y-16142064D01*
X17737050Y-16156350D01*
X17751336Y-16184921D01*
X17751336Y-16213493D01*
X17608478Y-16242064D01*
X17865621Y-16327779D02*
X17894193Y-16342064D01*
X17951336Y-16342064D01*
X17979907Y-16327779D01*
X17994193Y-16299207D01*
X17994193Y-16284921D01*
X17979907Y-16256350D01*
X17951336Y-16242064D01*
X17908478Y-16242064D01*
X17879907Y-16227779D01*
X17865621Y-16199207D01*
X17865621Y-16184921D01*
X17879907Y-16156350D01*
X17908478Y-16142064D01*
X17951336Y-16142064D01*
X17979907Y-16156350D01*
X18094193Y-16456350D02*
X18108478Y-16442064D01*
X18137050Y-16399207D01*
X18151336Y-16370636D01*
X18165621Y-16327779D01*
X18179907Y-16256350D01*
X18179907Y-16199207D01*
X18165621Y-16127779D01*
X18151336Y-16084921D01*
X18137050Y-16056350D01*
X18108478Y-16013493D01*
X18094193Y-15999207D01*
X11322050Y-16602350D02*
G75*
G03*
X11322050Y-16602350I-48500J0D01*
G01*
X11665621Y-16438064D02*
X11694193Y-16438064D01*
X11722764Y-16452350D01*
X11737050Y-16466636D01*
X11751336Y-16495207D01*
X11765621Y-16552350D01*
X11765621Y-16623779D01*
X11751336Y-16680921D01*
X11737050Y-16709493D01*
X11722764Y-16723779D01*
X11694193Y-16738064D01*
X11665621Y-16738064D01*
X11637050Y-16723779D01*
X11622764Y-16709493D01*
X11608478Y-16680921D01*
X11594193Y-16623779D01*
X11594193Y-16552350D01*
X11608478Y-16495207D01*
X11622764Y-16466636D01*
X11637050Y-16452350D01*
X11665621Y-16438064D01*
X11894193Y-16709493D02*
X11908478Y-16723779D01*
X11894193Y-16738064D01*
X11879907Y-16723779D01*
X11894193Y-16709493D01*
X11894193Y-16738064D01*
X12051336Y-16738064D02*
X12108478Y-16738064D01*
X12137050Y-16723779D01*
X12151336Y-16709493D01*
X12179907Y-16666636D01*
X12194193Y-16609493D01*
X12194193Y-16495207D01*
X12179907Y-16466636D01*
X12165621Y-16452350D01*
X12137050Y-16438064D01*
X12079907Y-16438064D01*
X12051336Y-16452350D01*
X12037050Y-16466636D01*
X12022764Y-16495207D01*
X12022764Y-16566636D01*
X12037050Y-16595207D01*
X12051336Y-16609493D01*
X12079907Y-16623779D01*
X12137050Y-16623779D01*
X12165621Y-16609493D01*
X12179907Y-16595207D01*
X12194193Y-16566636D01*
X12294193Y-16438064D02*
X12494193Y-16438064D01*
X12365621Y-16738064D01*
X12608478Y-16738064D02*
X12608478Y-16538064D01*
X12608478Y-16566636D02*
X12622764Y-16552350D01*
X12651336Y-16538064D01*
X12694193Y-16538064D01*
X12722764Y-16552350D01*
X12737050Y-16580921D01*
X12737050Y-16738064D01*
X12737050Y-16580921D02*
X12751336Y-16552350D01*
X12779907Y-16538064D01*
X12822764Y-16538064D01*
X12851336Y-16552350D01*
X12865621Y-16580921D01*
X12865621Y-16738064D01*
X13008478Y-16738064D02*
X13008478Y-16538064D01*
X13008478Y-16566636D02*
X13022764Y-16552350D01*
X13051336Y-16538064D01*
X13094193Y-16538064D01*
X13122764Y-16552350D01*
X13137050Y-16580921D01*
X13137050Y-16738064D01*
X13137050Y-16580921D02*
X13151336Y-16552350D01*
X13179907Y-16538064D01*
X13222764Y-16538064D01*
X13251336Y-16552350D01*
X13265621Y-16580921D01*
X13265621Y-16738064D01*
X13851336Y-16423779D02*
X13594193Y-16809493D01*
X14237050Y-16438064D02*
X14265621Y-16438064D01*
X14294193Y-16452350D01*
X14308478Y-16466636D01*
X14322764Y-16495207D01*
X14337050Y-16552350D01*
X14337050Y-16623779D01*
X14322764Y-16680921D01*
X14308478Y-16709493D01*
X14294193Y-16723779D01*
X14265621Y-16738064D01*
X14237050Y-16738064D01*
X14208478Y-16723779D01*
X14194193Y-16709493D01*
X14179907Y-16680921D01*
X14165621Y-16623779D01*
X14165621Y-16552350D01*
X14179907Y-16495207D01*
X14194193Y-16466636D01*
X14208478Y-16452350D01*
X14237050Y-16438064D01*
X14465621Y-16709493D02*
X14479907Y-16723779D01*
X14465621Y-16738064D01*
X14451336Y-16723779D01*
X14465621Y-16709493D01*
X14465621Y-16738064D01*
X14665621Y-16438064D02*
X14694193Y-16438064D01*
X14722764Y-16452350D01*
X14737050Y-16466636D01*
X14751336Y-16495207D01*
X14765621Y-16552350D01*
X14765621Y-16623779D01*
X14751336Y-16680921D01*
X14737050Y-16709493D01*
X14722764Y-16723779D01*
X14694193Y-16738064D01*
X14665621Y-16738064D01*
X14637050Y-16723779D01*
X14622764Y-16709493D01*
X14608478Y-16680921D01*
X14594193Y-16623779D01*
X14594193Y-16552350D01*
X14608478Y-16495207D01*
X14622764Y-16466636D01*
X14637050Y-16452350D01*
X14665621Y-16438064D01*
X14865621Y-16438064D02*
X15051336Y-16438064D01*
X14951336Y-16552350D01*
X14994193Y-16552350D01*
X15022764Y-16566636D01*
X15037050Y-16580921D01*
X15051336Y-16609493D01*
X15051336Y-16680921D01*
X15037050Y-16709493D01*
X15022764Y-16723779D01*
X14994193Y-16738064D01*
X14908478Y-16738064D01*
X14879907Y-16723779D01*
X14865621Y-16709493D01*
X15222764Y-16566636D02*
X15194193Y-16552350D01*
X15179907Y-16538064D01*
X15165621Y-16509493D01*
X15165621Y-16495207D01*
X15179907Y-16466636D01*
X15194193Y-16452350D01*
X15222764Y-16438064D01*
X15279907Y-16438064D01*
X15308478Y-16452350D01*
X15322764Y-16466636D01*
X15337050Y-16495207D01*
X15337050Y-16509493D01*
X15322764Y-16538064D01*
X15308478Y-16552350D01*
X15279907Y-16566636D01*
X15222764Y-16566636D01*
X15194193Y-16580921D01*
X15179907Y-16595207D01*
X15165621Y-16623779D01*
X15165621Y-16680921D01*
X15179907Y-16709493D01*
X15194193Y-16723779D01*
X15222764Y-16738064D01*
X15279907Y-16738064D01*
X15308478Y-16723779D01*
X15322764Y-16709493D01*
X15337050Y-16680921D01*
X15337050Y-16623779D01*
X15322764Y-16595207D01*
X15308478Y-16580921D01*
X15279907Y-16566636D01*
X15451336Y-16438064D02*
X15451336Y-16495207D01*
X15565621Y-16438064D02*
X15565621Y-16495207D01*
X16008478Y-16852350D02*
X15994193Y-16838064D01*
X15965621Y-16795207D01*
X15951336Y-16766636D01*
X15937050Y-16723779D01*
X15922764Y-16652350D01*
X15922764Y-16595207D01*
X15937050Y-16523779D01*
X15951336Y-16480921D01*
X15965621Y-16452350D01*
X15994193Y-16409493D01*
X16008478Y-16395207D01*
X16165621Y-16566636D02*
X16137050Y-16552350D01*
X16122764Y-16538064D01*
X16108478Y-16509493D01*
X16108478Y-16495207D01*
X16122764Y-16466636D01*
X16137050Y-16452350D01*
X16165621Y-16438064D01*
X16222764Y-16438064D01*
X16251336Y-16452350D01*
X16265621Y-16466636D01*
X16279907Y-16495207D01*
X16279907Y-16509493D01*
X16265621Y-16538064D01*
X16251336Y-16552350D01*
X16222764Y-16566636D01*
X16165621Y-16566636D01*
X16137050Y-16580921D01*
X16122764Y-16595207D01*
X16108478Y-16623779D01*
X16108478Y-16680921D01*
X16122764Y-16709493D01*
X16137050Y-16723779D01*
X16165621Y-16738064D01*
X16222764Y-16738064D01*
X16251336Y-16723779D01*
X16265621Y-16709493D01*
X16279907Y-16680921D01*
X16279907Y-16623779D01*
X16265621Y-16595207D01*
X16251336Y-16580921D01*
X16222764Y-16566636D01*
X16637050Y-16738064D02*
X16637050Y-16438064D01*
X16765621Y-16738064D02*
X16765621Y-16580921D01*
X16751336Y-16552350D01*
X16722764Y-16538064D01*
X16679907Y-16538064D01*
X16651336Y-16552350D01*
X16637050Y-16566636D01*
X16951336Y-16738064D02*
X16922764Y-16723779D01*
X16908478Y-16709493D01*
X16894193Y-16680921D01*
X16894193Y-16595207D01*
X16908478Y-16566636D01*
X16922764Y-16552350D01*
X16951336Y-16538064D01*
X16994193Y-16538064D01*
X17022764Y-16552350D01*
X17037050Y-16566636D01*
X17051336Y-16595207D01*
X17051336Y-16680921D01*
X17037050Y-16709493D01*
X17022764Y-16723779D01*
X16994193Y-16738064D01*
X16951336Y-16738064D01*
X17222764Y-16738064D02*
X17194193Y-16723779D01*
X17179907Y-16695207D01*
X17179907Y-16438064D01*
X17451336Y-16723779D02*
X17422764Y-16738064D01*
X17365621Y-16738064D01*
X17337050Y-16723779D01*
X17322764Y-16695207D01*
X17322764Y-16580921D01*
X17337050Y-16552350D01*
X17365621Y-16538064D01*
X17422764Y-16538064D01*
X17451336Y-16552350D01*
X17465621Y-16580921D01*
X17465621Y-16609493D01*
X17322764Y-16638064D01*
X17579907Y-16723779D02*
X17608478Y-16738064D01*
X17665621Y-16738064D01*
X17694193Y-16723779D01*
X17708478Y-16695207D01*
X17708478Y-16680921D01*
X17694193Y-16652350D01*
X17665621Y-16638064D01*
X17622764Y-16638064D01*
X17594193Y-16623779D01*
X17579907Y-16595207D01*
X17579907Y-16580921D01*
X17594193Y-16552350D01*
X17622764Y-16538064D01*
X17665621Y-16538064D01*
X17694193Y-16552350D01*
X17808478Y-16852350D02*
X17822764Y-16838064D01*
X17851336Y-16795207D01*
X17865621Y-16766636D01*
X17879907Y-16723779D01*
X17894193Y-16652350D01*
X17894193Y-16595207D01*
X17879907Y-16523779D01*
X17865621Y-16480921D01*
X17851336Y-16452350D01*
X17822764Y-16409493D01*
X17808478Y-16395207D01*
X11272050Y-16948350D02*
X11272050Y-17048350D01*
X11222050Y-16998350D02*
X11322050Y-16998350D01*
X11765621Y-17134064D02*
X11594193Y-17134064D01*
X11679907Y-17134064D02*
X11679907Y-16834064D01*
X11651336Y-16876922D01*
X11622764Y-16905493D01*
X11594193Y-16919779D01*
X11894193Y-17105493D02*
X11908478Y-17119779D01*
X11894193Y-17134064D01*
X11879907Y-17119779D01*
X11894193Y-17105493D01*
X11894193Y-17134064D01*
X12094193Y-16834064D02*
X12122764Y-16834064D01*
X12151336Y-16848350D01*
X12165621Y-16862636D01*
X12179907Y-16891207D01*
X12194193Y-16948350D01*
X12194193Y-17019779D01*
X12179907Y-17076922D01*
X12165621Y-17105493D01*
X12151336Y-17119779D01*
X12122764Y-17134064D01*
X12094193Y-17134064D01*
X12065621Y-17119779D01*
X12051336Y-17105493D01*
X12037050Y-17076922D01*
X12022764Y-17019779D01*
X12022764Y-16948350D01*
X12037050Y-16891207D01*
X12051336Y-16862636D01*
X12065621Y-16848350D01*
X12094193Y-16834064D01*
X12379907Y-16834064D02*
X12408478Y-16834064D01*
X12437050Y-16848350D01*
X12451336Y-16862636D01*
X12465621Y-16891207D01*
X12479907Y-16948350D01*
X12479907Y-17019779D01*
X12465621Y-17076922D01*
X12451336Y-17105493D01*
X12437050Y-17119779D01*
X12408478Y-17134064D01*
X12379907Y-17134064D01*
X12351336Y-17119779D01*
X12337050Y-17105493D01*
X12322764Y-17076922D01*
X12308478Y-17019779D01*
X12308478Y-16948350D01*
X12322764Y-16891207D01*
X12337050Y-16862636D01*
X12351336Y-16848350D01*
X12379907Y-16834064D01*
X12608478Y-17134064D02*
X12608478Y-16934064D01*
X12608478Y-16962636D02*
X12622764Y-16948350D01*
X12651336Y-16934064D01*
X12694193Y-16934064D01*
X12722764Y-16948350D01*
X12737050Y-16976922D01*
X12737050Y-17134064D01*
X12737050Y-16976922D02*
X12751336Y-16948350D01*
X12779907Y-16934064D01*
X12822764Y-16934064D01*
X12851336Y-16948350D01*
X12865621Y-16976922D01*
X12865621Y-17134064D01*
X13008478Y-17134064D02*
X13008478Y-16934064D01*
X13008478Y-16962636D02*
X13022764Y-16948350D01*
X13051336Y-16934064D01*
X13094193Y-16934064D01*
X13122764Y-16948350D01*
X13137050Y-16976922D01*
X13137050Y-17134064D01*
X13137050Y-16976922D02*
X13151336Y-16948350D01*
X13179907Y-16934064D01*
X13222764Y-16934064D01*
X13251336Y-16948350D01*
X13265621Y-16976922D01*
X13265621Y-17134064D01*
X13851336Y-16819779D02*
X13594193Y-17205493D01*
X14237050Y-16834064D02*
X14265621Y-16834064D01*
X14294193Y-16848350D01*
X14308478Y-16862636D01*
X14322764Y-16891207D01*
X14337050Y-16948350D01*
X14337050Y-17019779D01*
X14322764Y-17076922D01*
X14308478Y-17105493D01*
X14294193Y-17119779D01*
X14265621Y-17134064D01*
X14237050Y-17134064D01*
X14208478Y-17119779D01*
X14194193Y-17105493D01*
X14179907Y-17076922D01*
X14165621Y-17019779D01*
X14165621Y-16948350D01*
X14179907Y-16891207D01*
X14194193Y-16862636D01*
X14208478Y-16848350D01*
X14237050Y-16834064D01*
X14465621Y-17105493D02*
X14479907Y-17119779D01*
X14465621Y-17134064D01*
X14451336Y-17119779D01*
X14465621Y-17105493D01*
X14465621Y-17134064D01*
X14665621Y-16834064D02*
X14694193Y-16834064D01*
X14722764Y-16848350D01*
X14737050Y-16862636D01*
X14751336Y-16891207D01*
X14765621Y-16948350D01*
X14765621Y-17019779D01*
X14751336Y-17076922D01*
X14737050Y-17105493D01*
X14722764Y-17119779D01*
X14694193Y-17134064D01*
X14665621Y-17134064D01*
X14637050Y-17119779D01*
X14622764Y-17105493D01*
X14608478Y-17076922D01*
X14594193Y-17019779D01*
X14594193Y-16948350D01*
X14608478Y-16891207D01*
X14622764Y-16862636D01*
X14637050Y-16848350D01*
X14665621Y-16834064D01*
X14865621Y-16834064D02*
X15051336Y-16834064D01*
X14951336Y-16948350D01*
X14994193Y-16948350D01*
X15022764Y-16962636D01*
X15037050Y-16976922D01*
X15051336Y-17005493D01*
X15051336Y-17076922D01*
X15037050Y-17105493D01*
X15022764Y-17119779D01*
X14994193Y-17134064D01*
X14908478Y-17134064D01*
X14879907Y-17119779D01*
X14865621Y-17105493D01*
X15194193Y-17134064D02*
X15251336Y-17134064D01*
X15279907Y-17119779D01*
X15294193Y-17105493D01*
X15322764Y-17062636D01*
X15337050Y-17005493D01*
X15337050Y-16891207D01*
X15322764Y-16862636D01*
X15308478Y-16848350D01*
X15279907Y-16834064D01*
X15222764Y-16834064D01*
X15194193Y-16848350D01*
X15179907Y-16862636D01*
X15165621Y-16891207D01*
X15165621Y-16962636D01*
X15179907Y-16991207D01*
X15194193Y-17005493D01*
X15222764Y-17019779D01*
X15279907Y-17019779D01*
X15308478Y-17005493D01*
X15322764Y-16991207D01*
X15337050Y-16962636D01*
X15451336Y-16834064D02*
X15451336Y-16891207D01*
X15565621Y-16834064D02*
X15565621Y-16891207D01*
X16008478Y-17248350D02*
X15994193Y-17234064D01*
X15965621Y-17191207D01*
X15951336Y-17162636D01*
X15937050Y-17119779D01*
X15922764Y-17048350D01*
X15922764Y-16991207D01*
X15937050Y-16919779D01*
X15951336Y-16876922D01*
X15965621Y-16848350D01*
X15994193Y-16805493D01*
X16008478Y-16791207D01*
X16251336Y-16934064D02*
X16251336Y-17134064D01*
X16179907Y-16819779D02*
X16108478Y-17034064D01*
X16294193Y-17034064D01*
X16379907Y-16834064D02*
X16565621Y-16834064D01*
X16465621Y-16948350D01*
X16508478Y-16948350D01*
X16537050Y-16962636D01*
X16551336Y-16976922D01*
X16565621Y-17005493D01*
X16565621Y-17076922D01*
X16551336Y-17105493D01*
X16537050Y-17119779D01*
X16508478Y-17134064D01*
X16422764Y-17134064D01*
X16394193Y-17119779D01*
X16379907Y-17105493D01*
X16922764Y-17134064D02*
X16922764Y-16834064D01*
X17051336Y-17134064D02*
X17051336Y-16976922D01*
X17037050Y-16948350D01*
X17008478Y-16934064D01*
X16965621Y-16934064D01*
X16937050Y-16948350D01*
X16922764Y-16962636D01*
X17237050Y-17134064D02*
X17208478Y-17119779D01*
X17194193Y-17105493D01*
X17179907Y-17076922D01*
X17179907Y-16991207D01*
X17194193Y-16962636D01*
X17208478Y-16948350D01*
X17237050Y-16934064D01*
X17279907Y-16934064D01*
X17308478Y-16948350D01*
X17322764Y-16962636D01*
X17337050Y-16991207D01*
X17337050Y-17076922D01*
X17322764Y-17105493D01*
X17308478Y-17119779D01*
X17279907Y-17134064D01*
X17237050Y-17134064D01*
X17508478Y-17134064D02*
X17479907Y-17119779D01*
X17465621Y-17091207D01*
X17465621Y-16834064D01*
X17737050Y-17119779D02*
X17708478Y-17134064D01*
X17651336Y-17134064D01*
X17622764Y-17119779D01*
X17608478Y-17091207D01*
X17608478Y-16976922D01*
X17622764Y-16948350D01*
X17651336Y-16934064D01*
X17708478Y-16934064D01*
X17737050Y-16948350D01*
X17751336Y-16976922D01*
X17751336Y-17005493D01*
X17608478Y-17034064D01*
X17865621Y-17119779D02*
X17894193Y-17134064D01*
X17951336Y-17134064D01*
X17979907Y-17119779D01*
X17994193Y-17091207D01*
X17994193Y-17076922D01*
X17979907Y-17048350D01*
X17951336Y-17034064D01*
X17908478Y-17034064D01*
X17879907Y-17019779D01*
X17865621Y-16991207D01*
X17865621Y-16976922D01*
X17879907Y-16948350D01*
X17908478Y-16934064D01*
X17951336Y-16934064D01*
X17979907Y-16948350D01*
X18094193Y-17248350D02*
X18108478Y-17234064D01*
X18137050Y-17191207D01*
X18151336Y-17162636D01*
X18165621Y-17119779D01*
X18179907Y-17048350D01*
X18179907Y-16991207D01*
X18165621Y-16919779D01*
X18151336Y-16876922D01*
X18137050Y-16848350D01*
X18108478Y-16805493D01*
X18094193Y-16791207D01*
X11297887Y-17452687D02*
X11297887Y-17336013D01*
X11181213Y-17336013D01*
X11181213Y-17452687D01*
X11297887Y-17452687D01*
X11765621Y-17530064D02*
X11594193Y-17530064D01*
X11679907Y-17530064D02*
X11679907Y-17230064D01*
X11651336Y-17272922D01*
X11622764Y-17301493D01*
X11594193Y-17315779D01*
X11894193Y-17501493D02*
X11908478Y-17515779D01*
X11894193Y-17530064D01*
X11879907Y-17515779D01*
X11894193Y-17501493D01*
X11894193Y-17530064D01*
X12165621Y-17230064D02*
X12108478Y-17230064D01*
X12079907Y-17244350D01*
X12065621Y-17258636D01*
X12037050Y-17301493D01*
X12022764Y-17358636D01*
X12022764Y-17472922D01*
X12037050Y-17501493D01*
X12051336Y-17515779D01*
X12079907Y-17530064D01*
X12137050Y-17530064D01*
X12165621Y-17515779D01*
X12179907Y-17501493D01*
X12194193Y-17472922D01*
X12194193Y-17401493D01*
X12179907Y-17372922D01*
X12165621Y-17358636D01*
X12137050Y-17344350D01*
X12079907Y-17344350D01*
X12051336Y-17358636D01*
X12037050Y-17372922D01*
X12022764Y-17401493D01*
X12465621Y-17230064D02*
X12322764Y-17230064D01*
X12308478Y-17372922D01*
X12322764Y-17358636D01*
X12351336Y-17344350D01*
X12422764Y-17344350D01*
X12451336Y-17358636D01*
X12465621Y-17372922D01*
X12479907Y-17401493D01*
X12479907Y-17472922D01*
X12465621Y-17501493D01*
X12451336Y-17515779D01*
X12422764Y-17530064D01*
X12351336Y-17530064D01*
X12322764Y-17515779D01*
X12308478Y-17501493D01*
X12608478Y-17530064D02*
X12608478Y-17330064D01*
X12608478Y-17358636D02*
X12622764Y-17344350D01*
X12651336Y-17330064D01*
X12694193Y-17330064D01*
X12722764Y-17344350D01*
X12737050Y-17372922D01*
X12737050Y-17530064D01*
X12737050Y-17372922D02*
X12751336Y-17344350D01*
X12779907Y-17330064D01*
X12822764Y-17330064D01*
X12851336Y-17344350D01*
X12865621Y-17372922D01*
X12865621Y-17530064D01*
X13008478Y-17530064D02*
X13008478Y-17330064D01*
X13008478Y-17358636D02*
X13022764Y-17344350D01*
X13051336Y-17330064D01*
X13094193Y-17330064D01*
X13122764Y-17344350D01*
X13137050Y-17372922D01*
X13137050Y-17530064D01*
X13137050Y-17372922D02*
X13151336Y-17344350D01*
X13179907Y-17330064D01*
X13222764Y-17330064D01*
X13251336Y-17344350D01*
X13265621Y-17372922D01*
X13265621Y-17530064D01*
X13851336Y-17215779D02*
X13594193Y-17601493D01*
X14237050Y-17230064D02*
X14265621Y-17230064D01*
X14294193Y-17244350D01*
X14308478Y-17258636D01*
X14322764Y-17287207D01*
X14337050Y-17344350D01*
X14337050Y-17415779D01*
X14322764Y-17472922D01*
X14308478Y-17501493D01*
X14294193Y-17515779D01*
X14265621Y-17530064D01*
X14237050Y-17530064D01*
X14208478Y-17515779D01*
X14194193Y-17501493D01*
X14179907Y-17472922D01*
X14165621Y-17415779D01*
X14165621Y-17344350D01*
X14179907Y-17287207D01*
X14194193Y-17258636D01*
X14208478Y-17244350D01*
X14237050Y-17230064D01*
X14465621Y-17501493D02*
X14479907Y-17515779D01*
X14465621Y-17530064D01*
X14451336Y-17515779D01*
X14465621Y-17501493D01*
X14465621Y-17530064D01*
X14665621Y-17230064D02*
X14694193Y-17230064D01*
X14722764Y-17244350D01*
X14737050Y-17258636D01*
X14751336Y-17287207D01*
X14765621Y-17344350D01*
X14765621Y-17415779D01*
X14751336Y-17472922D01*
X14737050Y-17501493D01*
X14722764Y-17515779D01*
X14694193Y-17530064D01*
X14665621Y-17530064D01*
X14637050Y-17515779D01*
X14622764Y-17501493D01*
X14608478Y-17472922D01*
X14594193Y-17415779D01*
X14594193Y-17344350D01*
X14608478Y-17287207D01*
X14622764Y-17258636D01*
X14637050Y-17244350D01*
X14665621Y-17230064D01*
X15022764Y-17230064D02*
X14965621Y-17230064D01*
X14937050Y-17244350D01*
X14922764Y-17258636D01*
X14894193Y-17301493D01*
X14879907Y-17358636D01*
X14879907Y-17472922D01*
X14894193Y-17501493D01*
X14908478Y-17515779D01*
X14937050Y-17530064D01*
X14994193Y-17530064D01*
X15022764Y-17515779D01*
X15037050Y-17501493D01*
X15051336Y-17472922D01*
X15051336Y-17401493D01*
X15037050Y-17372922D01*
X15022764Y-17358636D01*
X14994193Y-17344350D01*
X14937050Y-17344350D01*
X14908478Y-17358636D01*
X14894193Y-17372922D01*
X14879907Y-17401493D01*
X15322764Y-17230064D02*
X15179907Y-17230064D01*
X15165621Y-17372922D01*
X15179907Y-17358636D01*
X15208478Y-17344350D01*
X15279907Y-17344350D01*
X15308478Y-17358636D01*
X15322764Y-17372922D01*
X15337050Y-17401493D01*
X15337050Y-17472922D01*
X15322764Y-17501493D01*
X15308478Y-17515779D01*
X15279907Y-17530064D01*
X15208478Y-17530064D01*
X15179907Y-17515779D01*
X15165621Y-17501493D01*
X15451336Y-17230064D02*
X15451336Y-17287207D01*
X15565621Y-17230064D02*
X15565621Y-17287207D01*
X16008478Y-17644350D02*
X15994193Y-17630064D01*
X15965621Y-17587207D01*
X15951336Y-17558636D01*
X15937050Y-17515779D01*
X15922764Y-17444350D01*
X15922764Y-17387207D01*
X15937050Y-17315779D01*
X15951336Y-17272922D01*
X15965621Y-17244350D01*
X15994193Y-17201493D01*
X16008478Y-17187207D01*
X16108478Y-17258636D02*
X16122764Y-17244350D01*
X16151336Y-17230064D01*
X16222764Y-17230064D01*
X16251336Y-17244350D01*
X16265621Y-17258636D01*
X16279907Y-17287207D01*
X16279907Y-17315779D01*
X16265621Y-17358636D01*
X16094193Y-17530064D01*
X16279907Y-17530064D01*
X16637050Y-17530064D02*
X16637050Y-17230064D01*
X16765621Y-17530064D02*
X16765621Y-17372922D01*
X16751336Y-17344350D01*
X16722764Y-17330064D01*
X16679907Y-17330064D01*
X16651336Y-17344350D01*
X16637050Y-17358636D01*
X16951336Y-17530064D02*
X16922764Y-17515779D01*
X16908478Y-17501493D01*
X16894193Y-17472922D01*
X16894193Y-17387207D01*
X16908478Y-17358636D01*
X16922764Y-17344350D01*
X16951336Y-17330064D01*
X16994193Y-17330064D01*
X17022764Y-17344350D01*
X17037050Y-17358636D01*
X17051336Y-17387207D01*
X17051336Y-17472922D01*
X17037050Y-17501493D01*
X17022764Y-17515779D01*
X16994193Y-17530064D01*
X16951336Y-17530064D01*
X17222764Y-17530064D02*
X17194193Y-17515779D01*
X17179907Y-17487207D01*
X17179907Y-17230064D01*
X17451336Y-17515779D02*
X17422764Y-17530064D01*
X17365621Y-17530064D01*
X17337050Y-17515779D01*
X17322764Y-17487207D01*
X17322764Y-17372922D01*
X17337050Y-17344350D01*
X17365621Y-17330064D01*
X17422764Y-17330064D01*
X17451336Y-17344350D01*
X17465621Y-17372922D01*
X17465621Y-17401493D01*
X17322764Y-17430064D01*
X17579907Y-17515779D02*
X17608478Y-17530064D01*
X17665621Y-17530064D01*
X17694193Y-17515779D01*
X17708478Y-17487207D01*
X17708478Y-17472922D01*
X17694193Y-17444350D01*
X17665621Y-17430064D01*
X17622764Y-17430064D01*
X17594193Y-17415779D01*
X17579907Y-17387207D01*
X17579907Y-17372922D01*
X17594193Y-17344350D01*
X17622764Y-17330064D01*
X17665621Y-17330064D01*
X17694193Y-17344350D01*
X17808478Y-17644350D02*
X17822764Y-17630064D01*
X17851336Y-17587207D01*
X17865621Y-17558636D01*
X17879907Y-17515779D01*
X17894193Y-17444350D01*
X17894193Y-17387207D01*
X17879907Y-17315779D01*
X17865621Y-17272922D01*
X17851336Y-17244350D01*
X17822764Y-17201493D01*
X17808478Y-17187207D01*
X11157050Y-17955350D02*
X11322050Y-17790350D01*
X11157050Y-17625350D01*
X10992050Y-17790350D01*
X11157050Y-17955350D01*
X11579907Y-17626064D02*
X11765621Y-17626064D01*
X11665621Y-17740350D01*
X11708478Y-17740350D01*
X11737050Y-17754636D01*
X11751336Y-17768922D01*
X11765621Y-17797493D01*
X11765621Y-17868922D01*
X11751336Y-17897493D01*
X11737050Y-17911779D01*
X11708478Y-17926064D01*
X11622764Y-17926064D01*
X11594193Y-17911779D01*
X11579907Y-17897493D01*
X11894193Y-17897493D02*
X11908478Y-17911779D01*
X11894193Y-17926064D01*
X11879907Y-17911779D01*
X11894193Y-17897493D01*
X11894193Y-17926064D01*
X12008478Y-17626064D02*
X12194193Y-17626064D01*
X12094193Y-17740350D01*
X12137050Y-17740350D01*
X12165621Y-17754636D01*
X12179907Y-17768922D01*
X12194193Y-17797493D01*
X12194193Y-17868922D01*
X12179907Y-17897493D01*
X12165621Y-17911779D01*
X12137050Y-17926064D01*
X12051336Y-17926064D01*
X12022764Y-17911779D01*
X12008478Y-17897493D01*
X12379907Y-17626064D02*
X12408478Y-17626064D01*
X12437050Y-17640350D01*
X12451336Y-17654636D01*
X12465621Y-17683207D01*
X12479907Y-17740350D01*
X12479907Y-17811779D01*
X12465621Y-17868922D01*
X12451336Y-17897493D01*
X12437050Y-17911779D01*
X12408478Y-17926064D01*
X12379907Y-17926064D01*
X12351336Y-17911779D01*
X12337050Y-17897493D01*
X12322764Y-17868922D01*
X12308478Y-17811779D01*
X12308478Y-17740350D01*
X12322764Y-17683207D01*
X12337050Y-17654636D01*
X12351336Y-17640350D01*
X12379907Y-17626064D01*
X12608478Y-17926064D02*
X12608478Y-17726064D01*
X12608478Y-17754636D02*
X12622764Y-17740350D01*
X12651336Y-17726064D01*
X12694193Y-17726064D01*
X12722764Y-17740350D01*
X12737050Y-17768922D01*
X12737050Y-17926064D01*
X12737050Y-17768922D02*
X12751336Y-17740350D01*
X12779907Y-17726064D01*
X12822764Y-17726064D01*
X12851336Y-17740350D01*
X12865621Y-17768922D01*
X12865621Y-17926064D01*
X13008478Y-17926064D02*
X13008478Y-17726064D01*
X13008478Y-17754636D02*
X13022764Y-17740350D01*
X13051336Y-17726064D01*
X13094193Y-17726064D01*
X13122764Y-17740350D01*
X13137050Y-17768922D01*
X13137050Y-17926064D01*
X13137050Y-17768922D02*
X13151336Y-17740350D01*
X13179907Y-17726064D01*
X13222764Y-17726064D01*
X13251336Y-17740350D01*
X13265621Y-17768922D01*
X13265621Y-17926064D01*
X13851336Y-17611779D02*
X13594193Y-17997493D01*
X14237050Y-17626064D02*
X14265621Y-17626064D01*
X14294193Y-17640350D01*
X14308478Y-17654636D01*
X14322764Y-17683207D01*
X14337050Y-17740350D01*
X14337050Y-17811779D01*
X14322764Y-17868922D01*
X14308478Y-17897493D01*
X14294193Y-17911779D01*
X14265621Y-17926064D01*
X14237050Y-17926064D01*
X14208478Y-17911779D01*
X14194193Y-17897493D01*
X14179907Y-17868922D01*
X14165621Y-17811779D01*
X14165621Y-17740350D01*
X14179907Y-17683207D01*
X14194193Y-17654636D01*
X14208478Y-17640350D01*
X14237050Y-17626064D01*
X14465621Y-17897493D02*
X14479907Y-17911779D01*
X14465621Y-17926064D01*
X14451336Y-17911779D01*
X14465621Y-17897493D01*
X14465621Y-17926064D01*
X14765621Y-17926064D02*
X14594193Y-17926064D01*
X14679907Y-17926064D02*
X14679907Y-17626064D01*
X14651336Y-17668922D01*
X14622764Y-17697493D01*
X14594193Y-17711779D01*
X14865621Y-17626064D02*
X15051336Y-17626064D01*
X14951336Y-17740350D01*
X14994193Y-17740350D01*
X15022764Y-17754636D01*
X15037050Y-17768922D01*
X15051336Y-17797493D01*
X15051336Y-17868922D01*
X15037050Y-17897493D01*
X15022764Y-17911779D01*
X14994193Y-17926064D01*
X14908478Y-17926064D01*
X14879907Y-17911779D01*
X14865621Y-17897493D01*
X15237050Y-17626064D02*
X15265621Y-17626064D01*
X15294193Y-17640350D01*
X15308478Y-17654636D01*
X15322764Y-17683207D01*
X15337050Y-17740350D01*
X15337050Y-17811779D01*
X15322764Y-17868922D01*
X15308478Y-17897493D01*
X15294193Y-17911779D01*
X15265621Y-17926064D01*
X15237050Y-17926064D01*
X15208478Y-17911779D01*
X15194193Y-17897493D01*
X15179907Y-17868922D01*
X15165621Y-17811779D01*
X15165621Y-17740350D01*
X15179907Y-17683207D01*
X15194193Y-17654636D01*
X15208478Y-17640350D01*
X15237050Y-17626064D01*
X15451336Y-17626064D02*
X15451336Y-17683207D01*
X15565621Y-17626064D02*
X15565621Y-17683207D01*
X16008478Y-18040350D02*
X15994193Y-18026064D01*
X15965621Y-17983207D01*
X15951336Y-17954636D01*
X15937050Y-17911779D01*
X15922764Y-17840350D01*
X15922764Y-17783207D01*
X15937050Y-17711779D01*
X15951336Y-17668922D01*
X15965621Y-17640350D01*
X15994193Y-17597493D01*
X16008478Y-17583207D01*
X16108478Y-17654636D02*
X16122764Y-17640350D01*
X16151336Y-17626064D01*
X16222764Y-17626064D01*
X16251336Y-17640350D01*
X16265621Y-17654636D01*
X16279907Y-17683207D01*
X16279907Y-17711779D01*
X16265621Y-17754636D01*
X16094193Y-17926064D01*
X16279907Y-17926064D01*
X16637050Y-17926064D02*
X16637050Y-17626064D01*
X16765621Y-17926064D02*
X16765621Y-17768922D01*
X16751336Y-17740350D01*
X16722764Y-17726064D01*
X16679907Y-17726064D01*
X16651336Y-17740350D01*
X16637050Y-17754636D01*
X16951336Y-17926064D02*
X16922764Y-17911779D01*
X16908478Y-17897493D01*
X16894193Y-17868922D01*
X16894193Y-17783207D01*
X16908478Y-17754636D01*
X16922764Y-17740350D01*
X16951336Y-17726064D01*
X16994193Y-17726064D01*
X17022764Y-17740350D01*
X17037050Y-17754636D01*
X17051336Y-17783207D01*
X17051336Y-17868922D01*
X17037050Y-17897493D01*
X17022764Y-17911779D01*
X16994193Y-17926064D01*
X16951336Y-17926064D01*
X17222764Y-17926064D02*
X17194193Y-17911779D01*
X17179907Y-17883207D01*
X17179907Y-17626064D01*
X17451336Y-17911779D02*
X17422764Y-17926064D01*
X17365621Y-17926064D01*
X17337050Y-17911779D01*
X17322764Y-17883207D01*
X17322764Y-17768922D01*
X17337050Y-17740350D01*
X17365621Y-17726064D01*
X17422764Y-17726064D01*
X17451336Y-17740350D01*
X17465621Y-17768922D01*
X17465621Y-17797493D01*
X17322764Y-17826064D01*
X17579907Y-17911779D02*
X17608478Y-17926064D01*
X17665621Y-17926064D01*
X17694193Y-17911779D01*
X17708478Y-17883207D01*
X17708478Y-17868922D01*
X17694193Y-17840350D01*
X17665621Y-17826064D01*
X17622764Y-17826064D01*
X17594193Y-17811779D01*
X17579907Y-17783207D01*
X17579907Y-17768922D01*
X17594193Y-17740350D01*
X17622764Y-17726064D01*
X17665621Y-17726064D01*
X17694193Y-17740350D01*
X17808478Y-18040350D02*
X17822764Y-18026064D01*
X17851336Y-17983207D01*
X17865621Y-17954636D01*
X17879907Y-17911779D01*
X17894193Y-17840350D01*
X17894193Y-17783207D01*
X17879907Y-17711779D01*
X17865621Y-17668922D01*
X17851336Y-17640350D01*
X17822764Y-17597493D01*
X17808478Y-17583207D01*
M02*
