%TF.GenerationSoftware,KiCad,Pcbnew,(5.1.6-0-10_14)*%
%TF.CreationDate,2022-12-11T12:30:35+09:00*%
%TF.ProjectId,MuxReadoutBoard,4d757852-6561-4646-9f75-74426f617264,rev?*%
%TF.SameCoordinates,Original*%
%TF.FileFunction,Copper,L1,Top*%
%TF.FilePolarity,Positive*%
%FSLAX46Y46*%
G04 Gerber Fmt 4.6, Leading zero omitted, Abs format (unit mm)*
G04 Created by KiCad (PCBNEW (5.1.6-0-10_14)) date 2022-12-11 12:30:35*
%MOMM*%
%LPD*%
G01*
G04 APERTURE LIST*
%TA.AperFunction,ComponentPad*%
%ADD10C,2.475000*%
%TD*%
%TA.AperFunction,ComponentPad*%
%ADD11C,1.650000*%
%TD*%
%TA.AperFunction,ComponentPad*%
%ADD12C,1.509000*%
%TD*%
%TA.AperFunction,ComponentPad*%
%ADD13O,1.700000X1.700000*%
%TD*%
%TA.AperFunction,ComponentPad*%
%ADD14R,1.700000X1.700000*%
%TD*%
%TA.AperFunction,ViaPad*%
%ADD15C,0.800000*%
%TD*%
%TA.AperFunction,Conductor*%
%ADD16C,0.254000*%
%TD*%
G04 APERTURE END LIST*
D10*
%TO.P,J1,MH4*%
%TO.N,GND*%
X122810000Y-122071000D03*
%TO.P,J1,MH3*%
X122810000Y-138271000D03*
D11*
%TO.P,J1,MH2*%
%TO.N,N/C*%
X119380000Y-123821000D03*
%TO.P,J1,MH1*%
X119380000Y-136521000D03*
D12*
%TO.P,J1,8*%
%TO.N,Net-(J1-Pad8)*%
X123700000Y-126591000D03*
%TO.P,J1,7*%
%TO.N,Net-(J1-Pad7)*%
X121920000Y-127611000D03*
%TO.P,J1,6*%
%TO.N,Net-(J1-Pad6)*%
X123700000Y-128631000D03*
%TO.P,J1,5*%
%TO.N,Net-(J1-Pad5)*%
X121920000Y-129651000D03*
%TO.P,J1,4*%
%TO.N,Net-(J1-Pad4)*%
X123700000Y-130671000D03*
%TO.P,J1,3*%
%TO.N,Net-(J1-Pad3)*%
X121920000Y-131691000D03*
%TO.P,J1,2*%
%TO.N,Net-(J1-Pad2)*%
X123700000Y-132711000D03*
%TO.P,J1,1*%
%TO.N,Net-(J1-Pad1)*%
X121920000Y-133731000D03*
%TD*%
D13*
%TO.P,J5,8*%
%TO.N,Net-(J5-Pad8)*%
X147320000Y-149860000D03*
%TO.P,J5,7*%
%TO.N,GND*%
X144780000Y-149860000D03*
%TO.P,J5,6*%
X142240000Y-149860000D03*
%TO.P,J5,5*%
%TO.N,+5V*%
X139700000Y-149860000D03*
%TO.P,J5,4*%
%TO.N,+3V3*%
X137160000Y-149860000D03*
%TO.P,J5,3*%
%TO.N,Net-(J5-Pad3)*%
X134620000Y-149860000D03*
%TO.P,J5,2*%
%TO.N,Net-(J5-Pad2)*%
X132080000Y-149860000D03*
D14*
%TO.P,J5,1*%
%TO.N,Net-(J5-Pad1)*%
X129540000Y-149860000D03*
%TD*%
D13*
%TO.P,J3,10*%
%TO.N,Net-(J3-Pad10)*%
X143256000Y-101600000D03*
%TO.P,J3,9*%
%TO.N,Net-(J3-Pad9)*%
X140716000Y-101600000D03*
%TO.P,J3,8*%
%TO.N,Net-(J3-Pad8)*%
X138176000Y-101600000D03*
%TO.P,J3,7*%
%TO.N,Net-(J3-Pad7)*%
X135636000Y-101600000D03*
%TO.P,J3,6*%
%TO.N,Net-(J3-Pad6)*%
X133096000Y-101600000D03*
%TO.P,J3,5*%
%TO.N,Net-(J3-Pad5)*%
X130556000Y-101600000D03*
%TO.P,J3,4*%
%TO.N,GND*%
X128016000Y-101600000D03*
%TO.P,J3,3*%
%TO.N,Net-(J3-Pad3)*%
X125476000Y-101600000D03*
%TO.P,J3,2*%
%TO.N,Net-(J3-Pad2)*%
X122936000Y-101600000D03*
D14*
%TO.P,J3,1*%
%TO.N,Net-(J3-Pad1)*%
X120396000Y-101600000D03*
%TD*%
D13*
%TO.P,J4,8*%
%TO.N,Net-(J4-Pad8)*%
X165100000Y-101600000D03*
%TO.P,J4,7*%
%TO.N,Net-(J4-Pad7)*%
X162560000Y-101600000D03*
%TO.P,J4,6*%
%TO.N,Net-(J4-Pad6)*%
X160020000Y-101600000D03*
%TO.P,J4,5*%
%TO.N,Net-(J4-Pad5)*%
X157480000Y-101600000D03*
%TO.P,J4,4*%
%TO.N,Net-(J4-Pad4)*%
X154940000Y-101600000D03*
%TO.P,J4,3*%
%TO.N,Net-(J4-Pad3)*%
X152400000Y-101600000D03*
%TO.P,J4,2*%
%TO.N,Net-(J4-Pad2)*%
X149860000Y-101600000D03*
D14*
%TO.P,J4,1*%
%TO.N,Net-(J4-Pad1)*%
X147320000Y-101600000D03*
%TD*%
D13*
%TO.P,J6,6*%
%TO.N,Net-(J6-Pad6)*%
X165100000Y-149860000D03*
%TO.P,J6,5*%
%TO.N,Net-(J6-Pad5)*%
X162560000Y-149860000D03*
%TO.P,J6,4*%
%TO.N,Net-(J6-Pad4)*%
X160020000Y-149860000D03*
%TO.P,J6,3*%
%TO.N,Net-(J6-Pad3)*%
X157480000Y-149860000D03*
%TO.P,J6,2*%
%TO.N,Net-(J6-Pad2)*%
X154940000Y-149860000D03*
D14*
%TO.P,J6,1*%
%TO.N,Net-(J6-Pad1)*%
X152400000Y-149860000D03*
%TD*%
D13*
%TO.P,J2,8*%
%TO.N,Net-(J1-Pad8)*%
X136906000Y-126746000D03*
%TO.P,J2,7*%
%TO.N,Net-(J1-Pad7)*%
X139446000Y-126746000D03*
%TO.P,J2,6*%
%TO.N,Net-(J1-Pad6)*%
X136906000Y-129286000D03*
%TO.P,J2,5*%
%TO.N,Net-(J1-Pad5)*%
X139446000Y-129286000D03*
%TO.P,J2,4*%
%TO.N,Net-(J1-Pad4)*%
X136906000Y-131826000D03*
%TO.P,J2,3*%
%TO.N,Net-(J1-Pad3)*%
X139446000Y-131826000D03*
%TO.P,J2,2*%
%TO.N,Net-(J1-Pad2)*%
X136906000Y-134366000D03*
D14*
%TO.P,J2,1*%
%TO.N,Net-(J1-Pad1)*%
X139446000Y-134366000D03*
%TD*%
D13*
%TO.P,J7,3*%
%TO.N,+2V5*%
X152146000Y-139700000D03*
%TO.P,J7,2*%
%TO.N,Net-(C2-Pad1)*%
X149606000Y-139700000D03*
D14*
%TO.P,J7,1*%
%TO.N,+3V3*%
X147066000Y-139700000D03*
%TD*%
D15*
%TO.N,*%
X195834000Y-161290000D03*
%TO.N,GND*%
X161290000Y-123698000D03*
X161290000Y-132588000D03*
X158242000Y-138684000D03*
X152400000Y-137414000D03*
X156972000Y-132588000D03*
X153924000Y-141986000D03*
X148336000Y-144526000D03*
X142494000Y-144526000D03*
X139700000Y-141986000D03*
X167640000Y-140716000D03*
X167640000Y-130302000D03*
X167640000Y-120904000D03*
X165354000Y-112522000D03*
X165100000Y-104902000D03*
X145288000Y-103378000D03*
X140716000Y-103378000D03*
X116840000Y-105664000D03*
X117094000Y-120396000D03*
X117094000Y-130302000D03*
X117094000Y-139954000D03*
X120396000Y-149860000D03*
X126492000Y-149860000D03*
X130048000Y-142748000D03*
X126492000Y-112522000D03*
X142240000Y-122682000D03*
X154940000Y-110998000D03*
X144018000Y-110998000D03*
X130556000Y-122682000D03*
X159004000Y-144272000D03*
%TD*%
D16*
%TO.N,GND*%
G36*
X115401513Y-99847199D02*
G01*
X115087199Y-100161513D01*
X114840244Y-100531108D01*
X114670138Y-100941779D01*
X114583419Y-101377746D01*
X114583419Y-101822254D01*
X114670138Y-102258221D01*
X114840244Y-102668892D01*
X115087199Y-103038487D01*
X115401513Y-103352801D01*
X115771108Y-103599756D01*
X116181779Y-103769862D01*
X116617746Y-103856581D01*
X117062254Y-103856581D01*
X117498221Y-103769862D01*
X117908892Y-103599756D01*
X118278487Y-103352801D01*
X118592801Y-103038487D01*
X118839756Y-102668892D01*
X118912249Y-102493878D01*
X118920188Y-102574482D01*
X118956498Y-102694180D01*
X119015463Y-102804494D01*
X119094815Y-102901185D01*
X119191506Y-102980537D01*
X119301820Y-103039502D01*
X119421518Y-103075812D01*
X119546000Y-103088072D01*
X121246000Y-103088072D01*
X121370482Y-103075812D01*
X121490180Y-103039502D01*
X121600494Y-102980537D01*
X121697185Y-102901185D01*
X121776537Y-102804494D01*
X121835502Y-102694180D01*
X121857513Y-102621620D01*
X121989368Y-102753475D01*
X122232589Y-102915990D01*
X122502842Y-103027932D01*
X122789740Y-103085000D01*
X123082260Y-103085000D01*
X123369158Y-103027932D01*
X123639411Y-102915990D01*
X123882632Y-102753475D01*
X124089475Y-102546632D01*
X124206000Y-102372240D01*
X124322525Y-102546632D01*
X124529368Y-102753475D01*
X124772589Y-102915990D01*
X125042842Y-103027932D01*
X125329740Y-103085000D01*
X125622260Y-103085000D01*
X125909158Y-103027932D01*
X126179411Y-102915990D01*
X126422632Y-102753475D01*
X126629475Y-102546632D01*
X126751195Y-102364466D01*
X126820822Y-102481355D01*
X127015731Y-102697588D01*
X127249080Y-102871641D01*
X127511901Y-102996825D01*
X127659110Y-103041476D01*
X127889000Y-102920155D01*
X127889000Y-101727000D01*
X127869000Y-101727000D01*
X127869000Y-101473000D01*
X127889000Y-101473000D01*
X127889000Y-100279845D01*
X128143000Y-100279845D01*
X128143000Y-101473000D01*
X128163000Y-101473000D01*
X128163000Y-101727000D01*
X128143000Y-101727000D01*
X128143000Y-102920155D01*
X128372890Y-103041476D01*
X128520099Y-102996825D01*
X128782920Y-102871641D01*
X129016269Y-102697588D01*
X129211178Y-102481355D01*
X129280805Y-102364466D01*
X129402525Y-102546632D01*
X129609368Y-102753475D01*
X129852589Y-102915990D01*
X130122842Y-103027932D01*
X130409740Y-103085000D01*
X130702260Y-103085000D01*
X130989158Y-103027932D01*
X131259411Y-102915990D01*
X131502632Y-102753475D01*
X131709475Y-102546632D01*
X131826000Y-102372240D01*
X131942525Y-102546632D01*
X132149368Y-102753475D01*
X132392589Y-102915990D01*
X132662842Y-103027932D01*
X132949740Y-103085000D01*
X133242260Y-103085000D01*
X133529158Y-103027932D01*
X133799411Y-102915990D01*
X134042632Y-102753475D01*
X134249475Y-102546632D01*
X134366000Y-102372240D01*
X134482525Y-102546632D01*
X134689368Y-102753475D01*
X134932589Y-102915990D01*
X135202842Y-103027932D01*
X135489740Y-103085000D01*
X135782260Y-103085000D01*
X136069158Y-103027932D01*
X136339411Y-102915990D01*
X136582632Y-102753475D01*
X136789475Y-102546632D01*
X136906000Y-102372240D01*
X137022525Y-102546632D01*
X137229368Y-102753475D01*
X137472589Y-102915990D01*
X137742842Y-103027932D01*
X138029740Y-103085000D01*
X138322260Y-103085000D01*
X138609158Y-103027932D01*
X138879411Y-102915990D01*
X139122632Y-102753475D01*
X139329475Y-102546632D01*
X139446000Y-102372240D01*
X139562525Y-102546632D01*
X139769368Y-102753475D01*
X140012589Y-102915990D01*
X140282842Y-103027932D01*
X140569740Y-103085000D01*
X140862260Y-103085000D01*
X141149158Y-103027932D01*
X141419411Y-102915990D01*
X141662632Y-102753475D01*
X141869475Y-102546632D01*
X141986000Y-102372240D01*
X142102525Y-102546632D01*
X142309368Y-102753475D01*
X142552589Y-102915990D01*
X142822842Y-103027932D01*
X143109740Y-103085000D01*
X143402260Y-103085000D01*
X143689158Y-103027932D01*
X143959411Y-102915990D01*
X144202632Y-102753475D01*
X144409475Y-102546632D01*
X144571990Y-102303411D01*
X144683932Y-102033158D01*
X144741000Y-101746260D01*
X144741000Y-101453740D01*
X144683932Y-101166842D01*
X144571990Y-100896589D01*
X144474043Y-100750000D01*
X145831928Y-100750000D01*
X145831928Y-102450000D01*
X145844188Y-102574482D01*
X145880498Y-102694180D01*
X145939463Y-102804494D01*
X146018815Y-102901185D01*
X146115506Y-102980537D01*
X146225820Y-103039502D01*
X146345518Y-103075812D01*
X146470000Y-103088072D01*
X148170000Y-103088072D01*
X148294482Y-103075812D01*
X148414180Y-103039502D01*
X148524494Y-102980537D01*
X148621185Y-102901185D01*
X148700537Y-102804494D01*
X148759502Y-102694180D01*
X148781513Y-102621620D01*
X148913368Y-102753475D01*
X149156589Y-102915990D01*
X149426842Y-103027932D01*
X149713740Y-103085000D01*
X150006260Y-103085000D01*
X150293158Y-103027932D01*
X150563411Y-102915990D01*
X150806632Y-102753475D01*
X151013475Y-102546632D01*
X151130000Y-102372240D01*
X151246525Y-102546632D01*
X151453368Y-102753475D01*
X151696589Y-102915990D01*
X151966842Y-103027932D01*
X152253740Y-103085000D01*
X152546260Y-103085000D01*
X152833158Y-103027932D01*
X153103411Y-102915990D01*
X153346632Y-102753475D01*
X153553475Y-102546632D01*
X153670000Y-102372240D01*
X153786525Y-102546632D01*
X153993368Y-102753475D01*
X154236589Y-102915990D01*
X154506842Y-103027932D01*
X154793740Y-103085000D01*
X155086260Y-103085000D01*
X155373158Y-103027932D01*
X155643411Y-102915990D01*
X155886632Y-102753475D01*
X156093475Y-102546632D01*
X156210000Y-102372240D01*
X156326525Y-102546632D01*
X156533368Y-102753475D01*
X156776589Y-102915990D01*
X157046842Y-103027932D01*
X157333740Y-103085000D01*
X157626260Y-103085000D01*
X157913158Y-103027932D01*
X158183411Y-102915990D01*
X158426632Y-102753475D01*
X158633475Y-102546632D01*
X158750000Y-102372240D01*
X158866525Y-102546632D01*
X159073368Y-102753475D01*
X159316589Y-102915990D01*
X159586842Y-103027932D01*
X159873740Y-103085000D01*
X160166260Y-103085000D01*
X160453158Y-103027932D01*
X160723411Y-102915990D01*
X160966632Y-102753475D01*
X161173475Y-102546632D01*
X161290000Y-102372240D01*
X161406525Y-102546632D01*
X161613368Y-102753475D01*
X161856589Y-102915990D01*
X162126842Y-103027932D01*
X162413740Y-103085000D01*
X162706260Y-103085000D01*
X162993158Y-103027932D01*
X163263411Y-102915990D01*
X163506632Y-102753475D01*
X163713475Y-102546632D01*
X163830000Y-102372240D01*
X163946525Y-102546632D01*
X164153368Y-102753475D01*
X164396589Y-102915990D01*
X164666842Y-103027932D01*
X164953740Y-103085000D01*
X165246260Y-103085000D01*
X165533158Y-103027932D01*
X165803411Y-102915990D01*
X166046632Y-102753475D01*
X166253475Y-102546632D01*
X166415990Y-102303411D01*
X166527932Y-102033158D01*
X166585000Y-101746260D01*
X166585000Y-101453740D01*
X166527932Y-101166842D01*
X166415990Y-100896589D01*
X166253475Y-100653368D01*
X166046632Y-100446525D01*
X165803411Y-100284010D01*
X165533158Y-100172068D01*
X165246260Y-100115000D01*
X164953740Y-100115000D01*
X164666842Y-100172068D01*
X164396589Y-100284010D01*
X164153368Y-100446525D01*
X163946525Y-100653368D01*
X163830000Y-100827760D01*
X163713475Y-100653368D01*
X163506632Y-100446525D01*
X163263411Y-100284010D01*
X162993158Y-100172068D01*
X162706260Y-100115000D01*
X162413740Y-100115000D01*
X162126842Y-100172068D01*
X161856589Y-100284010D01*
X161613368Y-100446525D01*
X161406525Y-100653368D01*
X161290000Y-100827760D01*
X161173475Y-100653368D01*
X160966632Y-100446525D01*
X160723411Y-100284010D01*
X160453158Y-100172068D01*
X160166260Y-100115000D01*
X159873740Y-100115000D01*
X159586842Y-100172068D01*
X159316589Y-100284010D01*
X159073368Y-100446525D01*
X158866525Y-100653368D01*
X158750000Y-100827760D01*
X158633475Y-100653368D01*
X158426632Y-100446525D01*
X158183411Y-100284010D01*
X157913158Y-100172068D01*
X157626260Y-100115000D01*
X157333740Y-100115000D01*
X157046842Y-100172068D01*
X156776589Y-100284010D01*
X156533368Y-100446525D01*
X156326525Y-100653368D01*
X156210000Y-100827760D01*
X156093475Y-100653368D01*
X155886632Y-100446525D01*
X155643411Y-100284010D01*
X155373158Y-100172068D01*
X155086260Y-100115000D01*
X154793740Y-100115000D01*
X154506842Y-100172068D01*
X154236589Y-100284010D01*
X153993368Y-100446525D01*
X153786525Y-100653368D01*
X153670000Y-100827760D01*
X153553475Y-100653368D01*
X153346632Y-100446525D01*
X153103411Y-100284010D01*
X152833158Y-100172068D01*
X152546260Y-100115000D01*
X152253740Y-100115000D01*
X151966842Y-100172068D01*
X151696589Y-100284010D01*
X151453368Y-100446525D01*
X151246525Y-100653368D01*
X151130000Y-100827760D01*
X151013475Y-100653368D01*
X150806632Y-100446525D01*
X150563411Y-100284010D01*
X150293158Y-100172068D01*
X150006260Y-100115000D01*
X149713740Y-100115000D01*
X149426842Y-100172068D01*
X149156589Y-100284010D01*
X148913368Y-100446525D01*
X148781513Y-100578380D01*
X148759502Y-100505820D01*
X148700537Y-100395506D01*
X148621185Y-100298815D01*
X148524494Y-100219463D01*
X148414180Y-100160498D01*
X148294482Y-100124188D01*
X148170000Y-100111928D01*
X146470000Y-100111928D01*
X146345518Y-100124188D01*
X146225820Y-100160498D01*
X146115506Y-100219463D01*
X146018815Y-100298815D01*
X145939463Y-100395506D01*
X145880498Y-100505820D01*
X145844188Y-100625518D01*
X145831928Y-100750000D01*
X144474043Y-100750000D01*
X144409475Y-100653368D01*
X144202632Y-100446525D01*
X143959411Y-100284010D01*
X143689158Y-100172068D01*
X143402260Y-100115000D01*
X143109740Y-100115000D01*
X142822842Y-100172068D01*
X142552589Y-100284010D01*
X142309368Y-100446525D01*
X142102525Y-100653368D01*
X141986000Y-100827760D01*
X141869475Y-100653368D01*
X141662632Y-100446525D01*
X141419411Y-100284010D01*
X141149158Y-100172068D01*
X140862260Y-100115000D01*
X140569740Y-100115000D01*
X140282842Y-100172068D01*
X140012589Y-100284010D01*
X139769368Y-100446525D01*
X139562525Y-100653368D01*
X139446000Y-100827760D01*
X139329475Y-100653368D01*
X139122632Y-100446525D01*
X138879411Y-100284010D01*
X138609158Y-100172068D01*
X138322260Y-100115000D01*
X138029740Y-100115000D01*
X137742842Y-100172068D01*
X137472589Y-100284010D01*
X137229368Y-100446525D01*
X137022525Y-100653368D01*
X136906000Y-100827760D01*
X136789475Y-100653368D01*
X136582632Y-100446525D01*
X136339411Y-100284010D01*
X136069158Y-100172068D01*
X135782260Y-100115000D01*
X135489740Y-100115000D01*
X135202842Y-100172068D01*
X134932589Y-100284010D01*
X134689368Y-100446525D01*
X134482525Y-100653368D01*
X134366000Y-100827760D01*
X134249475Y-100653368D01*
X134042632Y-100446525D01*
X133799411Y-100284010D01*
X133529158Y-100172068D01*
X133242260Y-100115000D01*
X132949740Y-100115000D01*
X132662842Y-100172068D01*
X132392589Y-100284010D01*
X132149368Y-100446525D01*
X131942525Y-100653368D01*
X131826000Y-100827760D01*
X131709475Y-100653368D01*
X131502632Y-100446525D01*
X131259411Y-100284010D01*
X130989158Y-100172068D01*
X130702260Y-100115000D01*
X130409740Y-100115000D01*
X130122842Y-100172068D01*
X129852589Y-100284010D01*
X129609368Y-100446525D01*
X129402525Y-100653368D01*
X129280805Y-100835534D01*
X129211178Y-100718645D01*
X129016269Y-100502412D01*
X128782920Y-100328359D01*
X128520099Y-100203175D01*
X128372890Y-100158524D01*
X128143000Y-100279845D01*
X127889000Y-100279845D01*
X127659110Y-100158524D01*
X127511901Y-100203175D01*
X127249080Y-100328359D01*
X127015731Y-100502412D01*
X126820822Y-100718645D01*
X126751195Y-100835534D01*
X126629475Y-100653368D01*
X126422632Y-100446525D01*
X126179411Y-100284010D01*
X125909158Y-100172068D01*
X125622260Y-100115000D01*
X125329740Y-100115000D01*
X125042842Y-100172068D01*
X124772589Y-100284010D01*
X124529368Y-100446525D01*
X124322525Y-100653368D01*
X124206000Y-100827760D01*
X124089475Y-100653368D01*
X123882632Y-100446525D01*
X123639411Y-100284010D01*
X123369158Y-100172068D01*
X123082260Y-100115000D01*
X122789740Y-100115000D01*
X122502842Y-100172068D01*
X122232589Y-100284010D01*
X121989368Y-100446525D01*
X121857513Y-100578380D01*
X121835502Y-100505820D01*
X121776537Y-100395506D01*
X121697185Y-100298815D01*
X121600494Y-100219463D01*
X121490180Y-100160498D01*
X121370482Y-100124188D01*
X121246000Y-100111928D01*
X119546000Y-100111928D01*
X119421518Y-100124188D01*
X119301820Y-100160498D01*
X119191506Y-100219463D01*
X119094815Y-100298815D01*
X119015463Y-100395506D01*
X118956498Y-100505820D01*
X118920188Y-100625518D01*
X118912249Y-100706122D01*
X118839756Y-100531108D01*
X118592801Y-100161513D01*
X118278487Y-99847199D01*
X118145739Y-99758500D01*
X166751000Y-99758500D01*
X166751000Y-112268000D01*
X166753440Y-112292776D01*
X166760667Y-112316601D01*
X166772403Y-112338557D01*
X166788197Y-112357803D01*
X169291000Y-114860606D01*
X169291000Y-115299712D01*
X169078487Y-115087199D01*
X168708892Y-114840244D01*
X168298221Y-114670138D01*
X167862254Y-114583419D01*
X167417746Y-114583419D01*
X166981779Y-114670138D01*
X166571108Y-114840244D01*
X166201513Y-115087199D01*
X165887199Y-115401513D01*
X165640244Y-115771108D01*
X165470138Y-116181779D01*
X165383419Y-116617746D01*
X165383419Y-117062254D01*
X165470138Y-117498221D01*
X165640244Y-117908892D01*
X165887199Y-118278487D01*
X166201513Y-118592801D01*
X166571108Y-118839756D01*
X166981779Y-119009862D01*
X167417746Y-119096581D01*
X167862254Y-119096581D01*
X168298221Y-119009862D01*
X168708892Y-118839756D01*
X169078487Y-118592801D01*
X169291000Y-118380288D01*
X169291000Y-143239712D01*
X169078487Y-143027199D01*
X168708892Y-142780244D01*
X168298221Y-142610138D01*
X167862254Y-142523419D01*
X167417746Y-142523419D01*
X166981779Y-142610138D01*
X166571108Y-142780244D01*
X166201513Y-143027199D01*
X165887199Y-143341513D01*
X165640244Y-143711108D01*
X165470138Y-144121779D01*
X165383419Y-144557746D01*
X165383419Y-145002254D01*
X165470138Y-145438221D01*
X165640244Y-145848892D01*
X165887199Y-146218487D01*
X166201513Y-146532801D01*
X166571108Y-146779756D01*
X166981779Y-146949862D01*
X167417746Y-147036581D01*
X167862254Y-147036581D01*
X168298221Y-146949862D01*
X168708892Y-146779756D01*
X169078487Y-146532801D01*
X169291000Y-146320288D01*
X169291000Y-147013394D01*
X167042197Y-149262197D01*
X167026403Y-149281443D01*
X167014667Y-149303399D01*
X167007440Y-149327224D01*
X167005000Y-149352000D01*
X167005000Y-149566237D01*
X166991549Y-149591402D01*
X166991549Y-149591403D01*
X166954439Y-149713740D01*
X166951608Y-149723071D01*
X166938122Y-149860000D01*
X166941501Y-149894308D01*
X166941500Y-151701500D01*
X116875739Y-151701500D01*
X117008487Y-151612801D01*
X117322801Y-151298487D01*
X117569756Y-150928892D01*
X117739862Y-150518221D01*
X117826581Y-150082254D01*
X117826581Y-149637746D01*
X117739862Y-149201779D01*
X117660425Y-149010000D01*
X128051928Y-149010000D01*
X128051928Y-150710000D01*
X128064188Y-150834482D01*
X128100498Y-150954180D01*
X128159463Y-151064494D01*
X128238815Y-151161185D01*
X128335506Y-151240537D01*
X128445820Y-151299502D01*
X128565518Y-151335812D01*
X128690000Y-151348072D01*
X130390000Y-151348072D01*
X130514482Y-151335812D01*
X130634180Y-151299502D01*
X130744494Y-151240537D01*
X130841185Y-151161185D01*
X130920537Y-151064494D01*
X130979502Y-150954180D01*
X131001513Y-150881620D01*
X131133368Y-151013475D01*
X131376589Y-151175990D01*
X131646842Y-151287932D01*
X131933740Y-151345000D01*
X132226260Y-151345000D01*
X132513158Y-151287932D01*
X132783411Y-151175990D01*
X133026632Y-151013475D01*
X133233475Y-150806632D01*
X133350000Y-150632240D01*
X133466525Y-150806632D01*
X133673368Y-151013475D01*
X133916589Y-151175990D01*
X134186842Y-151287932D01*
X134473740Y-151345000D01*
X134766260Y-151345000D01*
X135053158Y-151287932D01*
X135323411Y-151175990D01*
X135566632Y-151013475D01*
X135773475Y-150806632D01*
X135890000Y-150632240D01*
X136006525Y-150806632D01*
X136213368Y-151013475D01*
X136456589Y-151175990D01*
X136726842Y-151287932D01*
X137013740Y-151345000D01*
X137306260Y-151345000D01*
X137593158Y-151287932D01*
X137863411Y-151175990D01*
X138106632Y-151013475D01*
X138313475Y-150806632D01*
X138430000Y-150632240D01*
X138546525Y-150806632D01*
X138753368Y-151013475D01*
X138996589Y-151175990D01*
X139266842Y-151287932D01*
X139553740Y-151345000D01*
X139846260Y-151345000D01*
X140133158Y-151287932D01*
X140403411Y-151175990D01*
X140646632Y-151013475D01*
X140853475Y-150806632D01*
X140975195Y-150624466D01*
X141044822Y-150741355D01*
X141239731Y-150957588D01*
X141473080Y-151131641D01*
X141735901Y-151256825D01*
X141883110Y-151301476D01*
X142113000Y-151180155D01*
X142113000Y-149987000D01*
X142367000Y-149987000D01*
X142367000Y-151180155D01*
X142596890Y-151301476D01*
X142744099Y-151256825D01*
X143006920Y-151131641D01*
X143240269Y-150957588D01*
X143435178Y-150741355D01*
X143510000Y-150615745D01*
X143584822Y-150741355D01*
X143779731Y-150957588D01*
X144013080Y-151131641D01*
X144275901Y-151256825D01*
X144423110Y-151301476D01*
X144653000Y-151180155D01*
X144653000Y-149987000D01*
X142367000Y-149987000D01*
X142113000Y-149987000D01*
X142093000Y-149987000D01*
X142093000Y-149733000D01*
X142113000Y-149733000D01*
X142113000Y-148539845D01*
X142367000Y-148539845D01*
X142367000Y-149733000D01*
X144653000Y-149733000D01*
X144653000Y-148539845D01*
X144907000Y-148539845D01*
X144907000Y-149733000D01*
X144927000Y-149733000D01*
X144927000Y-149987000D01*
X144907000Y-149987000D01*
X144907000Y-151180155D01*
X145136890Y-151301476D01*
X145284099Y-151256825D01*
X145546920Y-151131641D01*
X145780269Y-150957588D01*
X145975178Y-150741355D01*
X146044805Y-150624466D01*
X146166525Y-150806632D01*
X146373368Y-151013475D01*
X146616589Y-151175990D01*
X146886842Y-151287932D01*
X147173740Y-151345000D01*
X147466260Y-151345000D01*
X147753158Y-151287932D01*
X148023411Y-151175990D01*
X148266632Y-151013475D01*
X148473475Y-150806632D01*
X148635990Y-150563411D01*
X148747932Y-150293158D01*
X148805000Y-150006260D01*
X148805000Y-149713740D01*
X148747932Y-149426842D01*
X148635990Y-149156589D01*
X148538043Y-149010000D01*
X150911928Y-149010000D01*
X150911928Y-150710000D01*
X150924188Y-150834482D01*
X150960498Y-150954180D01*
X151019463Y-151064494D01*
X151098815Y-151161185D01*
X151195506Y-151240537D01*
X151305820Y-151299502D01*
X151425518Y-151335812D01*
X151550000Y-151348072D01*
X153250000Y-151348072D01*
X153374482Y-151335812D01*
X153494180Y-151299502D01*
X153604494Y-151240537D01*
X153701185Y-151161185D01*
X153780537Y-151064494D01*
X153839502Y-150954180D01*
X153861513Y-150881620D01*
X153993368Y-151013475D01*
X154236589Y-151175990D01*
X154506842Y-151287932D01*
X154793740Y-151345000D01*
X155086260Y-151345000D01*
X155373158Y-151287932D01*
X155643411Y-151175990D01*
X155886632Y-151013475D01*
X156093475Y-150806632D01*
X156210000Y-150632240D01*
X156326525Y-150806632D01*
X156533368Y-151013475D01*
X156776589Y-151175990D01*
X157046842Y-151287932D01*
X157333740Y-151345000D01*
X157626260Y-151345000D01*
X157913158Y-151287932D01*
X158183411Y-151175990D01*
X158426632Y-151013475D01*
X158633475Y-150806632D01*
X158750000Y-150632240D01*
X158866525Y-150806632D01*
X159073368Y-151013475D01*
X159316589Y-151175990D01*
X159586842Y-151287932D01*
X159873740Y-151345000D01*
X160166260Y-151345000D01*
X160453158Y-151287932D01*
X160723411Y-151175990D01*
X160966632Y-151013475D01*
X161173475Y-150806632D01*
X161290000Y-150632240D01*
X161406525Y-150806632D01*
X161613368Y-151013475D01*
X161856589Y-151175990D01*
X162126842Y-151287932D01*
X162413740Y-151345000D01*
X162706260Y-151345000D01*
X162993158Y-151287932D01*
X163263411Y-151175990D01*
X163506632Y-151013475D01*
X163713475Y-150806632D01*
X163830000Y-150632240D01*
X163946525Y-150806632D01*
X164153368Y-151013475D01*
X164396589Y-151175990D01*
X164666842Y-151287932D01*
X164953740Y-151345000D01*
X165246260Y-151345000D01*
X165533158Y-151287932D01*
X165803411Y-151175990D01*
X166046632Y-151013475D01*
X166253475Y-150806632D01*
X166415990Y-150563411D01*
X166527932Y-150293158D01*
X166585000Y-150006260D01*
X166585000Y-149713740D01*
X166527932Y-149426842D01*
X166415990Y-149156589D01*
X166253475Y-148913368D01*
X166046632Y-148706525D01*
X165803411Y-148544010D01*
X165533158Y-148432068D01*
X165246260Y-148375000D01*
X164953740Y-148375000D01*
X164666842Y-148432068D01*
X164396589Y-148544010D01*
X164153368Y-148706525D01*
X163946525Y-148913368D01*
X163830000Y-149087760D01*
X163713475Y-148913368D01*
X163506632Y-148706525D01*
X163263411Y-148544010D01*
X162993158Y-148432068D01*
X162706260Y-148375000D01*
X162413740Y-148375000D01*
X162126842Y-148432068D01*
X161856589Y-148544010D01*
X161613368Y-148706525D01*
X161406525Y-148913368D01*
X161290000Y-149087760D01*
X161173475Y-148913368D01*
X160966632Y-148706525D01*
X160723411Y-148544010D01*
X160453158Y-148432068D01*
X160166260Y-148375000D01*
X159873740Y-148375000D01*
X159586842Y-148432068D01*
X159316589Y-148544010D01*
X159073368Y-148706525D01*
X158866525Y-148913368D01*
X158750000Y-149087760D01*
X158633475Y-148913368D01*
X158426632Y-148706525D01*
X158183411Y-148544010D01*
X157913158Y-148432068D01*
X157626260Y-148375000D01*
X157333740Y-148375000D01*
X157046842Y-148432068D01*
X156776589Y-148544010D01*
X156533368Y-148706525D01*
X156326525Y-148913368D01*
X156210000Y-149087760D01*
X156093475Y-148913368D01*
X155886632Y-148706525D01*
X155643411Y-148544010D01*
X155373158Y-148432068D01*
X155086260Y-148375000D01*
X154793740Y-148375000D01*
X154506842Y-148432068D01*
X154236589Y-148544010D01*
X153993368Y-148706525D01*
X153861513Y-148838380D01*
X153839502Y-148765820D01*
X153780537Y-148655506D01*
X153701185Y-148558815D01*
X153604494Y-148479463D01*
X153494180Y-148420498D01*
X153374482Y-148384188D01*
X153250000Y-148371928D01*
X151550000Y-148371928D01*
X151425518Y-148384188D01*
X151305820Y-148420498D01*
X151195506Y-148479463D01*
X151098815Y-148558815D01*
X151019463Y-148655506D01*
X150960498Y-148765820D01*
X150924188Y-148885518D01*
X150911928Y-149010000D01*
X148538043Y-149010000D01*
X148473475Y-148913368D01*
X148266632Y-148706525D01*
X148023411Y-148544010D01*
X147753158Y-148432068D01*
X147466260Y-148375000D01*
X147173740Y-148375000D01*
X146886842Y-148432068D01*
X146616589Y-148544010D01*
X146373368Y-148706525D01*
X146166525Y-148913368D01*
X146044805Y-149095534D01*
X145975178Y-148978645D01*
X145780269Y-148762412D01*
X145546920Y-148588359D01*
X145284099Y-148463175D01*
X145136890Y-148418524D01*
X144907000Y-148539845D01*
X144653000Y-148539845D01*
X144423110Y-148418524D01*
X144275901Y-148463175D01*
X144013080Y-148588359D01*
X143779731Y-148762412D01*
X143584822Y-148978645D01*
X143510000Y-149104255D01*
X143435178Y-148978645D01*
X143240269Y-148762412D01*
X143006920Y-148588359D01*
X142744099Y-148463175D01*
X142596890Y-148418524D01*
X142367000Y-148539845D01*
X142113000Y-148539845D01*
X141883110Y-148418524D01*
X141735901Y-148463175D01*
X141473080Y-148588359D01*
X141239731Y-148762412D01*
X141044822Y-148978645D01*
X140975195Y-149095534D01*
X140853475Y-148913368D01*
X140646632Y-148706525D01*
X140403411Y-148544010D01*
X140133158Y-148432068D01*
X139846260Y-148375000D01*
X139553740Y-148375000D01*
X139266842Y-148432068D01*
X138996589Y-148544010D01*
X138753368Y-148706525D01*
X138546525Y-148913368D01*
X138430000Y-149087760D01*
X138313475Y-148913368D01*
X138106632Y-148706525D01*
X137863411Y-148544010D01*
X137593158Y-148432068D01*
X137306260Y-148375000D01*
X137013740Y-148375000D01*
X136726842Y-148432068D01*
X136456589Y-148544010D01*
X136213368Y-148706525D01*
X136006525Y-148913368D01*
X135890000Y-149087760D01*
X135773475Y-148913368D01*
X135566632Y-148706525D01*
X135323411Y-148544010D01*
X135053158Y-148432068D01*
X134766260Y-148375000D01*
X134473740Y-148375000D01*
X134186842Y-148432068D01*
X133916589Y-148544010D01*
X133673368Y-148706525D01*
X133466525Y-148913368D01*
X133350000Y-149087760D01*
X133233475Y-148913368D01*
X133026632Y-148706525D01*
X132783411Y-148544010D01*
X132513158Y-148432068D01*
X132226260Y-148375000D01*
X131933740Y-148375000D01*
X131646842Y-148432068D01*
X131376589Y-148544010D01*
X131133368Y-148706525D01*
X131001513Y-148838380D01*
X130979502Y-148765820D01*
X130920537Y-148655506D01*
X130841185Y-148558815D01*
X130744494Y-148479463D01*
X130634180Y-148420498D01*
X130514482Y-148384188D01*
X130390000Y-148371928D01*
X128690000Y-148371928D01*
X128565518Y-148384188D01*
X128445820Y-148420498D01*
X128335506Y-148479463D01*
X128238815Y-148558815D01*
X128159463Y-148655506D01*
X128100498Y-148765820D01*
X128064188Y-148885518D01*
X128051928Y-149010000D01*
X117660425Y-149010000D01*
X117569756Y-148791108D01*
X117322801Y-148421513D01*
X117008487Y-148107199D01*
X116638892Y-147860244D01*
X116228221Y-147690138D01*
X115792254Y-147603419D01*
X115347746Y-147603419D01*
X114911779Y-147690138D01*
X114501108Y-147860244D01*
X114131513Y-148107199D01*
X113982500Y-148256212D01*
X113982500Y-139575699D01*
X121684906Y-139575699D01*
X121809314Y-139864392D01*
X122139397Y-140028999D01*
X122495251Y-140126048D01*
X122863201Y-140151808D01*
X123229106Y-140105290D01*
X123578906Y-139988282D01*
X123810686Y-139864392D01*
X123935094Y-139575699D01*
X122810000Y-138450605D01*
X121684906Y-139575699D01*
X113982500Y-139575699D01*
X113982500Y-138324201D01*
X120929192Y-138324201D01*
X120975710Y-138690106D01*
X121092718Y-139039906D01*
X121216608Y-139271686D01*
X121505301Y-139396094D01*
X122630395Y-138271000D01*
X122989605Y-138271000D01*
X124114699Y-139396094D01*
X124403392Y-139271686D01*
X124567999Y-138941603D01*
X124592981Y-138850000D01*
X145577928Y-138850000D01*
X145577928Y-140550000D01*
X145590188Y-140674482D01*
X145626498Y-140794180D01*
X145685463Y-140904494D01*
X145764815Y-141001185D01*
X145861506Y-141080537D01*
X145971820Y-141139502D01*
X146091518Y-141175812D01*
X146216000Y-141188072D01*
X147916000Y-141188072D01*
X148040482Y-141175812D01*
X148160180Y-141139502D01*
X148270494Y-141080537D01*
X148367185Y-141001185D01*
X148446537Y-140904494D01*
X148505502Y-140794180D01*
X148527513Y-140721620D01*
X148659368Y-140853475D01*
X148902589Y-141015990D01*
X149172842Y-141127932D01*
X149459740Y-141185000D01*
X149752260Y-141185000D01*
X150039158Y-141127932D01*
X150309411Y-141015990D01*
X150552632Y-140853475D01*
X150759475Y-140646632D01*
X150876000Y-140472240D01*
X150992525Y-140646632D01*
X151199368Y-140853475D01*
X151442589Y-141015990D01*
X151712842Y-141127932D01*
X151999740Y-141185000D01*
X152292260Y-141185000D01*
X152579158Y-141127932D01*
X152849411Y-141015990D01*
X153092632Y-140853475D01*
X153299475Y-140646632D01*
X153461990Y-140403411D01*
X153573932Y-140133158D01*
X153631000Y-139846260D01*
X153631000Y-139553740D01*
X153573932Y-139266842D01*
X153461990Y-138996589D01*
X153299475Y-138753368D01*
X153092632Y-138546525D01*
X152849411Y-138384010D01*
X152579158Y-138272068D01*
X152292260Y-138215000D01*
X151999740Y-138215000D01*
X151712842Y-138272068D01*
X151442589Y-138384010D01*
X151199368Y-138546525D01*
X150992525Y-138753368D01*
X150876000Y-138927760D01*
X150759475Y-138753368D01*
X150552632Y-138546525D01*
X150309411Y-138384010D01*
X150039158Y-138272068D01*
X149752260Y-138215000D01*
X149459740Y-138215000D01*
X149172842Y-138272068D01*
X148902589Y-138384010D01*
X148659368Y-138546525D01*
X148527513Y-138678380D01*
X148505502Y-138605820D01*
X148446537Y-138495506D01*
X148367185Y-138398815D01*
X148270494Y-138319463D01*
X148160180Y-138260498D01*
X148040482Y-138224188D01*
X147916000Y-138211928D01*
X146216000Y-138211928D01*
X146091518Y-138224188D01*
X145971820Y-138260498D01*
X145861506Y-138319463D01*
X145764815Y-138398815D01*
X145685463Y-138495506D01*
X145626498Y-138605820D01*
X145590188Y-138725518D01*
X145577928Y-138850000D01*
X124592981Y-138850000D01*
X124665048Y-138585749D01*
X124690808Y-138217799D01*
X124644290Y-137851894D01*
X124527282Y-137502094D01*
X124403392Y-137270314D01*
X124114699Y-137145906D01*
X122989605Y-138271000D01*
X122630395Y-138271000D01*
X121505301Y-137145906D01*
X121216608Y-137270314D01*
X121052001Y-137600397D01*
X120954952Y-137956251D01*
X120929192Y-138324201D01*
X113982500Y-138324201D01*
X113982500Y-136377203D01*
X117920000Y-136377203D01*
X117920000Y-136664797D01*
X117976107Y-136946866D01*
X118086165Y-137212569D01*
X118245944Y-137451696D01*
X118449304Y-137655056D01*
X118688431Y-137814835D01*
X118954134Y-137924893D01*
X119236203Y-137981000D01*
X119523797Y-137981000D01*
X119805866Y-137924893D01*
X120071569Y-137814835D01*
X120310696Y-137655056D01*
X120514056Y-137451696D01*
X120673835Y-137212569D01*
X120775842Y-136966301D01*
X121684906Y-136966301D01*
X122810000Y-138091395D01*
X123935094Y-136966301D01*
X123810686Y-136677608D01*
X123480603Y-136513001D01*
X123124749Y-136415952D01*
X122756799Y-136390192D01*
X122390894Y-136436710D01*
X122041094Y-136553718D01*
X121809314Y-136677608D01*
X121684906Y-136966301D01*
X120775842Y-136966301D01*
X120783893Y-136946866D01*
X120840000Y-136664797D01*
X120840000Y-136377203D01*
X120783893Y-136095134D01*
X120673835Y-135829431D01*
X120514056Y-135590304D01*
X120310696Y-135386944D01*
X120071569Y-135227165D01*
X119805866Y-135117107D01*
X119523797Y-135061000D01*
X119236203Y-135061000D01*
X118954134Y-135117107D01*
X118688431Y-135227165D01*
X118449304Y-135386944D01*
X118245944Y-135590304D01*
X118086165Y-135829431D01*
X117976107Y-136095134D01*
X117920000Y-136377203D01*
X113982500Y-136377203D01*
X113982500Y-127474146D01*
X120530500Y-127474146D01*
X120530500Y-127747854D01*
X120583898Y-128016302D01*
X120688641Y-128269175D01*
X120840705Y-128496754D01*
X120974951Y-128631000D01*
X120840705Y-128765246D01*
X120688641Y-128992825D01*
X120583898Y-129245698D01*
X120530500Y-129514146D01*
X120530500Y-129787854D01*
X120583898Y-130056302D01*
X120688641Y-130309175D01*
X120840705Y-130536754D01*
X120974951Y-130671000D01*
X120840705Y-130805246D01*
X120688641Y-131032825D01*
X120583898Y-131285698D01*
X120530500Y-131554146D01*
X120530500Y-131827854D01*
X120583898Y-132096302D01*
X120688641Y-132349175D01*
X120840705Y-132576754D01*
X120974951Y-132711000D01*
X120840705Y-132845246D01*
X120688641Y-133072825D01*
X120583898Y-133325698D01*
X120530500Y-133594146D01*
X120530500Y-133867854D01*
X120583898Y-134136302D01*
X120688641Y-134389175D01*
X120840705Y-134616754D01*
X121034246Y-134810295D01*
X121261825Y-134962359D01*
X121514698Y-135067102D01*
X121783146Y-135120500D01*
X122056854Y-135120500D01*
X122325302Y-135067102D01*
X122578175Y-134962359D01*
X122805754Y-134810295D01*
X122999295Y-134616754D01*
X123151359Y-134389175D01*
X123256102Y-134136302D01*
X123275432Y-134039122D01*
X123294698Y-134047102D01*
X123563146Y-134100500D01*
X123836854Y-134100500D01*
X124105302Y-134047102D01*
X124358175Y-133942359D01*
X124585754Y-133790295D01*
X124779295Y-133596754D01*
X124931359Y-133369175D01*
X125036102Y-133116302D01*
X125089500Y-132847854D01*
X125089500Y-132574146D01*
X125036102Y-132305698D01*
X124931359Y-132052825D01*
X124779295Y-131825246D01*
X124645049Y-131691000D01*
X124779295Y-131556754D01*
X124931359Y-131329175D01*
X125036102Y-131076302D01*
X125089500Y-130807854D01*
X125089500Y-130534146D01*
X125036102Y-130265698D01*
X124931359Y-130012825D01*
X124779295Y-129785246D01*
X124645049Y-129651000D01*
X124779295Y-129516754D01*
X124931359Y-129289175D01*
X125036102Y-129036302D01*
X125089500Y-128767854D01*
X125089500Y-128494146D01*
X125036102Y-128225698D01*
X124931359Y-127972825D01*
X124779295Y-127745246D01*
X124645049Y-127611000D01*
X124779295Y-127476754D01*
X124931359Y-127249175D01*
X125036102Y-126996302D01*
X125089500Y-126727854D01*
X125089500Y-126599740D01*
X135421000Y-126599740D01*
X135421000Y-126892260D01*
X135478068Y-127179158D01*
X135590010Y-127449411D01*
X135752525Y-127692632D01*
X135959368Y-127899475D01*
X136133760Y-128016000D01*
X135959368Y-128132525D01*
X135752525Y-128339368D01*
X135590010Y-128582589D01*
X135478068Y-128852842D01*
X135421000Y-129139740D01*
X135421000Y-129432260D01*
X135478068Y-129719158D01*
X135590010Y-129989411D01*
X135752525Y-130232632D01*
X135959368Y-130439475D01*
X136133760Y-130556000D01*
X135959368Y-130672525D01*
X135752525Y-130879368D01*
X135590010Y-131122589D01*
X135478068Y-131392842D01*
X135421000Y-131679740D01*
X135421000Y-131972260D01*
X135478068Y-132259158D01*
X135590010Y-132529411D01*
X135752525Y-132772632D01*
X135959368Y-132979475D01*
X136133760Y-133096000D01*
X135959368Y-133212525D01*
X135752525Y-133419368D01*
X135590010Y-133662589D01*
X135478068Y-133932842D01*
X135421000Y-134219740D01*
X135421000Y-134512260D01*
X135478068Y-134799158D01*
X135590010Y-135069411D01*
X135752525Y-135312632D01*
X135959368Y-135519475D01*
X136202589Y-135681990D01*
X136472842Y-135793932D01*
X136759740Y-135851000D01*
X137052260Y-135851000D01*
X137339158Y-135793932D01*
X137609411Y-135681990D01*
X137852632Y-135519475D01*
X137984487Y-135387620D01*
X138006498Y-135460180D01*
X138065463Y-135570494D01*
X138144815Y-135667185D01*
X138241506Y-135746537D01*
X138351820Y-135805502D01*
X138471518Y-135841812D01*
X138596000Y-135854072D01*
X140296000Y-135854072D01*
X140420482Y-135841812D01*
X140540180Y-135805502D01*
X140650494Y-135746537D01*
X140747185Y-135667185D01*
X140826537Y-135570494D01*
X140885502Y-135460180D01*
X140921812Y-135340482D01*
X140934072Y-135216000D01*
X140934072Y-133516000D01*
X140921812Y-133391518D01*
X140885502Y-133271820D01*
X140826537Y-133161506D01*
X140747185Y-133064815D01*
X140650494Y-132985463D01*
X140540180Y-132926498D01*
X140467620Y-132904487D01*
X140599475Y-132772632D01*
X140761990Y-132529411D01*
X140873932Y-132259158D01*
X140931000Y-131972260D01*
X140931000Y-131679740D01*
X140873932Y-131392842D01*
X140761990Y-131122589D01*
X140599475Y-130879368D01*
X140392632Y-130672525D01*
X140218240Y-130556000D01*
X140392632Y-130439475D01*
X140599475Y-130232632D01*
X140761990Y-129989411D01*
X140873932Y-129719158D01*
X140931000Y-129432260D01*
X140931000Y-129139740D01*
X140873932Y-128852842D01*
X140761990Y-128582589D01*
X140599475Y-128339368D01*
X140392632Y-128132525D01*
X140218240Y-128016000D01*
X140392632Y-127899475D01*
X140599475Y-127692632D01*
X140761990Y-127449411D01*
X140873932Y-127179158D01*
X140931000Y-126892260D01*
X140931000Y-126599740D01*
X140873932Y-126312842D01*
X140761990Y-126042589D01*
X140599475Y-125799368D01*
X140392632Y-125592525D01*
X140149411Y-125430010D01*
X139879158Y-125318068D01*
X139592260Y-125261000D01*
X139299740Y-125261000D01*
X139012842Y-125318068D01*
X138742589Y-125430010D01*
X138499368Y-125592525D01*
X138292525Y-125799368D01*
X138176000Y-125973760D01*
X138059475Y-125799368D01*
X137852632Y-125592525D01*
X137609411Y-125430010D01*
X137339158Y-125318068D01*
X137052260Y-125261000D01*
X136759740Y-125261000D01*
X136472842Y-125318068D01*
X136202589Y-125430010D01*
X135959368Y-125592525D01*
X135752525Y-125799368D01*
X135590010Y-126042589D01*
X135478068Y-126312842D01*
X135421000Y-126599740D01*
X125089500Y-126599740D01*
X125089500Y-126454146D01*
X125036102Y-126185698D01*
X124931359Y-125932825D01*
X124779295Y-125705246D01*
X124585754Y-125511705D01*
X124358175Y-125359641D01*
X124105302Y-125254898D01*
X123836854Y-125201500D01*
X123563146Y-125201500D01*
X123294698Y-125254898D01*
X123041825Y-125359641D01*
X122814246Y-125511705D01*
X122620705Y-125705246D01*
X122468641Y-125932825D01*
X122363898Y-126185698D01*
X122344568Y-126282878D01*
X122325302Y-126274898D01*
X122056854Y-126221500D01*
X121783146Y-126221500D01*
X121514698Y-126274898D01*
X121261825Y-126379641D01*
X121034246Y-126531705D01*
X120840705Y-126725246D01*
X120688641Y-126952825D01*
X120583898Y-127205698D01*
X120530500Y-127474146D01*
X113982500Y-127474146D01*
X113982500Y-123677203D01*
X117920000Y-123677203D01*
X117920000Y-123964797D01*
X117976107Y-124246866D01*
X118086165Y-124512569D01*
X118245944Y-124751696D01*
X118449304Y-124955056D01*
X118688431Y-125114835D01*
X118954134Y-125224893D01*
X119236203Y-125281000D01*
X119523797Y-125281000D01*
X119805866Y-125224893D01*
X120071569Y-125114835D01*
X120310696Y-124955056D01*
X120514056Y-124751696D01*
X120673835Y-124512569D01*
X120783893Y-124246866D01*
X120840000Y-123964797D01*
X120840000Y-123677203D01*
X120783893Y-123395134D01*
X120775843Y-123375699D01*
X121684906Y-123375699D01*
X121809314Y-123664392D01*
X122139397Y-123828999D01*
X122495251Y-123926048D01*
X122863201Y-123951808D01*
X123229106Y-123905290D01*
X123578906Y-123788282D01*
X123810686Y-123664392D01*
X123935094Y-123375699D01*
X122810000Y-122250605D01*
X121684906Y-123375699D01*
X120775843Y-123375699D01*
X120673835Y-123129431D01*
X120514056Y-122890304D01*
X120310696Y-122686944D01*
X120071569Y-122527165D01*
X119805866Y-122417107D01*
X119523797Y-122361000D01*
X119236203Y-122361000D01*
X118954134Y-122417107D01*
X118688431Y-122527165D01*
X118449304Y-122686944D01*
X118245944Y-122890304D01*
X118086165Y-123129431D01*
X117976107Y-123395134D01*
X117920000Y-123677203D01*
X113982500Y-123677203D01*
X113982500Y-122124201D01*
X120929192Y-122124201D01*
X120975710Y-122490106D01*
X121092718Y-122839906D01*
X121216608Y-123071686D01*
X121505301Y-123196094D01*
X122630395Y-122071000D01*
X122989605Y-122071000D01*
X124114699Y-123196094D01*
X124403392Y-123071686D01*
X124567999Y-122741603D01*
X124665048Y-122385749D01*
X124690808Y-122017799D01*
X124644290Y-121651894D01*
X124527282Y-121302094D01*
X124403392Y-121070314D01*
X124114699Y-120945906D01*
X122989605Y-122071000D01*
X122630395Y-122071000D01*
X121505301Y-120945906D01*
X121216608Y-121070314D01*
X121052001Y-121400397D01*
X120954952Y-121756251D01*
X120929192Y-122124201D01*
X113982500Y-122124201D01*
X113982500Y-120766301D01*
X121684906Y-120766301D01*
X122810000Y-121891395D01*
X123935094Y-120766301D01*
X123810686Y-120477608D01*
X123480603Y-120313001D01*
X123124749Y-120215952D01*
X122756799Y-120190192D01*
X122390894Y-120236710D01*
X122041094Y-120353718D01*
X121809314Y-120477608D01*
X121684906Y-120766301D01*
X113982500Y-120766301D01*
X113982500Y-99758500D01*
X115534261Y-99758500D01*
X115401513Y-99847199D01*
G37*
X115401513Y-99847199D02*
X115087199Y-100161513D01*
X114840244Y-100531108D01*
X114670138Y-100941779D01*
X114583419Y-101377746D01*
X114583419Y-101822254D01*
X114670138Y-102258221D01*
X114840244Y-102668892D01*
X115087199Y-103038487D01*
X115401513Y-103352801D01*
X115771108Y-103599756D01*
X116181779Y-103769862D01*
X116617746Y-103856581D01*
X117062254Y-103856581D01*
X117498221Y-103769862D01*
X117908892Y-103599756D01*
X118278487Y-103352801D01*
X118592801Y-103038487D01*
X118839756Y-102668892D01*
X118912249Y-102493878D01*
X118920188Y-102574482D01*
X118956498Y-102694180D01*
X119015463Y-102804494D01*
X119094815Y-102901185D01*
X119191506Y-102980537D01*
X119301820Y-103039502D01*
X119421518Y-103075812D01*
X119546000Y-103088072D01*
X121246000Y-103088072D01*
X121370482Y-103075812D01*
X121490180Y-103039502D01*
X121600494Y-102980537D01*
X121697185Y-102901185D01*
X121776537Y-102804494D01*
X121835502Y-102694180D01*
X121857513Y-102621620D01*
X121989368Y-102753475D01*
X122232589Y-102915990D01*
X122502842Y-103027932D01*
X122789740Y-103085000D01*
X123082260Y-103085000D01*
X123369158Y-103027932D01*
X123639411Y-102915990D01*
X123882632Y-102753475D01*
X124089475Y-102546632D01*
X124206000Y-102372240D01*
X124322525Y-102546632D01*
X124529368Y-102753475D01*
X124772589Y-102915990D01*
X125042842Y-103027932D01*
X125329740Y-103085000D01*
X125622260Y-103085000D01*
X125909158Y-103027932D01*
X126179411Y-102915990D01*
X126422632Y-102753475D01*
X126629475Y-102546632D01*
X126751195Y-102364466D01*
X126820822Y-102481355D01*
X127015731Y-102697588D01*
X127249080Y-102871641D01*
X127511901Y-102996825D01*
X127659110Y-103041476D01*
X127889000Y-102920155D01*
X127889000Y-101727000D01*
X127869000Y-101727000D01*
X127869000Y-101473000D01*
X127889000Y-101473000D01*
X127889000Y-100279845D01*
X128143000Y-100279845D01*
X128143000Y-101473000D01*
X128163000Y-101473000D01*
X128163000Y-101727000D01*
X128143000Y-101727000D01*
X128143000Y-102920155D01*
X128372890Y-103041476D01*
X128520099Y-102996825D01*
X128782920Y-102871641D01*
X129016269Y-102697588D01*
X129211178Y-102481355D01*
X129280805Y-102364466D01*
X129402525Y-102546632D01*
X129609368Y-102753475D01*
X129852589Y-102915990D01*
X130122842Y-103027932D01*
X130409740Y-103085000D01*
X130702260Y-103085000D01*
X130989158Y-103027932D01*
X131259411Y-102915990D01*
X131502632Y-102753475D01*
X131709475Y-102546632D01*
X131826000Y-102372240D01*
X131942525Y-102546632D01*
X132149368Y-102753475D01*
X132392589Y-102915990D01*
X132662842Y-103027932D01*
X132949740Y-103085000D01*
X133242260Y-103085000D01*
X133529158Y-103027932D01*
X133799411Y-102915990D01*
X134042632Y-102753475D01*
X134249475Y-102546632D01*
X134366000Y-102372240D01*
X134482525Y-102546632D01*
X134689368Y-102753475D01*
X134932589Y-102915990D01*
X135202842Y-103027932D01*
X135489740Y-103085000D01*
X135782260Y-103085000D01*
X136069158Y-103027932D01*
X136339411Y-102915990D01*
X136582632Y-102753475D01*
X136789475Y-102546632D01*
X136906000Y-102372240D01*
X137022525Y-102546632D01*
X137229368Y-102753475D01*
X137472589Y-102915990D01*
X137742842Y-103027932D01*
X138029740Y-103085000D01*
X138322260Y-103085000D01*
X138609158Y-103027932D01*
X138879411Y-102915990D01*
X139122632Y-102753475D01*
X139329475Y-102546632D01*
X139446000Y-102372240D01*
X139562525Y-102546632D01*
X139769368Y-102753475D01*
X140012589Y-102915990D01*
X140282842Y-103027932D01*
X140569740Y-103085000D01*
X140862260Y-103085000D01*
X141149158Y-103027932D01*
X141419411Y-102915990D01*
X141662632Y-102753475D01*
X141869475Y-102546632D01*
X141986000Y-102372240D01*
X142102525Y-102546632D01*
X142309368Y-102753475D01*
X142552589Y-102915990D01*
X142822842Y-103027932D01*
X143109740Y-103085000D01*
X143402260Y-103085000D01*
X143689158Y-103027932D01*
X143959411Y-102915990D01*
X144202632Y-102753475D01*
X144409475Y-102546632D01*
X144571990Y-102303411D01*
X144683932Y-102033158D01*
X144741000Y-101746260D01*
X144741000Y-101453740D01*
X144683932Y-101166842D01*
X144571990Y-100896589D01*
X144474043Y-100750000D01*
X145831928Y-100750000D01*
X145831928Y-102450000D01*
X145844188Y-102574482D01*
X145880498Y-102694180D01*
X145939463Y-102804494D01*
X146018815Y-102901185D01*
X146115506Y-102980537D01*
X146225820Y-103039502D01*
X146345518Y-103075812D01*
X146470000Y-103088072D01*
X148170000Y-103088072D01*
X148294482Y-103075812D01*
X148414180Y-103039502D01*
X148524494Y-102980537D01*
X148621185Y-102901185D01*
X148700537Y-102804494D01*
X148759502Y-102694180D01*
X148781513Y-102621620D01*
X148913368Y-102753475D01*
X149156589Y-102915990D01*
X149426842Y-103027932D01*
X149713740Y-103085000D01*
X150006260Y-103085000D01*
X150293158Y-103027932D01*
X150563411Y-102915990D01*
X150806632Y-102753475D01*
X151013475Y-102546632D01*
X151130000Y-102372240D01*
X151246525Y-102546632D01*
X151453368Y-102753475D01*
X151696589Y-102915990D01*
X151966842Y-103027932D01*
X152253740Y-103085000D01*
X152546260Y-103085000D01*
X152833158Y-103027932D01*
X153103411Y-102915990D01*
X153346632Y-102753475D01*
X153553475Y-102546632D01*
X153670000Y-102372240D01*
X153786525Y-102546632D01*
X153993368Y-102753475D01*
X154236589Y-102915990D01*
X154506842Y-103027932D01*
X154793740Y-103085000D01*
X155086260Y-103085000D01*
X155373158Y-103027932D01*
X155643411Y-102915990D01*
X155886632Y-102753475D01*
X156093475Y-102546632D01*
X156210000Y-102372240D01*
X156326525Y-102546632D01*
X156533368Y-102753475D01*
X156776589Y-102915990D01*
X157046842Y-103027932D01*
X157333740Y-103085000D01*
X157626260Y-103085000D01*
X157913158Y-103027932D01*
X158183411Y-102915990D01*
X158426632Y-102753475D01*
X158633475Y-102546632D01*
X158750000Y-102372240D01*
X158866525Y-102546632D01*
X159073368Y-102753475D01*
X159316589Y-102915990D01*
X159586842Y-103027932D01*
X159873740Y-103085000D01*
X160166260Y-103085000D01*
X160453158Y-103027932D01*
X160723411Y-102915990D01*
X160966632Y-102753475D01*
X161173475Y-102546632D01*
X161290000Y-102372240D01*
X161406525Y-102546632D01*
X161613368Y-102753475D01*
X161856589Y-102915990D01*
X162126842Y-103027932D01*
X162413740Y-103085000D01*
X162706260Y-103085000D01*
X162993158Y-103027932D01*
X163263411Y-102915990D01*
X163506632Y-102753475D01*
X163713475Y-102546632D01*
X163830000Y-102372240D01*
X163946525Y-102546632D01*
X164153368Y-102753475D01*
X164396589Y-102915990D01*
X164666842Y-103027932D01*
X164953740Y-103085000D01*
X165246260Y-103085000D01*
X165533158Y-103027932D01*
X165803411Y-102915990D01*
X166046632Y-102753475D01*
X166253475Y-102546632D01*
X166415990Y-102303411D01*
X166527932Y-102033158D01*
X166585000Y-101746260D01*
X166585000Y-101453740D01*
X166527932Y-101166842D01*
X166415990Y-100896589D01*
X166253475Y-100653368D01*
X166046632Y-100446525D01*
X165803411Y-100284010D01*
X165533158Y-100172068D01*
X165246260Y-100115000D01*
X164953740Y-100115000D01*
X164666842Y-100172068D01*
X164396589Y-100284010D01*
X164153368Y-100446525D01*
X163946525Y-100653368D01*
X163830000Y-100827760D01*
X163713475Y-100653368D01*
X163506632Y-100446525D01*
X163263411Y-100284010D01*
X162993158Y-100172068D01*
X162706260Y-100115000D01*
X162413740Y-100115000D01*
X162126842Y-100172068D01*
X161856589Y-100284010D01*
X161613368Y-100446525D01*
X161406525Y-100653368D01*
X161290000Y-100827760D01*
X161173475Y-100653368D01*
X160966632Y-100446525D01*
X160723411Y-100284010D01*
X160453158Y-100172068D01*
X160166260Y-100115000D01*
X159873740Y-100115000D01*
X159586842Y-100172068D01*
X159316589Y-100284010D01*
X159073368Y-100446525D01*
X158866525Y-100653368D01*
X158750000Y-100827760D01*
X158633475Y-100653368D01*
X158426632Y-100446525D01*
X158183411Y-100284010D01*
X157913158Y-100172068D01*
X157626260Y-100115000D01*
X157333740Y-100115000D01*
X157046842Y-100172068D01*
X156776589Y-100284010D01*
X156533368Y-100446525D01*
X156326525Y-100653368D01*
X156210000Y-100827760D01*
X156093475Y-100653368D01*
X155886632Y-100446525D01*
X155643411Y-100284010D01*
X155373158Y-100172068D01*
X155086260Y-100115000D01*
X154793740Y-100115000D01*
X154506842Y-100172068D01*
X154236589Y-100284010D01*
X153993368Y-100446525D01*
X153786525Y-100653368D01*
X153670000Y-100827760D01*
X153553475Y-100653368D01*
X153346632Y-100446525D01*
X153103411Y-100284010D01*
X152833158Y-100172068D01*
X152546260Y-100115000D01*
X152253740Y-100115000D01*
X151966842Y-100172068D01*
X151696589Y-100284010D01*
X151453368Y-100446525D01*
X151246525Y-100653368D01*
X151130000Y-100827760D01*
X151013475Y-100653368D01*
X150806632Y-100446525D01*
X150563411Y-100284010D01*
X150293158Y-100172068D01*
X150006260Y-100115000D01*
X149713740Y-100115000D01*
X149426842Y-100172068D01*
X149156589Y-100284010D01*
X148913368Y-100446525D01*
X148781513Y-100578380D01*
X148759502Y-100505820D01*
X148700537Y-100395506D01*
X148621185Y-100298815D01*
X148524494Y-100219463D01*
X148414180Y-100160498D01*
X148294482Y-100124188D01*
X148170000Y-100111928D01*
X146470000Y-100111928D01*
X146345518Y-100124188D01*
X146225820Y-100160498D01*
X146115506Y-100219463D01*
X146018815Y-100298815D01*
X145939463Y-100395506D01*
X145880498Y-100505820D01*
X145844188Y-100625518D01*
X145831928Y-100750000D01*
X144474043Y-100750000D01*
X144409475Y-100653368D01*
X144202632Y-100446525D01*
X143959411Y-100284010D01*
X143689158Y-100172068D01*
X143402260Y-100115000D01*
X143109740Y-100115000D01*
X142822842Y-100172068D01*
X142552589Y-100284010D01*
X142309368Y-100446525D01*
X142102525Y-100653368D01*
X141986000Y-100827760D01*
X141869475Y-100653368D01*
X141662632Y-100446525D01*
X141419411Y-100284010D01*
X141149158Y-100172068D01*
X140862260Y-100115000D01*
X140569740Y-100115000D01*
X140282842Y-100172068D01*
X140012589Y-100284010D01*
X139769368Y-100446525D01*
X139562525Y-100653368D01*
X139446000Y-100827760D01*
X139329475Y-100653368D01*
X139122632Y-100446525D01*
X138879411Y-100284010D01*
X138609158Y-100172068D01*
X138322260Y-100115000D01*
X138029740Y-100115000D01*
X137742842Y-100172068D01*
X137472589Y-100284010D01*
X137229368Y-100446525D01*
X137022525Y-100653368D01*
X136906000Y-100827760D01*
X136789475Y-100653368D01*
X136582632Y-100446525D01*
X136339411Y-100284010D01*
X136069158Y-100172068D01*
X135782260Y-100115000D01*
X135489740Y-100115000D01*
X135202842Y-100172068D01*
X134932589Y-100284010D01*
X134689368Y-100446525D01*
X134482525Y-100653368D01*
X134366000Y-100827760D01*
X134249475Y-100653368D01*
X134042632Y-100446525D01*
X133799411Y-100284010D01*
X133529158Y-100172068D01*
X133242260Y-100115000D01*
X132949740Y-100115000D01*
X132662842Y-100172068D01*
X132392589Y-100284010D01*
X132149368Y-100446525D01*
X131942525Y-100653368D01*
X131826000Y-100827760D01*
X131709475Y-100653368D01*
X131502632Y-100446525D01*
X131259411Y-100284010D01*
X130989158Y-100172068D01*
X130702260Y-100115000D01*
X130409740Y-100115000D01*
X130122842Y-100172068D01*
X129852589Y-100284010D01*
X129609368Y-100446525D01*
X129402525Y-100653368D01*
X129280805Y-100835534D01*
X129211178Y-100718645D01*
X129016269Y-100502412D01*
X128782920Y-100328359D01*
X128520099Y-100203175D01*
X128372890Y-100158524D01*
X128143000Y-100279845D01*
X127889000Y-100279845D01*
X127659110Y-100158524D01*
X127511901Y-100203175D01*
X127249080Y-100328359D01*
X127015731Y-100502412D01*
X126820822Y-100718645D01*
X126751195Y-100835534D01*
X126629475Y-100653368D01*
X126422632Y-100446525D01*
X126179411Y-100284010D01*
X125909158Y-100172068D01*
X125622260Y-100115000D01*
X125329740Y-100115000D01*
X125042842Y-100172068D01*
X124772589Y-100284010D01*
X124529368Y-100446525D01*
X124322525Y-100653368D01*
X124206000Y-100827760D01*
X124089475Y-100653368D01*
X123882632Y-100446525D01*
X123639411Y-100284010D01*
X123369158Y-100172068D01*
X123082260Y-100115000D01*
X122789740Y-100115000D01*
X122502842Y-100172068D01*
X122232589Y-100284010D01*
X121989368Y-100446525D01*
X121857513Y-100578380D01*
X121835502Y-100505820D01*
X121776537Y-100395506D01*
X121697185Y-100298815D01*
X121600494Y-100219463D01*
X121490180Y-100160498D01*
X121370482Y-100124188D01*
X121246000Y-100111928D01*
X119546000Y-100111928D01*
X119421518Y-100124188D01*
X119301820Y-100160498D01*
X119191506Y-100219463D01*
X119094815Y-100298815D01*
X119015463Y-100395506D01*
X118956498Y-100505820D01*
X118920188Y-100625518D01*
X118912249Y-100706122D01*
X118839756Y-100531108D01*
X118592801Y-100161513D01*
X118278487Y-99847199D01*
X118145739Y-99758500D01*
X166751000Y-99758500D01*
X166751000Y-112268000D01*
X166753440Y-112292776D01*
X166760667Y-112316601D01*
X166772403Y-112338557D01*
X166788197Y-112357803D01*
X169291000Y-114860606D01*
X169291000Y-115299712D01*
X169078487Y-115087199D01*
X168708892Y-114840244D01*
X168298221Y-114670138D01*
X167862254Y-114583419D01*
X167417746Y-114583419D01*
X166981779Y-114670138D01*
X166571108Y-114840244D01*
X166201513Y-115087199D01*
X165887199Y-115401513D01*
X165640244Y-115771108D01*
X165470138Y-116181779D01*
X165383419Y-116617746D01*
X165383419Y-117062254D01*
X165470138Y-117498221D01*
X165640244Y-117908892D01*
X165887199Y-118278487D01*
X166201513Y-118592801D01*
X166571108Y-118839756D01*
X166981779Y-119009862D01*
X167417746Y-119096581D01*
X167862254Y-119096581D01*
X168298221Y-119009862D01*
X168708892Y-118839756D01*
X169078487Y-118592801D01*
X169291000Y-118380288D01*
X169291000Y-143239712D01*
X169078487Y-143027199D01*
X168708892Y-142780244D01*
X168298221Y-142610138D01*
X167862254Y-142523419D01*
X167417746Y-142523419D01*
X166981779Y-142610138D01*
X166571108Y-142780244D01*
X166201513Y-143027199D01*
X165887199Y-143341513D01*
X165640244Y-143711108D01*
X165470138Y-144121779D01*
X165383419Y-144557746D01*
X165383419Y-145002254D01*
X165470138Y-145438221D01*
X165640244Y-145848892D01*
X165887199Y-146218487D01*
X166201513Y-146532801D01*
X166571108Y-146779756D01*
X166981779Y-146949862D01*
X167417746Y-147036581D01*
X167862254Y-147036581D01*
X168298221Y-146949862D01*
X168708892Y-146779756D01*
X169078487Y-146532801D01*
X169291000Y-146320288D01*
X169291000Y-147013394D01*
X167042197Y-149262197D01*
X167026403Y-149281443D01*
X167014667Y-149303399D01*
X167007440Y-149327224D01*
X167005000Y-149352000D01*
X167005000Y-149566237D01*
X166991549Y-149591402D01*
X166991549Y-149591403D01*
X166954439Y-149713740D01*
X166951608Y-149723071D01*
X166938122Y-149860000D01*
X166941501Y-149894308D01*
X166941500Y-151701500D01*
X116875739Y-151701500D01*
X117008487Y-151612801D01*
X117322801Y-151298487D01*
X117569756Y-150928892D01*
X117739862Y-150518221D01*
X117826581Y-150082254D01*
X117826581Y-149637746D01*
X117739862Y-149201779D01*
X117660425Y-149010000D01*
X128051928Y-149010000D01*
X128051928Y-150710000D01*
X128064188Y-150834482D01*
X128100498Y-150954180D01*
X128159463Y-151064494D01*
X128238815Y-151161185D01*
X128335506Y-151240537D01*
X128445820Y-151299502D01*
X128565518Y-151335812D01*
X128690000Y-151348072D01*
X130390000Y-151348072D01*
X130514482Y-151335812D01*
X130634180Y-151299502D01*
X130744494Y-151240537D01*
X130841185Y-151161185D01*
X130920537Y-151064494D01*
X130979502Y-150954180D01*
X131001513Y-150881620D01*
X131133368Y-151013475D01*
X131376589Y-151175990D01*
X131646842Y-151287932D01*
X131933740Y-151345000D01*
X132226260Y-151345000D01*
X132513158Y-151287932D01*
X132783411Y-151175990D01*
X133026632Y-151013475D01*
X133233475Y-150806632D01*
X133350000Y-150632240D01*
X133466525Y-150806632D01*
X133673368Y-151013475D01*
X133916589Y-151175990D01*
X134186842Y-151287932D01*
X134473740Y-151345000D01*
X134766260Y-151345000D01*
X135053158Y-151287932D01*
X135323411Y-151175990D01*
X135566632Y-151013475D01*
X135773475Y-150806632D01*
X135890000Y-150632240D01*
X136006525Y-150806632D01*
X136213368Y-151013475D01*
X136456589Y-151175990D01*
X136726842Y-151287932D01*
X137013740Y-151345000D01*
X137306260Y-151345000D01*
X137593158Y-151287932D01*
X137863411Y-151175990D01*
X138106632Y-151013475D01*
X138313475Y-150806632D01*
X138430000Y-150632240D01*
X138546525Y-150806632D01*
X138753368Y-151013475D01*
X138996589Y-151175990D01*
X139266842Y-151287932D01*
X139553740Y-151345000D01*
X139846260Y-151345000D01*
X140133158Y-151287932D01*
X140403411Y-151175990D01*
X140646632Y-151013475D01*
X140853475Y-150806632D01*
X140975195Y-150624466D01*
X141044822Y-150741355D01*
X141239731Y-150957588D01*
X141473080Y-151131641D01*
X141735901Y-151256825D01*
X141883110Y-151301476D01*
X142113000Y-151180155D01*
X142113000Y-149987000D01*
X142367000Y-149987000D01*
X142367000Y-151180155D01*
X142596890Y-151301476D01*
X142744099Y-151256825D01*
X143006920Y-151131641D01*
X143240269Y-150957588D01*
X143435178Y-150741355D01*
X143510000Y-150615745D01*
X143584822Y-150741355D01*
X143779731Y-150957588D01*
X144013080Y-151131641D01*
X144275901Y-151256825D01*
X144423110Y-151301476D01*
X144653000Y-151180155D01*
X144653000Y-149987000D01*
X142367000Y-149987000D01*
X142113000Y-149987000D01*
X142093000Y-149987000D01*
X142093000Y-149733000D01*
X142113000Y-149733000D01*
X142113000Y-148539845D01*
X142367000Y-148539845D01*
X142367000Y-149733000D01*
X144653000Y-149733000D01*
X144653000Y-148539845D01*
X144907000Y-148539845D01*
X144907000Y-149733000D01*
X144927000Y-149733000D01*
X144927000Y-149987000D01*
X144907000Y-149987000D01*
X144907000Y-151180155D01*
X145136890Y-151301476D01*
X145284099Y-151256825D01*
X145546920Y-151131641D01*
X145780269Y-150957588D01*
X145975178Y-150741355D01*
X146044805Y-150624466D01*
X146166525Y-150806632D01*
X146373368Y-151013475D01*
X146616589Y-151175990D01*
X146886842Y-151287932D01*
X147173740Y-151345000D01*
X147466260Y-151345000D01*
X147753158Y-151287932D01*
X148023411Y-151175990D01*
X148266632Y-151013475D01*
X148473475Y-150806632D01*
X148635990Y-150563411D01*
X148747932Y-150293158D01*
X148805000Y-150006260D01*
X148805000Y-149713740D01*
X148747932Y-149426842D01*
X148635990Y-149156589D01*
X148538043Y-149010000D01*
X150911928Y-149010000D01*
X150911928Y-150710000D01*
X150924188Y-150834482D01*
X150960498Y-150954180D01*
X151019463Y-151064494D01*
X151098815Y-151161185D01*
X151195506Y-151240537D01*
X151305820Y-151299502D01*
X151425518Y-151335812D01*
X151550000Y-151348072D01*
X153250000Y-151348072D01*
X153374482Y-151335812D01*
X153494180Y-151299502D01*
X153604494Y-151240537D01*
X153701185Y-151161185D01*
X153780537Y-151064494D01*
X153839502Y-150954180D01*
X153861513Y-150881620D01*
X153993368Y-151013475D01*
X154236589Y-151175990D01*
X154506842Y-151287932D01*
X154793740Y-151345000D01*
X155086260Y-151345000D01*
X155373158Y-151287932D01*
X155643411Y-151175990D01*
X155886632Y-151013475D01*
X156093475Y-150806632D01*
X156210000Y-150632240D01*
X156326525Y-150806632D01*
X156533368Y-151013475D01*
X156776589Y-151175990D01*
X157046842Y-151287932D01*
X157333740Y-151345000D01*
X157626260Y-151345000D01*
X157913158Y-151287932D01*
X158183411Y-151175990D01*
X158426632Y-151013475D01*
X158633475Y-150806632D01*
X158750000Y-150632240D01*
X158866525Y-150806632D01*
X159073368Y-151013475D01*
X159316589Y-151175990D01*
X159586842Y-151287932D01*
X159873740Y-151345000D01*
X160166260Y-151345000D01*
X160453158Y-151287932D01*
X160723411Y-151175990D01*
X160966632Y-151013475D01*
X161173475Y-150806632D01*
X161290000Y-150632240D01*
X161406525Y-150806632D01*
X161613368Y-151013475D01*
X161856589Y-151175990D01*
X162126842Y-151287932D01*
X162413740Y-151345000D01*
X162706260Y-151345000D01*
X162993158Y-151287932D01*
X163263411Y-151175990D01*
X163506632Y-151013475D01*
X163713475Y-150806632D01*
X163830000Y-150632240D01*
X163946525Y-150806632D01*
X164153368Y-151013475D01*
X164396589Y-151175990D01*
X164666842Y-151287932D01*
X164953740Y-151345000D01*
X165246260Y-151345000D01*
X165533158Y-151287932D01*
X165803411Y-151175990D01*
X166046632Y-151013475D01*
X166253475Y-150806632D01*
X166415990Y-150563411D01*
X166527932Y-150293158D01*
X166585000Y-150006260D01*
X166585000Y-149713740D01*
X166527932Y-149426842D01*
X166415990Y-149156589D01*
X166253475Y-148913368D01*
X166046632Y-148706525D01*
X165803411Y-148544010D01*
X165533158Y-148432068D01*
X165246260Y-148375000D01*
X164953740Y-148375000D01*
X164666842Y-148432068D01*
X164396589Y-148544010D01*
X164153368Y-148706525D01*
X163946525Y-148913368D01*
X163830000Y-149087760D01*
X163713475Y-148913368D01*
X163506632Y-148706525D01*
X163263411Y-148544010D01*
X162993158Y-148432068D01*
X162706260Y-148375000D01*
X162413740Y-148375000D01*
X162126842Y-148432068D01*
X161856589Y-148544010D01*
X161613368Y-148706525D01*
X161406525Y-148913368D01*
X161290000Y-149087760D01*
X161173475Y-148913368D01*
X160966632Y-148706525D01*
X160723411Y-148544010D01*
X160453158Y-148432068D01*
X160166260Y-148375000D01*
X159873740Y-148375000D01*
X159586842Y-148432068D01*
X159316589Y-148544010D01*
X159073368Y-148706525D01*
X158866525Y-148913368D01*
X158750000Y-149087760D01*
X158633475Y-148913368D01*
X158426632Y-148706525D01*
X158183411Y-148544010D01*
X157913158Y-148432068D01*
X157626260Y-148375000D01*
X157333740Y-148375000D01*
X157046842Y-148432068D01*
X156776589Y-148544010D01*
X156533368Y-148706525D01*
X156326525Y-148913368D01*
X156210000Y-149087760D01*
X156093475Y-148913368D01*
X155886632Y-148706525D01*
X155643411Y-148544010D01*
X155373158Y-148432068D01*
X155086260Y-148375000D01*
X154793740Y-148375000D01*
X154506842Y-148432068D01*
X154236589Y-148544010D01*
X153993368Y-148706525D01*
X153861513Y-148838380D01*
X153839502Y-148765820D01*
X153780537Y-148655506D01*
X153701185Y-148558815D01*
X153604494Y-148479463D01*
X153494180Y-148420498D01*
X153374482Y-148384188D01*
X153250000Y-148371928D01*
X151550000Y-148371928D01*
X151425518Y-148384188D01*
X151305820Y-148420498D01*
X151195506Y-148479463D01*
X151098815Y-148558815D01*
X151019463Y-148655506D01*
X150960498Y-148765820D01*
X150924188Y-148885518D01*
X150911928Y-149010000D01*
X148538043Y-149010000D01*
X148473475Y-148913368D01*
X148266632Y-148706525D01*
X148023411Y-148544010D01*
X147753158Y-148432068D01*
X147466260Y-148375000D01*
X147173740Y-148375000D01*
X146886842Y-148432068D01*
X146616589Y-148544010D01*
X146373368Y-148706525D01*
X146166525Y-148913368D01*
X146044805Y-149095534D01*
X145975178Y-148978645D01*
X145780269Y-148762412D01*
X145546920Y-148588359D01*
X145284099Y-148463175D01*
X145136890Y-148418524D01*
X144907000Y-148539845D01*
X144653000Y-148539845D01*
X144423110Y-148418524D01*
X144275901Y-148463175D01*
X144013080Y-148588359D01*
X143779731Y-148762412D01*
X143584822Y-148978645D01*
X143510000Y-149104255D01*
X143435178Y-148978645D01*
X143240269Y-148762412D01*
X143006920Y-148588359D01*
X142744099Y-148463175D01*
X142596890Y-148418524D01*
X142367000Y-148539845D01*
X142113000Y-148539845D01*
X141883110Y-148418524D01*
X141735901Y-148463175D01*
X141473080Y-148588359D01*
X141239731Y-148762412D01*
X141044822Y-148978645D01*
X140975195Y-149095534D01*
X140853475Y-148913368D01*
X140646632Y-148706525D01*
X140403411Y-148544010D01*
X140133158Y-148432068D01*
X139846260Y-148375000D01*
X139553740Y-148375000D01*
X139266842Y-148432068D01*
X138996589Y-148544010D01*
X138753368Y-148706525D01*
X138546525Y-148913368D01*
X138430000Y-149087760D01*
X138313475Y-148913368D01*
X138106632Y-148706525D01*
X137863411Y-148544010D01*
X137593158Y-148432068D01*
X137306260Y-148375000D01*
X137013740Y-148375000D01*
X136726842Y-148432068D01*
X136456589Y-148544010D01*
X136213368Y-148706525D01*
X136006525Y-148913368D01*
X135890000Y-149087760D01*
X135773475Y-148913368D01*
X135566632Y-148706525D01*
X135323411Y-148544010D01*
X135053158Y-148432068D01*
X134766260Y-148375000D01*
X134473740Y-148375000D01*
X134186842Y-148432068D01*
X133916589Y-148544010D01*
X133673368Y-148706525D01*
X133466525Y-148913368D01*
X133350000Y-149087760D01*
X133233475Y-148913368D01*
X133026632Y-148706525D01*
X132783411Y-148544010D01*
X132513158Y-148432068D01*
X132226260Y-148375000D01*
X131933740Y-148375000D01*
X131646842Y-148432068D01*
X131376589Y-148544010D01*
X131133368Y-148706525D01*
X131001513Y-148838380D01*
X130979502Y-148765820D01*
X130920537Y-148655506D01*
X130841185Y-148558815D01*
X130744494Y-148479463D01*
X130634180Y-148420498D01*
X130514482Y-148384188D01*
X130390000Y-148371928D01*
X128690000Y-148371928D01*
X128565518Y-148384188D01*
X128445820Y-148420498D01*
X128335506Y-148479463D01*
X128238815Y-148558815D01*
X128159463Y-148655506D01*
X128100498Y-148765820D01*
X128064188Y-148885518D01*
X128051928Y-149010000D01*
X117660425Y-149010000D01*
X117569756Y-148791108D01*
X117322801Y-148421513D01*
X117008487Y-148107199D01*
X116638892Y-147860244D01*
X116228221Y-147690138D01*
X115792254Y-147603419D01*
X115347746Y-147603419D01*
X114911779Y-147690138D01*
X114501108Y-147860244D01*
X114131513Y-148107199D01*
X113982500Y-148256212D01*
X113982500Y-139575699D01*
X121684906Y-139575699D01*
X121809314Y-139864392D01*
X122139397Y-140028999D01*
X122495251Y-140126048D01*
X122863201Y-140151808D01*
X123229106Y-140105290D01*
X123578906Y-139988282D01*
X123810686Y-139864392D01*
X123935094Y-139575699D01*
X122810000Y-138450605D01*
X121684906Y-139575699D01*
X113982500Y-139575699D01*
X113982500Y-138324201D01*
X120929192Y-138324201D01*
X120975710Y-138690106D01*
X121092718Y-139039906D01*
X121216608Y-139271686D01*
X121505301Y-139396094D01*
X122630395Y-138271000D01*
X122989605Y-138271000D01*
X124114699Y-139396094D01*
X124403392Y-139271686D01*
X124567999Y-138941603D01*
X124592981Y-138850000D01*
X145577928Y-138850000D01*
X145577928Y-140550000D01*
X145590188Y-140674482D01*
X145626498Y-140794180D01*
X145685463Y-140904494D01*
X145764815Y-141001185D01*
X145861506Y-141080537D01*
X145971820Y-141139502D01*
X146091518Y-141175812D01*
X146216000Y-141188072D01*
X147916000Y-141188072D01*
X148040482Y-141175812D01*
X148160180Y-141139502D01*
X148270494Y-141080537D01*
X148367185Y-141001185D01*
X148446537Y-140904494D01*
X148505502Y-140794180D01*
X148527513Y-140721620D01*
X148659368Y-140853475D01*
X148902589Y-141015990D01*
X149172842Y-141127932D01*
X149459740Y-141185000D01*
X149752260Y-141185000D01*
X150039158Y-141127932D01*
X150309411Y-141015990D01*
X150552632Y-140853475D01*
X150759475Y-140646632D01*
X150876000Y-140472240D01*
X150992525Y-140646632D01*
X151199368Y-140853475D01*
X151442589Y-141015990D01*
X151712842Y-141127932D01*
X151999740Y-141185000D01*
X152292260Y-141185000D01*
X152579158Y-141127932D01*
X152849411Y-141015990D01*
X153092632Y-140853475D01*
X153299475Y-140646632D01*
X153461990Y-140403411D01*
X153573932Y-140133158D01*
X153631000Y-139846260D01*
X153631000Y-139553740D01*
X153573932Y-139266842D01*
X153461990Y-138996589D01*
X153299475Y-138753368D01*
X153092632Y-138546525D01*
X152849411Y-138384010D01*
X152579158Y-138272068D01*
X152292260Y-138215000D01*
X151999740Y-138215000D01*
X151712842Y-138272068D01*
X151442589Y-138384010D01*
X151199368Y-138546525D01*
X150992525Y-138753368D01*
X150876000Y-138927760D01*
X150759475Y-138753368D01*
X150552632Y-138546525D01*
X150309411Y-138384010D01*
X150039158Y-138272068D01*
X149752260Y-138215000D01*
X149459740Y-138215000D01*
X149172842Y-138272068D01*
X148902589Y-138384010D01*
X148659368Y-138546525D01*
X148527513Y-138678380D01*
X148505502Y-138605820D01*
X148446537Y-138495506D01*
X148367185Y-138398815D01*
X148270494Y-138319463D01*
X148160180Y-138260498D01*
X148040482Y-138224188D01*
X147916000Y-138211928D01*
X146216000Y-138211928D01*
X146091518Y-138224188D01*
X145971820Y-138260498D01*
X145861506Y-138319463D01*
X145764815Y-138398815D01*
X145685463Y-138495506D01*
X145626498Y-138605820D01*
X145590188Y-138725518D01*
X145577928Y-138850000D01*
X124592981Y-138850000D01*
X124665048Y-138585749D01*
X124690808Y-138217799D01*
X124644290Y-137851894D01*
X124527282Y-137502094D01*
X124403392Y-137270314D01*
X124114699Y-137145906D01*
X122989605Y-138271000D01*
X122630395Y-138271000D01*
X121505301Y-137145906D01*
X121216608Y-137270314D01*
X121052001Y-137600397D01*
X120954952Y-137956251D01*
X120929192Y-138324201D01*
X113982500Y-138324201D01*
X113982500Y-136377203D01*
X117920000Y-136377203D01*
X117920000Y-136664797D01*
X117976107Y-136946866D01*
X118086165Y-137212569D01*
X118245944Y-137451696D01*
X118449304Y-137655056D01*
X118688431Y-137814835D01*
X118954134Y-137924893D01*
X119236203Y-137981000D01*
X119523797Y-137981000D01*
X119805866Y-137924893D01*
X120071569Y-137814835D01*
X120310696Y-137655056D01*
X120514056Y-137451696D01*
X120673835Y-137212569D01*
X120775842Y-136966301D01*
X121684906Y-136966301D01*
X122810000Y-138091395D01*
X123935094Y-136966301D01*
X123810686Y-136677608D01*
X123480603Y-136513001D01*
X123124749Y-136415952D01*
X122756799Y-136390192D01*
X122390894Y-136436710D01*
X122041094Y-136553718D01*
X121809314Y-136677608D01*
X121684906Y-136966301D01*
X120775842Y-136966301D01*
X120783893Y-136946866D01*
X120840000Y-136664797D01*
X120840000Y-136377203D01*
X120783893Y-136095134D01*
X120673835Y-135829431D01*
X120514056Y-135590304D01*
X120310696Y-135386944D01*
X120071569Y-135227165D01*
X119805866Y-135117107D01*
X119523797Y-135061000D01*
X119236203Y-135061000D01*
X118954134Y-135117107D01*
X118688431Y-135227165D01*
X118449304Y-135386944D01*
X118245944Y-135590304D01*
X118086165Y-135829431D01*
X117976107Y-136095134D01*
X117920000Y-136377203D01*
X113982500Y-136377203D01*
X113982500Y-127474146D01*
X120530500Y-127474146D01*
X120530500Y-127747854D01*
X120583898Y-128016302D01*
X120688641Y-128269175D01*
X120840705Y-128496754D01*
X120974951Y-128631000D01*
X120840705Y-128765246D01*
X120688641Y-128992825D01*
X120583898Y-129245698D01*
X120530500Y-129514146D01*
X120530500Y-129787854D01*
X120583898Y-130056302D01*
X120688641Y-130309175D01*
X120840705Y-130536754D01*
X120974951Y-130671000D01*
X120840705Y-130805246D01*
X120688641Y-131032825D01*
X120583898Y-131285698D01*
X120530500Y-131554146D01*
X120530500Y-131827854D01*
X120583898Y-132096302D01*
X120688641Y-132349175D01*
X120840705Y-132576754D01*
X120974951Y-132711000D01*
X120840705Y-132845246D01*
X120688641Y-133072825D01*
X120583898Y-133325698D01*
X120530500Y-133594146D01*
X120530500Y-133867854D01*
X120583898Y-134136302D01*
X120688641Y-134389175D01*
X120840705Y-134616754D01*
X121034246Y-134810295D01*
X121261825Y-134962359D01*
X121514698Y-135067102D01*
X121783146Y-135120500D01*
X122056854Y-135120500D01*
X122325302Y-135067102D01*
X122578175Y-134962359D01*
X122805754Y-134810295D01*
X122999295Y-134616754D01*
X123151359Y-134389175D01*
X123256102Y-134136302D01*
X123275432Y-134039122D01*
X123294698Y-134047102D01*
X123563146Y-134100500D01*
X123836854Y-134100500D01*
X124105302Y-134047102D01*
X124358175Y-133942359D01*
X124585754Y-133790295D01*
X124779295Y-133596754D01*
X124931359Y-133369175D01*
X125036102Y-133116302D01*
X125089500Y-132847854D01*
X125089500Y-132574146D01*
X125036102Y-132305698D01*
X124931359Y-132052825D01*
X124779295Y-131825246D01*
X124645049Y-131691000D01*
X124779295Y-131556754D01*
X124931359Y-131329175D01*
X125036102Y-131076302D01*
X125089500Y-130807854D01*
X125089500Y-130534146D01*
X125036102Y-130265698D01*
X124931359Y-130012825D01*
X124779295Y-129785246D01*
X124645049Y-129651000D01*
X124779295Y-129516754D01*
X124931359Y-129289175D01*
X125036102Y-129036302D01*
X125089500Y-128767854D01*
X125089500Y-128494146D01*
X125036102Y-128225698D01*
X124931359Y-127972825D01*
X124779295Y-127745246D01*
X124645049Y-127611000D01*
X124779295Y-127476754D01*
X124931359Y-127249175D01*
X125036102Y-126996302D01*
X125089500Y-126727854D01*
X125089500Y-126599740D01*
X135421000Y-126599740D01*
X135421000Y-126892260D01*
X135478068Y-127179158D01*
X135590010Y-127449411D01*
X135752525Y-127692632D01*
X135959368Y-127899475D01*
X136133760Y-128016000D01*
X135959368Y-128132525D01*
X135752525Y-128339368D01*
X135590010Y-128582589D01*
X135478068Y-128852842D01*
X135421000Y-129139740D01*
X135421000Y-129432260D01*
X135478068Y-129719158D01*
X135590010Y-129989411D01*
X135752525Y-130232632D01*
X135959368Y-130439475D01*
X136133760Y-130556000D01*
X135959368Y-130672525D01*
X135752525Y-130879368D01*
X135590010Y-131122589D01*
X135478068Y-131392842D01*
X135421000Y-131679740D01*
X135421000Y-131972260D01*
X135478068Y-132259158D01*
X135590010Y-132529411D01*
X135752525Y-132772632D01*
X135959368Y-132979475D01*
X136133760Y-133096000D01*
X135959368Y-133212525D01*
X135752525Y-133419368D01*
X135590010Y-133662589D01*
X135478068Y-133932842D01*
X135421000Y-134219740D01*
X135421000Y-134512260D01*
X135478068Y-134799158D01*
X135590010Y-135069411D01*
X135752525Y-135312632D01*
X135959368Y-135519475D01*
X136202589Y-135681990D01*
X136472842Y-135793932D01*
X136759740Y-135851000D01*
X137052260Y-135851000D01*
X137339158Y-135793932D01*
X137609411Y-135681990D01*
X137852632Y-135519475D01*
X137984487Y-135387620D01*
X138006498Y-135460180D01*
X138065463Y-135570494D01*
X138144815Y-135667185D01*
X138241506Y-135746537D01*
X138351820Y-135805502D01*
X138471518Y-135841812D01*
X138596000Y-135854072D01*
X140296000Y-135854072D01*
X140420482Y-135841812D01*
X140540180Y-135805502D01*
X140650494Y-135746537D01*
X140747185Y-135667185D01*
X140826537Y-135570494D01*
X140885502Y-135460180D01*
X140921812Y-135340482D01*
X140934072Y-135216000D01*
X140934072Y-133516000D01*
X140921812Y-133391518D01*
X140885502Y-133271820D01*
X140826537Y-133161506D01*
X140747185Y-133064815D01*
X140650494Y-132985463D01*
X140540180Y-132926498D01*
X140467620Y-132904487D01*
X140599475Y-132772632D01*
X140761990Y-132529411D01*
X140873932Y-132259158D01*
X140931000Y-131972260D01*
X140931000Y-131679740D01*
X140873932Y-131392842D01*
X140761990Y-131122589D01*
X140599475Y-130879368D01*
X140392632Y-130672525D01*
X140218240Y-130556000D01*
X140392632Y-130439475D01*
X140599475Y-130232632D01*
X140761990Y-129989411D01*
X140873932Y-129719158D01*
X140931000Y-129432260D01*
X140931000Y-129139740D01*
X140873932Y-128852842D01*
X140761990Y-128582589D01*
X140599475Y-128339368D01*
X140392632Y-128132525D01*
X140218240Y-128016000D01*
X140392632Y-127899475D01*
X140599475Y-127692632D01*
X140761990Y-127449411D01*
X140873932Y-127179158D01*
X140931000Y-126892260D01*
X140931000Y-126599740D01*
X140873932Y-126312842D01*
X140761990Y-126042589D01*
X140599475Y-125799368D01*
X140392632Y-125592525D01*
X140149411Y-125430010D01*
X139879158Y-125318068D01*
X139592260Y-125261000D01*
X139299740Y-125261000D01*
X139012842Y-125318068D01*
X138742589Y-125430010D01*
X138499368Y-125592525D01*
X138292525Y-125799368D01*
X138176000Y-125973760D01*
X138059475Y-125799368D01*
X137852632Y-125592525D01*
X137609411Y-125430010D01*
X137339158Y-125318068D01*
X137052260Y-125261000D01*
X136759740Y-125261000D01*
X136472842Y-125318068D01*
X136202589Y-125430010D01*
X135959368Y-125592525D01*
X135752525Y-125799368D01*
X135590010Y-126042589D01*
X135478068Y-126312842D01*
X135421000Y-126599740D01*
X125089500Y-126599740D01*
X125089500Y-126454146D01*
X125036102Y-126185698D01*
X124931359Y-125932825D01*
X124779295Y-125705246D01*
X124585754Y-125511705D01*
X124358175Y-125359641D01*
X124105302Y-125254898D01*
X123836854Y-125201500D01*
X123563146Y-125201500D01*
X123294698Y-125254898D01*
X123041825Y-125359641D01*
X122814246Y-125511705D01*
X122620705Y-125705246D01*
X122468641Y-125932825D01*
X122363898Y-126185698D01*
X122344568Y-126282878D01*
X122325302Y-126274898D01*
X122056854Y-126221500D01*
X121783146Y-126221500D01*
X121514698Y-126274898D01*
X121261825Y-126379641D01*
X121034246Y-126531705D01*
X120840705Y-126725246D01*
X120688641Y-126952825D01*
X120583898Y-127205698D01*
X120530500Y-127474146D01*
X113982500Y-127474146D01*
X113982500Y-123677203D01*
X117920000Y-123677203D01*
X117920000Y-123964797D01*
X117976107Y-124246866D01*
X118086165Y-124512569D01*
X118245944Y-124751696D01*
X118449304Y-124955056D01*
X118688431Y-125114835D01*
X118954134Y-125224893D01*
X119236203Y-125281000D01*
X119523797Y-125281000D01*
X119805866Y-125224893D01*
X120071569Y-125114835D01*
X120310696Y-124955056D01*
X120514056Y-124751696D01*
X120673835Y-124512569D01*
X120783893Y-124246866D01*
X120840000Y-123964797D01*
X120840000Y-123677203D01*
X120783893Y-123395134D01*
X120775843Y-123375699D01*
X121684906Y-123375699D01*
X121809314Y-123664392D01*
X122139397Y-123828999D01*
X122495251Y-123926048D01*
X122863201Y-123951808D01*
X123229106Y-123905290D01*
X123578906Y-123788282D01*
X123810686Y-123664392D01*
X123935094Y-123375699D01*
X122810000Y-122250605D01*
X121684906Y-123375699D01*
X120775843Y-123375699D01*
X120673835Y-123129431D01*
X120514056Y-122890304D01*
X120310696Y-122686944D01*
X120071569Y-122527165D01*
X119805866Y-122417107D01*
X119523797Y-122361000D01*
X119236203Y-122361000D01*
X118954134Y-122417107D01*
X118688431Y-122527165D01*
X118449304Y-122686944D01*
X118245944Y-122890304D01*
X118086165Y-123129431D01*
X117976107Y-123395134D01*
X117920000Y-123677203D01*
X113982500Y-123677203D01*
X113982500Y-122124201D01*
X120929192Y-122124201D01*
X120975710Y-122490106D01*
X121092718Y-122839906D01*
X121216608Y-123071686D01*
X121505301Y-123196094D01*
X122630395Y-122071000D01*
X122989605Y-122071000D01*
X124114699Y-123196094D01*
X124403392Y-123071686D01*
X124567999Y-122741603D01*
X124665048Y-122385749D01*
X124690808Y-122017799D01*
X124644290Y-121651894D01*
X124527282Y-121302094D01*
X124403392Y-121070314D01*
X124114699Y-120945906D01*
X122989605Y-122071000D01*
X122630395Y-122071000D01*
X121505301Y-120945906D01*
X121216608Y-121070314D01*
X121052001Y-121400397D01*
X120954952Y-121756251D01*
X120929192Y-122124201D01*
X113982500Y-122124201D01*
X113982500Y-120766301D01*
X121684906Y-120766301D01*
X122810000Y-121891395D01*
X123935094Y-120766301D01*
X123810686Y-120477608D01*
X123480603Y-120313001D01*
X123124749Y-120215952D01*
X122756799Y-120190192D01*
X122390894Y-120236710D01*
X122041094Y-120353718D01*
X121809314Y-120477608D01*
X121684906Y-120766301D01*
X113982500Y-120766301D01*
X113982500Y-99758500D01*
X115534261Y-99758500D01*
X115401513Y-99847199D01*
%TD*%
M02*
